<?xml version="1.0" encoding="utf-8" standalone="no"?>
<!DOCTYPE svg PUBLIC "-//W3C//DTD SVG 1.1//EN"
  "http://www.w3.org/Graphics/SVG/1.1/DTD/svg11.dtd">
<svg xmlns:xlink="http://www.w3.org/1999/xlink" width="720pt" height="720pt" viewBox="0 0 720 720" xmlns="http://www.w3.org/2000/svg" version="1.1">
 <metadata>
  <rdf:RDF xmlns:dc="http://purl.org/dc/elements/1.1/" xmlns:cc="http://creativecommons.org/ns#" xmlns:rdf="http://www.w3.org/1999/02/22-rdf-syntax-ns#">
   <cc:Work>
    <dc:type rdf:resource="http://purl.org/dc/dcmitype/StillImage"/>
    <dc:date>2025-07-06T19:14:46.938377</dc:date>
    <dc:format>image/svg+xml</dc:format>
    <dc:creator>
     <cc:Agent>
      <dc:title>Matplotlib v3.7.2, https://matplotlib.org/</dc:title>
     </cc:Agent>
    </dc:creator>
   </cc:Work>
  </rdf:RDF>
 </metadata>
 <defs>
  <style type="text/css">*{stroke-linejoin: round; stroke-linecap: butt}</style>
 </defs>
 <g id="figure_1">
  <g id="patch_1">
   <path d="M 0 720 
L 720 720 
L 720 0 
L 0 0 
z
" style="fill: #ffffff"/>
  </g>
  <g id="axes_1">
   <g id="patch_2">
    <path d="M 55.271818 331.372045 
L 359.655909 331.372045 
L 359.655909 26.987955 
L 55.271818 26.987955 
z
" style="fill: #ffffff"/>
   </g>
   <g id="patch_3">
    <path d="M 345.161429 55.976916 
C 349.00541 55.976916 352.692469 54.449686 355.410574 51.731581 
C 358.128679 49.013475 359.655909 45.326416 359.655909 41.482435 
C 359.655909 37.638454 358.128679 33.951395 355.410574 31.23329 
C 352.692469 28.515184 349.00541 26.987955 345.161429 26.987955 
C 341.317447 26.987955 337.630388 28.515184 334.912283 31.23329 
C 332.194178 33.951395 330.666948 37.638454 330.666948 41.482435 
C 330.666948 45.326416 332.194178 49.013475 334.912283 51.731581 
C 337.630388 54.449686 341.317447 55.976916 345.161429 55.976916 
z
" clip-path="url(#p23401a5840)" style="fill: #bfbf00; stroke: #bfbf00; stroke-width: 2; stroke-linejoin: miter"/>
   </g>
   <g id="PathCollection_1">
    <defs>
     <path id="m8db8a77b90" d="M -9.505215 3.440745 
L -3.399685 2.2002 
L -3.611588 1.157286 
L -1.732241 0.775433 
L -0.844013 5.146926 
L 3.339359 4.296945 
L 3.671308 5.930685 
L 1.130304 6.446964 
L 1.762079 9.556341 
L 7.867623 8.315805 
L 7.235846 5.206417 
L 4.694855 5.722705 
L 4.362906 4.088965 
L 8.546275 3.238972 
L 6.561754 -6.528147 
L 2.378383 -5.678166 
L 2.048221 -7.303109 
L 4.589211 -7.819398 
L 3.957316 -10.929365 
L -2.148214 -9.68882 
L -1.516331 -6.57885 
L 1.024671 -7.095141 
L 1.354836 -5.470186 
L -2.828533 -4.620193 
L -1.940316 -0.248698 
L -3.819686 0.13316 
L -4.031577 -0.909756 
L -10.137119 0.330791 
L -9.505215 3.440745 
z
" style="stroke: #0000ff"/>
    </defs>
    <g clip-path="url(#p23401a5840)">
     <use xlink:href="#m8db8a77b90" x="317.798757" y="79.359607" style="fill: #0000ff; stroke: #0000ff"/>
    </g>
   </g>
   <g id="matplotlib.axis_1">
    <g id="xtick_1">
     <g id="line2d_1">
      <defs>
       <path id="macb83dbec6" d="M 0 0 
L 0 3.5 
" style="stroke: #000000; stroke-width: 0.8"/>
      </defs>
      <g>
       <use xlink:href="#macb83dbec6" x="55.271818" y="331.372045" style="stroke: #000000; stroke-width: 0.8"/>
      </g>
     </g>
     <g id="text_1">
      <!-- −4.0 -->
      <g transform="translate(43.130412 345.970483) scale(0.1 -0.1)">
       <defs>
        <path id="DejaVuSans-2212" d="M 678 2272 
L 4684 2272 
L 4684 1741 
L 678 1741 
L 678 2272 
z
" transform="scale(0.015625)"/>
        <path id="DejaVuSans-34" d="M 2419 4116 
L 825 1625 
L 2419 1625 
L 2419 4116 
z
M 2253 4666 
L 3047 4666 
L 3047 1625 
L 3713 1625 
L 3713 1100 
L 3047 1100 
L 3047 0 
L 2419 0 
L 2419 1100 
L 313 1100 
L 313 1709 
L 2253 4666 
z
" transform="scale(0.015625)"/>
        <path id="DejaVuSans-2e" d="M 684 794 
L 1344 794 
L 1344 0 
L 684 0 
L 684 794 
z
" transform="scale(0.015625)"/>
        <path id="DejaVuSans-30" d="M 2034 4250 
Q 1547 4250 1301 3770 
Q 1056 3291 1056 2328 
Q 1056 1369 1301 889 
Q 1547 409 2034 409 
Q 2525 409 2770 889 
Q 3016 1369 3016 2328 
Q 3016 3291 2770 3770 
Q 2525 4250 2034 4250 
z
M 2034 4750 
Q 2819 4750 3233 4129 
Q 3647 3509 3647 2328 
Q 3647 1150 3233 529 
Q 2819 -91 2034 -91 
Q 1250 -91 836 529 
Q 422 1150 422 2328 
Q 422 3509 836 4129 
Q 1250 4750 2034 4750 
z
" transform="scale(0.015625)"/>
       </defs>
       <use xlink:href="#DejaVuSans-2212"/>
       <use xlink:href="#DejaVuSans-34" x="83.789062"/>
       <use xlink:href="#DejaVuSans-2e" x="147.412109"/>
       <use xlink:href="#DejaVuSans-30" x="179.199219"/>
      </g>
     </g>
    </g>
    <g id="xtick_2">
     <g id="line2d_2">
      <g>
       <use xlink:href="#macb83dbec6" x="91.508019" y="331.372045" style="stroke: #000000; stroke-width: 0.8"/>
      </g>
     </g>
     <g id="text_2">
      <!-- −3.5 -->
      <g transform="translate(79.366613 345.970483) scale(0.1 -0.1)">
       <defs>
        <path id="DejaVuSans-33" d="M 2597 2516 
Q 3050 2419 3304 2112 
Q 3559 1806 3559 1356 
Q 3559 666 3084 287 
Q 2609 -91 1734 -91 
Q 1441 -91 1130 -33 
Q 819 25 488 141 
L 488 750 
Q 750 597 1062 519 
Q 1375 441 1716 441 
Q 2309 441 2620 675 
Q 2931 909 2931 1356 
Q 2931 1769 2642 2001 
Q 2353 2234 1838 2234 
L 1294 2234 
L 1294 2753 
L 1863 2753 
Q 2328 2753 2575 2939 
Q 2822 3125 2822 3475 
Q 2822 3834 2567 4026 
Q 2313 4219 1838 4219 
Q 1578 4219 1281 4162 
Q 984 4106 628 3988 
L 628 4550 
Q 988 4650 1302 4700 
Q 1616 4750 1894 4750 
Q 2613 4750 3031 4423 
Q 3450 4097 3450 3541 
Q 3450 3153 3228 2886 
Q 3006 2619 2597 2516 
z
" transform="scale(0.015625)"/>
        <path id="DejaVuSans-35" d="M 691 4666 
L 3169 4666 
L 3169 4134 
L 1269 4134 
L 1269 2991 
Q 1406 3038 1543 3061 
Q 1681 3084 1819 3084 
Q 2600 3084 3056 2656 
Q 3513 2228 3513 1497 
Q 3513 744 3044 326 
Q 2575 -91 1722 -91 
Q 1428 -91 1123 -41 
Q 819 9 494 109 
L 494 744 
Q 775 591 1075 516 
Q 1375 441 1709 441 
Q 2250 441 2565 725 
Q 2881 1009 2881 1497 
Q 2881 1984 2565 2268 
Q 2250 2553 1709 2553 
Q 1456 2553 1204 2497 
Q 953 2441 691 2322 
L 691 4666 
z
" transform="scale(0.015625)"/>
       </defs>
       <use xlink:href="#DejaVuSans-2212"/>
       <use xlink:href="#DejaVuSans-33" x="83.789062"/>
       <use xlink:href="#DejaVuSans-2e" x="147.412109"/>
       <use xlink:href="#DejaVuSans-35" x="179.199219"/>
      </g>
     </g>
    </g>
    <g id="xtick_3">
     <g id="line2d_3">
      <g>
       <use xlink:href="#macb83dbec6" x="127.744221" y="331.372045" style="stroke: #000000; stroke-width: 0.8"/>
      </g>
     </g>
     <g id="text_3">
      <!-- −3.0 -->
      <g transform="translate(115.602815 345.970483) scale(0.1 -0.1)">
       <use xlink:href="#DejaVuSans-2212"/>
       <use xlink:href="#DejaVuSans-33" x="83.789062"/>
       <use xlink:href="#DejaVuSans-2e" x="147.412109"/>
       <use xlink:href="#DejaVuSans-30" x="179.199219"/>
      </g>
     </g>
    </g>
    <g id="xtick_4">
     <g id="line2d_4">
      <g>
       <use xlink:href="#macb83dbec6" x="163.980422" y="331.372045" style="stroke: #000000; stroke-width: 0.8"/>
      </g>
     </g>
     <g id="text_4">
      <!-- −2.5 -->
      <g transform="translate(151.839016 345.970483) scale(0.1 -0.1)">
       <defs>
        <path id="DejaVuSans-32" d="M 1228 531 
L 3431 531 
L 3431 0 
L 469 0 
L 469 531 
Q 828 903 1448 1529 
Q 2069 2156 2228 2338 
Q 2531 2678 2651 2914 
Q 2772 3150 2772 3378 
Q 2772 3750 2511 3984 
Q 2250 4219 1831 4219 
Q 1534 4219 1204 4116 
Q 875 4013 500 3803 
L 500 4441 
Q 881 4594 1212 4672 
Q 1544 4750 1819 4750 
Q 2544 4750 2975 4387 
Q 3406 4025 3406 3419 
Q 3406 3131 3298 2873 
Q 3191 2616 2906 2266 
Q 2828 2175 2409 1742 
Q 1991 1309 1228 531 
z
" transform="scale(0.015625)"/>
       </defs>
       <use xlink:href="#DejaVuSans-2212"/>
       <use xlink:href="#DejaVuSans-32" x="83.789062"/>
       <use xlink:href="#DejaVuSans-2e" x="147.412109"/>
       <use xlink:href="#DejaVuSans-35" x="179.199219"/>
      </g>
     </g>
    </g>
    <g id="xtick_5">
     <g id="line2d_5">
      <g>
       <use xlink:href="#macb83dbec6" x="200.216623" y="331.372045" style="stroke: #000000; stroke-width: 0.8"/>
      </g>
     </g>
     <g id="text_5">
      <!-- −2.0 -->
      <g transform="translate(188.075217 345.970483) scale(0.1 -0.1)">
       <use xlink:href="#DejaVuSans-2212"/>
       <use xlink:href="#DejaVuSans-32" x="83.789062"/>
       <use xlink:href="#DejaVuSans-2e" x="147.412109"/>
       <use xlink:href="#DejaVuSans-30" x="179.199219"/>
      </g>
     </g>
    </g>
    <g id="xtick_6">
     <g id="line2d_6">
      <g>
       <use xlink:href="#macb83dbec6" x="236.452825" y="331.372045" style="stroke: #000000; stroke-width: 0.8"/>
      </g>
     </g>
     <g id="text_6">
      <!-- −1.5 -->
      <g transform="translate(224.311418 345.970483) scale(0.1 -0.1)">
       <defs>
        <path id="DejaVuSans-31" d="M 794 531 
L 1825 531 
L 1825 4091 
L 703 3866 
L 703 4441 
L 1819 4666 
L 2450 4666 
L 2450 531 
L 3481 531 
L 3481 0 
L 794 0 
L 794 531 
z
" transform="scale(0.015625)"/>
       </defs>
       <use xlink:href="#DejaVuSans-2212"/>
       <use xlink:href="#DejaVuSans-31" x="83.789062"/>
       <use xlink:href="#DejaVuSans-2e" x="147.412109"/>
       <use xlink:href="#DejaVuSans-35" x="179.199219"/>
      </g>
     </g>
    </g>
    <g id="xtick_7">
     <g id="line2d_7">
      <g>
       <use xlink:href="#macb83dbec6" x="272.689026" y="331.372045" style="stroke: #000000; stroke-width: 0.8"/>
      </g>
     </g>
     <g id="text_7">
      <!-- −1.0 -->
      <g transform="translate(260.54762 345.970483) scale(0.1 -0.1)">
       <use xlink:href="#DejaVuSans-2212"/>
       <use xlink:href="#DejaVuSans-31" x="83.789062"/>
       <use xlink:href="#DejaVuSans-2e" x="147.412109"/>
       <use xlink:href="#DejaVuSans-30" x="179.199219"/>
      </g>
     </g>
    </g>
    <g id="xtick_8">
     <g id="line2d_8">
      <g>
       <use xlink:href="#macb83dbec6" x="308.925227" y="331.372045" style="stroke: #000000; stroke-width: 0.8"/>
      </g>
     </g>
     <g id="text_8">
      <!-- −0.5 -->
      <g transform="translate(296.783821 345.970483) scale(0.1 -0.1)">
       <use xlink:href="#DejaVuSans-2212"/>
       <use xlink:href="#DejaVuSans-30" x="83.789062"/>
       <use xlink:href="#DejaVuSans-2e" x="147.412109"/>
       <use xlink:href="#DejaVuSans-35" x="179.199219"/>
      </g>
     </g>
    </g>
    <g id="xtick_9">
     <g id="line2d_9">
      <g>
       <use xlink:href="#macb83dbec6" x="345.161429" y="331.372045" style="stroke: #000000; stroke-width: 0.8"/>
      </g>
     </g>
     <g id="text_9">
      <!-- 0.0 -->
      <g transform="translate(337.209866 345.970483) scale(0.1 -0.1)">
       <use xlink:href="#DejaVuSans-30"/>
       <use xlink:href="#DejaVuSans-2e" x="63.623047"/>
       <use xlink:href="#DejaVuSans-30" x="95.410156"/>
      </g>
     </g>
    </g>
    <g id="text_10">
     <!-- x [m] -->
     <g transform="translate(194.143551 359.648608) scale(0.1 -0.1)">
      <defs>
       <path id="DejaVuSans-78" d="M 3513 3500 
L 2247 1797 
L 3578 0 
L 2900 0 
L 1881 1375 
L 863 0 
L 184 0 
L 1544 1831 
L 300 3500 
L 978 3500 
L 1906 2253 
L 2834 3500 
L 3513 3500 
z
" transform="scale(0.015625)"/>
       <path id="DejaVuSans-20" transform="scale(0.015625)"/>
       <path id="DejaVuSans-5b" d="M 550 4863 
L 1875 4863 
L 1875 4416 
L 1125 4416 
L 1125 -397 
L 1875 -397 
L 1875 -844 
L 550 -844 
L 550 4863 
z
" transform="scale(0.015625)"/>
       <path id="DejaVuSans-6d" d="M 3328 2828 
Q 3544 3216 3844 3400 
Q 4144 3584 4550 3584 
Q 5097 3584 5394 3201 
Q 5691 2819 5691 2113 
L 5691 0 
L 5113 0 
L 5113 2094 
Q 5113 2597 4934 2840 
Q 4756 3084 4391 3084 
Q 3944 3084 3684 2787 
Q 3425 2491 3425 1978 
L 3425 0 
L 2847 0 
L 2847 2094 
Q 2847 2600 2669 2842 
Q 2491 3084 2119 3084 
Q 1678 3084 1418 2786 
Q 1159 2488 1159 1978 
L 1159 0 
L 581 0 
L 581 3500 
L 1159 3500 
L 1159 2956 
Q 1356 3278 1631 3431 
Q 1906 3584 2284 3584 
Q 2666 3584 2933 3390 
Q 3200 3197 3328 2828 
z
" transform="scale(0.015625)"/>
       <path id="DejaVuSans-5d" d="M 1947 4863 
L 1947 -844 
L 622 -844 
L 622 -397 
L 1369 -397 
L 1369 4416 
L 622 4416 
L 622 4863 
L 1947 4863 
z
" transform="scale(0.015625)"/>
      </defs>
      <use xlink:href="#DejaVuSans-78"/>
      <use xlink:href="#DejaVuSans-20" x="59.179688"/>
      <use xlink:href="#DejaVuSans-5b" x="90.966797"/>
      <use xlink:href="#DejaVuSans-6d" x="129.980469"/>
      <use xlink:href="#DejaVuSans-5d" x="227.392578"/>
     </g>
    </g>
   </g>
   <g id="matplotlib.axis_2">
    <g id="ytick_1">
     <g id="line2d_10">
      <defs>
       <path id="m0dcb3bfbd6" d="M 0 0 
L -3.5 0 
" style="stroke: #000000; stroke-width: 0.8"/>
      </defs>
      <g>
       <use xlink:href="#m0dcb3bfbd6" x="55.271818" y="331.372045" style="stroke: #000000; stroke-width: 0.8"/>
      </g>
     </g>
     <g id="text_11">
      <!-- −4.0 -->
      <g transform="translate(23.989006 335.171264) scale(0.1 -0.1)">
       <use xlink:href="#DejaVuSans-2212"/>
       <use xlink:href="#DejaVuSans-34" x="83.789062"/>
       <use xlink:href="#DejaVuSans-2e" x="147.412109"/>
       <use xlink:href="#DejaVuSans-30" x="179.199219"/>
      </g>
     </g>
    </g>
    <g id="ytick_2">
     <g id="line2d_11">
      <g>
       <use xlink:href="#m0dcb3bfbd6" x="55.271818" y="295.135844" style="stroke: #000000; stroke-width: 0.8"/>
      </g>
     </g>
     <g id="text_12">
      <!-- −3.5 -->
      <g transform="translate(23.989006 298.935063) scale(0.1 -0.1)">
       <use xlink:href="#DejaVuSans-2212"/>
       <use xlink:href="#DejaVuSans-33" x="83.789062"/>
       <use xlink:href="#DejaVuSans-2e" x="147.412109"/>
       <use xlink:href="#DejaVuSans-35" x="179.199219"/>
      </g>
     </g>
    </g>
    <g id="ytick_3">
     <g id="line2d_12">
      <g>
       <use xlink:href="#m0dcb3bfbd6" x="55.271818" y="258.899643" style="stroke: #000000; stroke-width: 0.8"/>
      </g>
     </g>
     <g id="text_13">
      <!-- −3.0 -->
      <g transform="translate(23.989006 262.698862) scale(0.1 -0.1)">
       <use xlink:href="#DejaVuSans-2212"/>
       <use xlink:href="#DejaVuSans-33" x="83.789062"/>
       <use xlink:href="#DejaVuSans-2e" x="147.412109"/>
       <use xlink:href="#DejaVuSans-30" x="179.199219"/>
      </g>
     </g>
    </g>
    <g id="ytick_4">
     <g id="line2d_13">
      <g>
       <use xlink:href="#m0dcb3bfbd6" x="55.271818" y="222.663442" style="stroke: #000000; stroke-width: 0.8"/>
      </g>
     </g>
     <g id="text_14">
      <!-- −2.5 -->
      <g transform="translate(23.989006 226.46266) scale(0.1 -0.1)">
       <use xlink:href="#DejaVuSans-2212"/>
       <use xlink:href="#DejaVuSans-32" x="83.789062"/>
       <use xlink:href="#DejaVuSans-2e" x="147.412109"/>
       <use xlink:href="#DejaVuSans-35" x="179.199219"/>
      </g>
     </g>
    </g>
    <g id="ytick_5">
     <g id="line2d_14">
      <g>
       <use xlink:href="#m0dcb3bfbd6" x="55.271818" y="186.42724" style="stroke: #000000; stroke-width: 0.8"/>
      </g>
     </g>
     <g id="text_15">
      <!-- −2.0 -->
      <g transform="translate(23.989006 190.226459) scale(0.1 -0.1)">
       <use xlink:href="#DejaVuSans-2212"/>
       <use xlink:href="#DejaVuSans-32" x="83.789062"/>
       <use xlink:href="#DejaVuSans-2e" x="147.412109"/>
       <use xlink:href="#DejaVuSans-30" x="179.199219"/>
      </g>
     </g>
    </g>
    <g id="ytick_6">
     <g id="line2d_15">
      <g>
       <use xlink:href="#m0dcb3bfbd6" x="55.271818" y="150.191039" style="stroke: #000000; stroke-width: 0.8"/>
      </g>
     </g>
     <g id="text_16">
      <!-- −1.5 -->
      <g transform="translate(23.989006 153.990258) scale(0.1 -0.1)">
       <use xlink:href="#DejaVuSans-2212"/>
       <use xlink:href="#DejaVuSans-31" x="83.789062"/>
       <use xlink:href="#DejaVuSans-2e" x="147.412109"/>
       <use xlink:href="#DejaVuSans-35" x="179.199219"/>
      </g>
     </g>
    </g>
    <g id="ytick_7">
     <g id="line2d_16">
      <g>
       <use xlink:href="#m0dcb3bfbd6" x="55.271818" y="113.954838" style="stroke: #000000; stroke-width: 0.8"/>
      </g>
     </g>
     <g id="text_17">
      <!-- −1.0 -->
      <g transform="translate(23.989006 117.754056) scale(0.1 -0.1)">
       <use xlink:href="#DejaVuSans-2212"/>
       <use xlink:href="#DejaVuSans-31" x="83.789062"/>
       <use xlink:href="#DejaVuSans-2e" x="147.412109"/>
       <use xlink:href="#DejaVuSans-30" x="179.199219"/>
      </g>
     </g>
    </g>
    <g id="ytick_8">
     <g id="line2d_17">
      <g>
       <use xlink:href="#m0dcb3bfbd6" x="55.271818" y="77.718636" style="stroke: #000000; stroke-width: 0.8"/>
      </g>
     </g>
     <g id="text_18">
      <!-- −0.5 -->
      <g transform="translate(23.989006 81.517855) scale(0.1 -0.1)">
       <use xlink:href="#DejaVuSans-2212"/>
       <use xlink:href="#DejaVuSans-30" x="83.789062"/>
       <use xlink:href="#DejaVuSans-2e" x="147.412109"/>
       <use xlink:href="#DejaVuSans-35" x="179.199219"/>
      </g>
     </g>
    </g>
    <g id="ytick_9">
     <g id="line2d_18">
      <g>
       <use xlink:href="#m0dcb3bfbd6" x="55.271818" y="41.482435" style="stroke: #000000; stroke-width: 0.8"/>
      </g>
     </g>
     <g id="text_19">
      <!-- 0.0 -->
      <g transform="translate(32.368693 45.281654) scale(0.1 -0.1)">
       <use xlink:href="#DejaVuSans-30"/>
       <use xlink:href="#DejaVuSans-2e" x="63.623047"/>
       <use xlink:href="#DejaVuSans-30" x="95.410156"/>
      </g>
     </g>
    </g>
    <g id="text_20">
     <!-- y [m] -->
     <g transform="translate(17.909318 192.500313) rotate(-90) scale(0.1 -0.1)">
      <defs>
       <path id="DejaVuSans-79" d="M 2059 -325 
Q 1816 -950 1584 -1140 
Q 1353 -1331 966 -1331 
L 506 -1331 
L 506 -850 
L 844 -850 
Q 1081 -850 1212 -737 
Q 1344 -625 1503 -206 
L 1606 56 
L 191 3500 
L 800 3500 
L 1894 763 
L 2988 3500 
L 3597 3500 
L 2059 -325 
z
" transform="scale(0.015625)"/>
      </defs>
      <use xlink:href="#DejaVuSans-79"/>
      <use xlink:href="#DejaVuSans-20" x="59.179688"/>
      <use xlink:href="#DejaVuSans-5b" x="90.966797"/>
      <use xlink:href="#DejaVuSans-6d" x="129.980469"/>
      <use xlink:href="#DejaVuSans-5d" x="227.392578"/>
     </g>
    </g>
   </g>
   <g id="line2d_19">
    <path d="M 55.271818 41.482435 
L 359.655909 41.482435 
" clip-path="url(#p23401a5840)" style="fill: none; stroke-dasharray: 2.775,1.2; stroke-dashoffset: 0; stroke: #000000; stroke-width: 0.75"/>
   </g>
   <g id="line2d_20">
    <path d="M 345.161429 331.372045 
L 345.161429 26.987955 
" clip-path="url(#p23401a5840)" style="fill: none; stroke-dasharray: 2.775,1.2; stroke-dashoffset: 0; stroke: #000000; stroke-width: 0.75"/>
   </g>
   <g id="line2d_21">
    <path d="M 127.744221 258.899643 
L 127.71572 260.644146 
L 127.829835 257.973505 
L 128.227208 252.329448 
L 128.830912 246.715503 
L 129.634302 241.143627 
L 130.63033 235.625285 
L 131.811524 230.171192 
L 133.41322 223.902104 
L 135.244677 217.744295 
L 137.290764 211.71658 
L 139.538244 205.827883 
L 141.973063 200.087819 
L 144.57891 194.508908 
L 147.342547 189.095035 
L 150.249674 183.851599 
L 153.283202 178.787476 
L 156.890038 173.217525 
L 160.622213 167.888386 
L 164.46241 162.796704 
L 168.391007 157.942277 
L 172.386042 153.326926 
L 176.942368 148.410813 
L 181.540452 143.78213 
L 186.155836 139.435139 
L 191.27952 134.923781 
L 196.380539 130.728562 
L 201.941522 126.459282 
L 207.424841 122.531975 
L 213.297135 118.60929 
L 219.033864 115.036156 
L 225.07713 111.526202 
L 231.366493 108.128069 
L 237.838351 104.881024 
L 244.427803 101.814635 
L 251.446305 98.793327 
L 258.755761 95.893228 
L 266.214304 93.171275 
L 273.980064 90.569516 
L 282.361533 88.002495 
L 290.957279 85.603451 
L 300.164605 83.266855 
L 309.998391 81.004611 
L 317.798757 79.359607 
L 317.798757 79.359607 
" clip-path="url(#p23401a5840)" style="fill: none; stroke-dasharray: 1.85,0.8; stroke-dashoffset: 0; stroke: #0000ff; stroke-width: 0.5"/>
   </g>
   <g id="patch_4">
    <path d="M 55.271818 331.372045 
L 55.271818 26.987955 
" style="fill: none; stroke: #000000; stroke-width: 0.8; stroke-linejoin: miter; stroke-linecap: square"/>
   </g>
   <g id="patch_5">
    <path d="M 359.655909 331.372045 
L 359.655909 26.987955 
" style="fill: none; stroke: #000000; stroke-width: 0.8; stroke-linejoin: miter; stroke-linecap: square"/>
   </g>
   <g id="patch_6">
    <path d="M 55.271818 331.372045 
L 359.655909 331.372045 
" style="fill: none; stroke: #000000; stroke-width: 0.8; stroke-linejoin: miter; stroke-linecap: square"/>
   </g>
   <g id="patch_7">
    <path d="M 55.271818 26.987955 
L 359.655909 26.987955 
" style="fill: none; stroke: #000000; stroke-width: 0.8; stroke-linejoin: miter; stroke-linecap: square"/>
   </g>
   <g id="text_21">
    <!-- Target -->
    <g transform="translate(323.129818 60.185739) scale(0.1 -0.1)">
     <defs>
      <path id="DejaVuSans-54" d="M -19 4666 
L 3928 4666 
L 3928 4134 
L 2272 4134 
L 2272 0 
L 1638 0 
L 1638 4134 
L -19 4134 
L -19 4666 
z
" transform="scale(0.015625)"/>
      <path id="DejaVuSans-61" d="M 2194 1759 
Q 1497 1759 1228 1600 
Q 959 1441 959 1056 
Q 959 750 1161 570 
Q 1363 391 1709 391 
Q 2188 391 2477 730 
Q 2766 1069 2766 1631 
L 2766 1759 
L 2194 1759 
z
M 3341 1997 
L 3341 0 
L 2766 0 
L 2766 531 
Q 2569 213 2275 61 
Q 1981 -91 1556 -91 
Q 1019 -91 701 211 
Q 384 513 384 1019 
Q 384 1609 779 1909 
Q 1175 2209 1959 2209 
L 2766 2209 
L 2766 2266 
Q 2766 2663 2505 2880 
Q 2244 3097 1772 3097 
Q 1472 3097 1187 3025 
Q 903 2953 641 2809 
L 641 3341 
Q 956 3463 1253 3523 
Q 1550 3584 1831 3584 
Q 2591 3584 2966 3190 
Q 3341 2797 3341 1997 
z
" transform="scale(0.015625)"/>
      <path id="DejaVuSans-72" d="M 2631 2963 
Q 2534 3019 2420 3045 
Q 2306 3072 2169 3072 
Q 1681 3072 1420 2755 
Q 1159 2438 1159 1844 
L 1159 0 
L 581 0 
L 581 3500 
L 1159 3500 
L 1159 2956 
Q 1341 3275 1631 3429 
Q 1922 3584 2338 3584 
Q 2397 3584 2469 3576 
Q 2541 3569 2628 3553 
L 2631 2963 
z
" transform="scale(0.015625)"/>
      <path id="DejaVuSans-67" d="M 2906 1791 
Q 2906 2416 2648 2759 
Q 2391 3103 1925 3103 
Q 1463 3103 1205 2759 
Q 947 2416 947 1791 
Q 947 1169 1205 825 
Q 1463 481 1925 481 
Q 2391 481 2648 825 
Q 2906 1169 2906 1791 
z
M 3481 434 
Q 3481 -459 3084 -895 
Q 2688 -1331 1869 -1331 
Q 1566 -1331 1297 -1286 
Q 1028 -1241 775 -1147 
L 775 -588 
Q 1028 -725 1275 -790 
Q 1522 -856 1778 -856 
Q 2344 -856 2625 -561 
Q 2906 -266 2906 331 
L 2906 616 
Q 2728 306 2450 153 
Q 2172 0 1784 0 
Q 1141 0 747 490 
Q 353 981 353 1791 
Q 353 2603 747 3093 
Q 1141 3584 1784 3584 
Q 2172 3584 2450 3431 
Q 2728 3278 2906 2969 
L 2906 3500 
L 3481 3500 
L 3481 434 
z
" transform="scale(0.015625)"/>
      <path id="DejaVuSans-65" d="M 3597 1894 
L 3597 1613 
L 953 1613 
Q 991 1019 1311 708 
Q 1631 397 2203 397 
Q 2534 397 2845 478 
Q 3156 559 3463 722 
L 3463 178 
Q 3153 47 2828 -22 
Q 2503 -91 2169 -91 
Q 1331 -91 842 396 
Q 353 884 353 1716 
Q 353 2575 817 3079 
Q 1281 3584 2069 3584 
Q 2775 3584 3186 3129 
Q 3597 2675 3597 1894 
z
M 3022 2063 
Q 3016 2534 2758 2815 
Q 2500 3097 2075 3097 
Q 1594 3097 1305 2825 
Q 1016 2553 972 2059 
L 3022 2063 
z
" transform="scale(0.015625)"/>
      <path id="DejaVuSans-74" d="M 1172 4494 
L 1172 3500 
L 2356 3500 
L 2356 3053 
L 1172 3053 
L 1172 1153 
Q 1172 725 1289 603 
Q 1406 481 1766 481 
L 2356 481 
L 2356 0 
L 1766 0 
Q 1100 0 847 248 
Q 594 497 594 1153 
L 594 3053 
L 172 3053 
L 172 3500 
L 594 3500 
L 594 4494 
L 1172 4494 
z
" transform="scale(0.015625)"/>
     </defs>
     <use xlink:href="#DejaVuSans-54"/>
     <use xlink:href="#DejaVuSans-61" x="44.583984"/>
     <use xlink:href="#DejaVuSans-72" x="105.863281"/>
     <use xlink:href="#DejaVuSans-67" x="145.226562"/>
     <use xlink:href="#DejaVuSans-65" x="208.703125"/>
     <use xlink:href="#DejaVuSans-74" x="270.226562"/>
    </g>
   </g>
   <g id="text_22">
    <!-- t = 30.000 -->
    <g transform="translate(70.491023 44.966534) scale(0.1 -0.1)">
     <defs>
      <path id="DejaVuSans-3d" d="M 678 2906 
L 4684 2906 
L 4684 2381 
L 678 2381 
L 678 2906 
z
M 678 1631 
L 4684 1631 
L 4684 1100 
L 678 1100 
L 678 1631 
z
" transform="scale(0.015625)"/>
     </defs>
     <use xlink:href="#DejaVuSans-74"/>
     <use xlink:href="#DejaVuSans-20" x="39.208984"/>
     <use xlink:href="#DejaVuSans-3d" x="70.996094"/>
     <use xlink:href="#DejaVuSans-20" x="154.785156"/>
     <use xlink:href="#DejaVuSans-33" x="186.572266"/>
     <use xlink:href="#DejaVuSans-30" x="250.195312"/>
     <use xlink:href="#DejaVuSans-2e" x="313.818359"/>
     <use xlink:href="#DejaVuSans-30" x="345.605469"/>
     <use xlink:href="#DejaVuSans-30" x="409.228516"/>
     <use xlink:href="#DejaVuSans-30" x="472.851562"/>
    </g>
   </g>
   <g id="text_23">
    <!-- Pause - space, q - quit, click - data cursor -->
    <g transform="translate(83.554489 20.987955) scale(0.12 -0.12)">
     <defs>
      <path id="DejaVuSans-50" d="M 1259 4147 
L 1259 2394 
L 2053 2394 
Q 2494 2394 2734 2622 
Q 2975 2850 2975 3272 
Q 2975 3691 2734 3919 
Q 2494 4147 2053 4147 
L 1259 4147 
z
M 628 4666 
L 2053 4666 
Q 2838 4666 3239 4311 
Q 3641 3956 3641 3272 
Q 3641 2581 3239 2228 
Q 2838 1875 2053 1875 
L 1259 1875 
L 1259 0 
L 628 0 
L 628 4666 
z
" transform="scale(0.015625)"/>
      <path id="DejaVuSans-75" d="M 544 1381 
L 544 3500 
L 1119 3500 
L 1119 1403 
Q 1119 906 1312 657 
Q 1506 409 1894 409 
Q 2359 409 2629 706 
Q 2900 1003 2900 1516 
L 2900 3500 
L 3475 3500 
L 3475 0 
L 2900 0 
L 2900 538 
Q 2691 219 2414 64 
Q 2138 -91 1772 -91 
Q 1169 -91 856 284 
Q 544 659 544 1381 
z
M 1991 3584 
L 1991 3584 
z
" transform="scale(0.015625)"/>
      <path id="DejaVuSans-73" d="M 2834 3397 
L 2834 2853 
Q 2591 2978 2328 3040 
Q 2066 3103 1784 3103 
Q 1356 3103 1142 2972 
Q 928 2841 928 2578 
Q 928 2378 1081 2264 
Q 1234 2150 1697 2047 
L 1894 2003 
Q 2506 1872 2764 1633 
Q 3022 1394 3022 966 
Q 3022 478 2636 193 
Q 2250 -91 1575 -91 
Q 1294 -91 989 -36 
Q 684 19 347 128 
L 347 722 
Q 666 556 975 473 
Q 1284 391 1588 391 
Q 1994 391 2212 530 
Q 2431 669 2431 922 
Q 2431 1156 2273 1281 
Q 2116 1406 1581 1522 
L 1381 1569 
Q 847 1681 609 1914 
Q 372 2147 372 2553 
Q 372 3047 722 3315 
Q 1072 3584 1716 3584 
Q 2034 3584 2315 3537 
Q 2597 3491 2834 3397 
z
" transform="scale(0.015625)"/>
      <path id="DejaVuSans-2d" d="M 313 2009 
L 1997 2009 
L 1997 1497 
L 313 1497 
L 313 2009 
z
" transform="scale(0.015625)"/>
      <path id="DejaVuSans-70" d="M 1159 525 
L 1159 -1331 
L 581 -1331 
L 581 3500 
L 1159 3500 
L 1159 2969 
Q 1341 3281 1617 3432 
Q 1894 3584 2278 3584 
Q 2916 3584 3314 3078 
Q 3713 2572 3713 1747 
Q 3713 922 3314 415 
Q 2916 -91 2278 -91 
Q 1894 -91 1617 61 
Q 1341 213 1159 525 
z
M 3116 1747 
Q 3116 2381 2855 2742 
Q 2594 3103 2138 3103 
Q 1681 3103 1420 2742 
Q 1159 2381 1159 1747 
Q 1159 1113 1420 752 
Q 1681 391 2138 391 
Q 2594 391 2855 752 
Q 3116 1113 3116 1747 
z
" transform="scale(0.015625)"/>
      <path id="DejaVuSans-63" d="M 3122 3366 
L 3122 2828 
Q 2878 2963 2633 3030 
Q 2388 3097 2138 3097 
Q 1578 3097 1268 2742 
Q 959 2388 959 1747 
Q 959 1106 1268 751 
Q 1578 397 2138 397 
Q 2388 397 2633 464 
Q 2878 531 3122 666 
L 3122 134 
Q 2881 22 2623 -34 
Q 2366 -91 2075 -91 
Q 1284 -91 818 406 
Q 353 903 353 1747 
Q 353 2603 823 3093 
Q 1294 3584 2113 3584 
Q 2378 3584 2631 3529 
Q 2884 3475 3122 3366 
z
" transform="scale(0.015625)"/>
      <path id="DejaVuSans-2c" d="M 750 794 
L 1409 794 
L 1409 256 
L 897 -744 
L 494 -744 
L 750 256 
L 750 794 
z
" transform="scale(0.015625)"/>
      <path id="DejaVuSans-71" d="M 947 1747 
Q 947 1113 1208 752 
Q 1469 391 1925 391 
Q 2381 391 2643 752 
Q 2906 1113 2906 1747 
Q 2906 2381 2643 2742 
Q 2381 3103 1925 3103 
Q 1469 3103 1208 2742 
Q 947 2381 947 1747 
z
M 2906 525 
Q 2725 213 2448 61 
Q 2172 -91 1784 -91 
Q 1150 -91 751 415 
Q 353 922 353 1747 
Q 353 2572 751 3078 
Q 1150 3584 1784 3584 
Q 2172 3584 2448 3432 
Q 2725 3281 2906 2969 
L 2906 3500 
L 3481 3500 
L 3481 -1331 
L 2906 -1331 
L 2906 525 
z
" transform="scale(0.015625)"/>
      <path id="DejaVuSans-69" d="M 603 3500 
L 1178 3500 
L 1178 0 
L 603 0 
L 603 3500 
z
M 603 4863 
L 1178 4863 
L 1178 4134 
L 603 4134 
L 603 4863 
z
" transform="scale(0.015625)"/>
      <path id="DejaVuSans-6c" d="M 603 4863 
L 1178 4863 
L 1178 0 
L 603 0 
L 603 4863 
z
" transform="scale(0.015625)"/>
      <path id="DejaVuSans-6b" d="M 581 4863 
L 1159 4863 
L 1159 1991 
L 2875 3500 
L 3609 3500 
L 1753 1863 
L 3688 0 
L 2938 0 
L 1159 1709 
L 1159 0 
L 581 0 
L 581 4863 
z
" transform="scale(0.015625)"/>
      <path id="DejaVuSans-64" d="M 2906 2969 
L 2906 4863 
L 3481 4863 
L 3481 0 
L 2906 0 
L 2906 525 
Q 2725 213 2448 61 
Q 2172 -91 1784 -91 
Q 1150 -91 751 415 
Q 353 922 353 1747 
Q 353 2572 751 3078 
Q 1150 3584 1784 3584 
Q 2172 3584 2448 3432 
Q 2725 3281 2906 2969 
z
M 947 1747 
Q 947 1113 1208 752 
Q 1469 391 1925 391 
Q 2381 391 2643 752 
Q 2906 1113 2906 1747 
Q 2906 2381 2643 2742 
Q 2381 3103 1925 3103 
Q 1469 3103 1208 2742 
Q 947 2381 947 1747 
z
" transform="scale(0.015625)"/>
      <path id="DejaVuSans-6f" d="M 1959 3097 
Q 1497 3097 1228 2736 
Q 959 2375 959 1747 
Q 959 1119 1226 758 
Q 1494 397 1959 397 
Q 2419 397 2687 759 
Q 2956 1122 2956 1747 
Q 2956 2369 2687 2733 
Q 2419 3097 1959 3097 
z
M 1959 3584 
Q 2709 3584 3137 3096 
Q 3566 2609 3566 1747 
Q 3566 888 3137 398 
Q 2709 -91 1959 -91 
Q 1206 -91 779 398 
Q 353 888 353 1747 
Q 353 2609 779 3096 
Q 1206 3584 1959 3584 
z
" transform="scale(0.015625)"/>
     </defs>
     <use xlink:href="#DejaVuSans-50"/>
     <use xlink:href="#DejaVuSans-61" x="55.802734"/>
     <use xlink:href="#DejaVuSans-75" x="117.082031"/>
     <use xlink:href="#DejaVuSans-73" x="180.460938"/>
     <use xlink:href="#DejaVuSans-65" x="232.560547"/>
     <use xlink:href="#DejaVuSans-20" x="294.083984"/>
     <use xlink:href="#DejaVuSans-2d" x="325.871094"/>
     <use xlink:href="#DejaVuSans-20" x="361.955078"/>
     <use xlink:href="#DejaVuSans-73" x="393.742188"/>
     <use xlink:href="#DejaVuSans-70" x="445.841797"/>
     <use xlink:href="#DejaVuSans-61" x="509.318359"/>
     <use xlink:href="#DejaVuSans-63" x="570.597656"/>
     <use xlink:href="#DejaVuSans-65" x="625.578125"/>
     <use xlink:href="#DejaVuSans-2c" x="687.101562"/>
     <use xlink:href="#DejaVuSans-20" x="718.888672"/>
     <use xlink:href="#DejaVuSans-71" x="750.675781"/>
     <use xlink:href="#DejaVuSans-20" x="814.152344"/>
     <use xlink:href="#DejaVuSans-2d" x="845.939453"/>
     <use xlink:href="#DejaVuSans-20" x="882.023438"/>
     <use xlink:href="#DejaVuSans-71" x="913.810547"/>
     <use xlink:href="#DejaVuSans-75" x="977.287109"/>
     <use xlink:href="#DejaVuSans-69" x="1040.666016"/>
     <use xlink:href="#DejaVuSans-74" x="1068.449219"/>
     <use xlink:href="#DejaVuSans-2c" x="1107.658203"/>
     <use xlink:href="#DejaVuSans-20" x="1139.445312"/>
     <use xlink:href="#DejaVuSans-63" x="1171.232422"/>
     <use xlink:href="#DejaVuSans-6c" x="1226.212891"/>
     <use xlink:href="#DejaVuSans-69" x="1253.996094"/>
     <use xlink:href="#DejaVuSans-63" x="1281.779297"/>
     <use xlink:href="#DejaVuSans-6b" x="1336.759766"/>
     <use xlink:href="#DejaVuSans-20" x="1394.669922"/>
     <use xlink:href="#DejaVuSans-2d" x="1426.457031"/>
     <use xlink:href="#DejaVuSans-20" x="1462.541016"/>
     <use xlink:href="#DejaVuSans-64" x="1494.328125"/>
     <use xlink:href="#DejaVuSans-61" x="1557.804688"/>
     <use xlink:href="#DejaVuSans-74" x="1619.083984"/>
     <use xlink:href="#DejaVuSans-61" x="1658.292969"/>
     <use xlink:href="#DejaVuSans-20" x="1719.572266"/>
     <use xlink:href="#DejaVuSans-63" x="1751.359375"/>
     <use xlink:href="#DejaVuSans-75" x="1806.339844"/>
     <use xlink:href="#DejaVuSans-72" x="1869.71875"/>
     <use xlink:href="#DejaVuSans-73" x="1910.832031"/>
     <use xlink:href="#DejaVuSans-6f" x="1962.931641"/>
     <use xlink:href="#DejaVuSans-72" x="2024.113281"/>
    </g>
   </g>
  </g>
  <g id="axes_2">
   <g id="patch_8">
    <path d="M 398.515909 331.48 
L 702.9 331.48 
L 702.9 26.88 
L 398.515909 26.88 
z
" style="fill: #ffffff"/>
   </g>
   <g id="matplotlib.axis_3">
    <g id="xtick_10">
     <g id="line2d_22">
      <g>
       <use xlink:href="#macb83dbec6" x="398.515909" y="331.48" style="stroke: #000000; stroke-width: 0.8"/>
      </g>
     </g>
     <g id="text_24">
      <!-- 0 -->
      <g transform="translate(395.334659 346.078438) scale(0.1 -0.1)">
       <use xlink:href="#DejaVuSans-30"/>
      </g>
     </g>
    </g>
    <g id="xtick_11">
     <g id="line2d_23">
      <g>
       <use xlink:href="#macb83dbec6" x="449.246591" y="331.48" style="stroke: #000000; stroke-width: 0.8"/>
      </g>
     </g>
     <g id="text_25">
      <!-- 5 -->
      <g transform="translate(446.065341 346.078438) scale(0.1 -0.1)">
       <use xlink:href="#DejaVuSans-35"/>
      </g>
     </g>
    </g>
    <g id="xtick_12">
     <g id="line2d_24">
      <g>
       <use xlink:href="#macb83dbec6" x="499.977273" y="331.48" style="stroke: #000000; stroke-width: 0.8"/>
      </g>
     </g>
     <g id="text_26">
      <!-- 10 -->
      <g transform="translate(493.614773 346.078438) scale(0.1 -0.1)">
       <use xlink:href="#DejaVuSans-31"/>
       <use xlink:href="#DejaVuSans-30" x="63.623047"/>
      </g>
     </g>
    </g>
    <g id="xtick_13">
     <g id="line2d_25">
      <g>
       <use xlink:href="#macb83dbec6" x="550.707955" y="331.48" style="stroke: #000000; stroke-width: 0.8"/>
      </g>
     </g>
     <g id="text_27">
      <!-- 15 -->
      <g transform="translate(544.345455 346.078438) scale(0.1 -0.1)">
       <use xlink:href="#DejaVuSans-31"/>
       <use xlink:href="#DejaVuSans-35" x="63.623047"/>
      </g>
     </g>
    </g>
    <g id="xtick_14">
     <g id="line2d_26">
      <g>
       <use xlink:href="#macb83dbec6" x="601.438636" y="331.48" style="stroke: #000000; stroke-width: 0.8"/>
      </g>
     </g>
     <g id="text_28">
      <!-- 20 -->
      <g transform="translate(595.076136 346.078438) scale(0.1 -0.1)">
       <use xlink:href="#DejaVuSans-32"/>
       <use xlink:href="#DejaVuSans-30" x="63.623047"/>
      </g>
     </g>
    </g>
    <g id="xtick_15">
     <g id="line2d_27">
      <g>
       <use xlink:href="#macb83dbec6" x="652.169318" y="331.48" style="stroke: #000000; stroke-width: 0.8"/>
      </g>
     </g>
     <g id="text_29">
      <!-- 25 -->
      <g transform="translate(645.806818 346.078438) scale(0.1 -0.1)">
       <use xlink:href="#DejaVuSans-32"/>
       <use xlink:href="#DejaVuSans-35" x="63.623047"/>
      </g>
     </g>
    </g>
    <g id="xtick_16">
     <g id="line2d_28">
      <g>
       <use xlink:href="#macb83dbec6" x="702.9" y="331.48" style="stroke: #000000; stroke-width: 0.8"/>
      </g>
     </g>
     <g id="text_30">
      <!-- 30 -->
      <g transform="translate(696.5375 346.078438) scale(0.1 -0.1)">
       <use xlink:href="#DejaVuSans-33"/>
       <use xlink:href="#DejaVuSans-30" x="63.623047"/>
      </g>
     </g>
    </g>
    <g id="text_31">
     <!-- t [s] -->
     <g transform="translate(540.652486 359.756563) scale(0.1 -0.1)">
      <use xlink:href="#DejaVuSans-74"/>
      <use xlink:href="#DejaVuSans-20" x="39.208984"/>
      <use xlink:href="#DejaVuSans-5b" x="70.996094"/>
      <use xlink:href="#DejaVuSans-73" x="110.009766"/>
      <use xlink:href="#DejaVuSans-5d" x="162.109375"/>
     </g>
    </g>
   </g>
   <g id="matplotlib.axis_4">
    <g id="ytick_10">
     <g id="line2d_29">
      <g>
       <use xlink:href="#m0dcb3bfbd6" x="398.515909" y="317.634545" style="stroke: #000000; stroke-width: 0.8"/>
      </g>
     </g>
     <g id="text_32">
      <!-- −8 -->
      <g transform="translate(376.773722 321.433764) scale(0.1 -0.1)">
       <defs>
        <path id="DejaVuSans-38" d="M 2034 2216 
Q 1584 2216 1326 1975 
Q 1069 1734 1069 1313 
Q 1069 891 1326 650 
Q 1584 409 2034 409 
Q 2484 409 2743 651 
Q 3003 894 3003 1313 
Q 3003 1734 2745 1975 
Q 2488 2216 2034 2216 
z
M 1403 2484 
Q 997 2584 770 2862 
Q 544 3141 544 3541 
Q 544 4100 942 4425 
Q 1341 4750 2034 4750 
Q 2731 4750 3128 4425 
Q 3525 4100 3525 3541 
Q 3525 3141 3298 2862 
Q 3072 2584 2669 2484 
Q 3125 2378 3379 2068 
Q 3634 1759 3634 1313 
Q 3634 634 3220 271 
Q 2806 -91 2034 -91 
Q 1263 -91 848 271 
Q 434 634 434 1313 
Q 434 1759 690 2068 
Q 947 2378 1403 2484 
z
M 1172 3481 
Q 1172 3119 1398 2916 
Q 1625 2713 2034 2713 
Q 2441 2713 2670 2916 
Q 2900 3119 2900 3481 
Q 2900 3844 2670 4047 
Q 2441 4250 2034 4250 
Q 1625 4250 1398 4047 
Q 1172 3844 1172 3481 
z
" transform="scale(0.015625)"/>
       </defs>
       <use xlink:href="#DejaVuSans-2212"/>
       <use xlink:href="#DejaVuSans-38" x="83.789062"/>
      </g>
     </g>
    </g>
    <g id="ytick_11">
     <g id="line2d_30">
      <g>
       <use xlink:href="#m0dcb3bfbd6" x="398.515909" y="283.020909" style="stroke: #000000; stroke-width: 0.8"/>
      </g>
     </g>
     <g id="text_33">
      <!-- −6 -->
      <g transform="translate(376.773722 286.820128) scale(0.1 -0.1)">
       <defs>
        <path id="DejaVuSans-36" d="M 2113 2584 
Q 1688 2584 1439 2293 
Q 1191 2003 1191 1497 
Q 1191 994 1439 701 
Q 1688 409 2113 409 
Q 2538 409 2786 701 
Q 3034 994 3034 1497 
Q 3034 2003 2786 2293 
Q 2538 2584 2113 2584 
z
M 3366 4563 
L 3366 3988 
Q 3128 4100 2886 4159 
Q 2644 4219 2406 4219 
Q 1781 4219 1451 3797 
Q 1122 3375 1075 2522 
Q 1259 2794 1537 2939 
Q 1816 3084 2150 3084 
Q 2853 3084 3261 2657 
Q 3669 2231 3669 1497 
Q 3669 778 3244 343 
Q 2819 -91 2113 -91 
Q 1303 -91 875 529 
Q 447 1150 447 2328 
Q 447 3434 972 4092 
Q 1497 4750 2381 4750 
Q 2619 4750 2861 4703 
Q 3103 4656 3366 4563 
z
" transform="scale(0.015625)"/>
       </defs>
       <use xlink:href="#DejaVuSans-2212"/>
       <use xlink:href="#DejaVuSans-36" x="83.789062"/>
      </g>
     </g>
    </g>
    <g id="ytick_12">
     <g id="line2d_31">
      <g>
       <use xlink:href="#m0dcb3bfbd6" x="398.515909" y="248.407273" style="stroke: #000000; stroke-width: 0.8"/>
      </g>
     </g>
     <g id="text_34">
      <!-- −4 -->
      <g transform="translate(376.773722 252.206491) scale(0.1 -0.1)">
       <use xlink:href="#DejaVuSans-2212"/>
       <use xlink:href="#DejaVuSans-34" x="83.789062"/>
      </g>
     </g>
    </g>
    <g id="ytick_13">
     <g id="line2d_32">
      <g>
       <use xlink:href="#m0dcb3bfbd6" x="398.515909" y="213.793636" style="stroke: #000000; stroke-width: 0.8"/>
      </g>
     </g>
     <g id="text_35">
      <!-- −2 -->
      <g transform="translate(376.773722 217.592855) scale(0.1 -0.1)">
       <use xlink:href="#DejaVuSans-2212"/>
       <use xlink:href="#DejaVuSans-32" x="83.789062"/>
      </g>
     </g>
    </g>
    <g id="ytick_14">
     <g id="line2d_33">
      <g>
       <use xlink:href="#m0dcb3bfbd6" x="398.515909" y="179.18" style="stroke: #000000; stroke-width: 0.8"/>
      </g>
     </g>
     <g id="text_36">
      <!-- 0 -->
      <g transform="translate(385.153409 182.979219) scale(0.1 -0.1)">
       <use xlink:href="#DejaVuSans-30"/>
      </g>
     </g>
    </g>
    <g id="ytick_15">
     <g id="line2d_34">
      <g>
       <use xlink:href="#m0dcb3bfbd6" x="398.515909" y="144.566364" style="stroke: #000000; stroke-width: 0.8"/>
      </g>
     </g>
     <g id="text_37">
      <!-- 2 -->
      <g transform="translate(385.153409 148.365582) scale(0.1 -0.1)">
       <use xlink:href="#DejaVuSans-32"/>
      </g>
     </g>
    </g>
    <g id="ytick_16">
     <g id="line2d_35">
      <g>
       <use xlink:href="#m0dcb3bfbd6" x="398.515909" y="109.952727" style="stroke: #000000; stroke-width: 0.8"/>
      </g>
     </g>
     <g id="text_38">
      <!-- 4 -->
      <g transform="translate(385.153409 113.751946) scale(0.1 -0.1)">
       <use xlink:href="#DejaVuSans-34"/>
      </g>
     </g>
    </g>
    <g id="ytick_17">
     <g id="line2d_36">
      <g>
       <use xlink:href="#m0dcb3bfbd6" x="398.515909" y="75.339091" style="stroke: #000000; stroke-width: 0.8"/>
      </g>
     </g>
     <g id="text_39">
      <!-- 6 -->
      <g transform="translate(385.153409 79.13831) scale(0.1 -0.1)">
       <use xlink:href="#DejaVuSans-36"/>
      </g>
     </g>
    </g>
    <g id="ytick_18">
     <g id="line2d_37">
      <g>
       <use xlink:href="#m0dcb3bfbd6" x="398.515909" y="40.725455" style="stroke: #000000; stroke-width: 0.8"/>
      </g>
     </g>
     <g id="text_40">
      <!-- 8 -->
      <g transform="translate(385.153409 44.524673) scale(0.1 -0.1)">
       <use xlink:href="#DejaVuSans-38"/>
      </g>
     </g>
    </g>
   </g>
   <g id="line2d_38">
    <path d="M 398.515909 179.18 
L 702.9 179.18 
" clip-path="url(#p1347eb6a8a)" style="fill: none; stroke-dasharray: 2.775,1.2; stroke-dashoffset: 0; stroke: #000000; stroke-width: 0.75"/>
   </g>
   <g id="line2d_39">
    <path d="M 398.515909 105.753389 
L 398.613566 105.727932 
L 399.62818 105.453428 
L 401.657407 106.091451 
L 412.31085 109.728348 
L 426.515441 114.832004 
L 465.070759 128.804372 
L 478.260736 133.265053 
L 490.4361 137.129642 
L 501.59685 140.438852 
L 512.250293 143.380127 
L 523.411043 146.230884 
L 534.571793 148.849528 
L 546.23985 151.347458 
L 557.907907 153.61294 
L 570.08327 155.7439 
L 582.765941 157.728842 
L 595.448611 159.493806 
L 609.145895 161.17429 
L 623.350486 162.69366 
L 638.569691 164.09585 
L 654.803509 165.364099 
L 672.051941 166.487516 
L 690.822293 167.485551 
L 702.9 168.021371 
L 702.9 168.021371 
" clip-path="url(#p1347eb6a8a)" style="fill: none; stroke: #0000ff; stroke-width: 0.5; stroke-linecap: square"/>
   </g>
   <g id="line2d_40">
    <path d="M 398.515909 152.008295 
L 398.613566 152.054664 
L 399.62818 152.546178 
L 404.193941 153.532151 
L 416.876611 156.080736 
L 431.588509 158.804154 
L 446.300407 161.295544 
L 461.012305 163.551675 
L 474.709589 165.433894 
L 487.899566 167.041632 
L 502.104157 168.552379 
L 516.816055 169.889418 
L 532.035259 171.049333 
L 548.269077 172.065547 
L 566.024816 172.955256 
L 586.317089 173.74165 
L 609.653202 174.412267 
L 637.555077 174.977479 
L 671.544634 175.433861 
L 702.9 175.710761 
L 702.9 175.710761 
" clip-path="url(#p1347eb6a8a)" style="fill: none; stroke: #ff0000; stroke-width: 0.5; stroke-linecap: square"/>
   </g>
   <g id="patch_9">
    <path d="M 398.515909 331.48 
L 398.515909 26.88 
" style="fill: none; stroke: #000000; stroke-width: 0.8; stroke-linejoin: miter; stroke-linecap: square"/>
   </g>
   <g id="patch_10">
    <path d="M 702.9 331.48 
L 702.9 26.88 
" style="fill: none; stroke: #000000; stroke-width: 0.8; stroke-linejoin: miter; stroke-linecap: square"/>
   </g>
   <g id="patch_11">
    <path d="M 398.515909 331.48 
L 702.9 331.48 
" style="fill: none; stroke: #000000; stroke-width: 0.8; stroke-linejoin: miter; stroke-linecap: square"/>
   </g>
   <g id="patch_12">
    <path d="M 398.515909 26.88 
L 702.9 26.88 
" style="fill: none; stroke: #000000; stroke-width: 0.8; stroke-linejoin: miter; stroke-linecap: square"/>
   </g>
   <g id="legend_1">
    <g id="patch_13">
     <path d="M 608.4 64.658125 
L 695.9 64.658125 
Q 697.9 64.658125 697.9 62.658125 
L 697.9 33.88 
Q 697.9 31.88 695.9 31.88 
L 608.4 31.88 
Q 606.4 31.88 606.4 33.88 
L 606.4 62.658125 
Q 606.4 64.658125 608.4 64.658125 
z
" style="fill: #ffffff; opacity: 0.8; stroke: #cccccc; stroke-linejoin: miter"/>
    </g>
    <g id="line2d_41">
     <path d="M 610.4 40.08 
L 620.4 40.08 
L 630.4 40.08 
" style="fill: none; stroke: #0000ff; stroke-width: 0.5; stroke-linecap: square"/>
    </g>
    <g id="text_41">
     <!-- $\Vert(x,y)\Vert$ [m] -->
     <g transform="translate(638.4 43.58) scale(0.1 -0.1)">
      <defs>
       <path id="DejaVuSans-2016" d="M 1344 4891 
L 1344 -1509 
L 813 -1509 
L 813 4891 
L 1344 4891 
z
M 2376 4891 
L 2376 -1509 
L 1845 -1509 
L 1845 4891 
L 2376 4891 
z
" transform="scale(0.015625)"/>
       <path id="DejaVuSans-28" d="M 1984 4856 
Q 1566 4138 1362 3434 
Q 1159 2731 1159 2009 
Q 1159 1288 1364 580 
Q 1569 -128 1984 -844 
L 1484 -844 
Q 1016 -109 783 600 
Q 550 1309 550 2009 
Q 550 2706 781 3412 
Q 1013 4119 1484 4856 
L 1984 4856 
z
" transform="scale(0.015625)"/>
       <path id="DejaVuSans-Oblique-78" d="M 3841 3500 
L 2234 1784 
L 3219 0 
L 2559 0 
L 1819 1388 
L 531 0 
L -166 0 
L 1556 1844 
L 641 3500 
L 1300 3500 
L 1972 2234 
L 3144 3500 
L 3841 3500 
z
" transform="scale(0.015625)"/>
       <path id="DejaVuSans-Oblique-79" d="M 1588 -325 
Q 1188 -997 936 -1164 
Q 684 -1331 294 -1331 
L -159 -1331 
L -63 -850 
L 269 -850 
Q 509 -850 678 -719 
Q 847 -588 1056 -206 
L 1234 128 
L 459 3500 
L 1069 3500 
L 1650 819 
L 3256 3500 
L 3859 3500 
L 1588 -325 
z
" transform="scale(0.015625)"/>
       <path id="DejaVuSans-29" d="M 513 4856 
L 1013 4856 
Q 1481 4119 1714 3412 
Q 1947 2706 1947 2009 
Q 1947 1309 1714 600 
Q 1481 -109 1013 -844 
L 513 -844 
Q 928 -128 1133 580 
Q 1338 1288 1338 2009 
Q 1338 2731 1133 3434 
Q 928 4138 513 4856 
z
" transform="scale(0.015625)"/>
      </defs>
      <use xlink:href="#DejaVuSans-2016" transform="translate(0 0.578125)"/>
      <use xlink:href="#DejaVuSans-28" transform="translate(50 0.578125)"/>
      <use xlink:href="#DejaVuSans-Oblique-78" transform="translate(89.013672 0.578125)"/>
      <use xlink:href="#DejaVuSans-2c" transform="translate(148.193359 0.578125)"/>
      <use xlink:href="#DejaVuSans-Oblique-79" transform="translate(199.462891 0.578125)"/>
      <use xlink:href="#DejaVuSans-29" transform="translate(258.642578 0.578125)"/>
      <use xlink:href="#DejaVuSans-2016" transform="translate(297.65625 0.578125)"/>
      <use xlink:href="#DejaVuSans-20" transform="translate(347.65625 0.578125)"/>
      <use xlink:href="#DejaVuSans-5b" transform="translate(379.443359 0.578125)"/>
      <use xlink:href="#DejaVuSans-6d" transform="translate(418.457031 0.578125)"/>
      <use xlink:href="#DejaVuSans-5d" transform="translate(515.869141 0.578125)"/>
     </g>
    </g>
    <g id="line2d_42">
     <path d="M 610.4 55.078438 
L 620.4 55.078438 
L 630.4 55.078438 
" style="fill: none; stroke: #ff0000; stroke-width: 0.5; stroke-linecap: square"/>
    </g>
    <g id="text_42">
     <!-- $\alpha$ [rad] -->
     <g transform="translate(638.4 58.578438) scale(0.1 -0.1)">
      <defs>
       <path id="DejaVuSans-Oblique-3b1" d="M 2619 1628 
L 2622 2350 
Q 2625 3088 2069 3091 
Q 1653 3094 1394 2747 
Q 1069 2319 959 1747 
Q 825 1059 994 731 
Q 1169 397 1547 397 
Q 1966 397 2319 1063 
L 2619 1628 
z
M 2166 3578 
Q 3141 3594 3128 2584 
Q 3128 2584 3616 3500 
L 4128 3500 
L 3119 1603 
L 3109 919 
Q 3109 766 3194 638 
Q 3291 488 3391 488 
L 3669 488 
L 3575 0 
L 3228 0 
Q 2934 0 2722 263 
Q 2622 394 2619 669 
Q 2416 334 2066 50 
Q 1900 -81 1453 -78 
Q 722 -72 456 397 
Q 184 884 353 1747 
Q 534 2675 1009 3097 
Q 1544 3569 2166 3578 
z
" transform="scale(0.015625)"/>
      </defs>
      <use xlink:href="#DejaVuSans-Oblique-3b1" transform="translate(0 0.015625)"/>
      <use xlink:href="#DejaVuSans-20" transform="translate(65.917969 0.015625)"/>
      <use xlink:href="#DejaVuSans-5b" transform="translate(97.705078 0.015625)"/>
      <use xlink:href="#DejaVuSans-72" transform="translate(136.71875 0.015625)"/>
      <use xlink:href="#DejaVuSans-61" transform="translate(177.832031 0.015625)"/>
      <use xlink:href="#DejaVuSans-64" transform="translate(239.111328 0.015625)"/>
      <use xlink:href="#DejaVuSans-5d" transform="translate(302.587891 0.015625)"/>
     </g>
    </g>
   </g>
  </g>
  <g id="axes_3">
   <g id="patch_14">
    <path d="M 55.271818 678.04 
L 359.655909 678.04 
L 359.655909 373.44 
L 55.271818 373.44 
z
" style="fill: #ffffff"/>
   </g>
   <g id="matplotlib.axis_5">
    <g id="xtick_17">
     <g id="line2d_43">
      <g>
       <use xlink:href="#macb83dbec6" x="55.271818" y="678.04" style="stroke: #000000; stroke-width: 0.8"/>
      </g>
     </g>
     <g id="text_43">
      <!-- 0 -->
      <g transform="translate(52.090568 692.638438) scale(0.1 -0.1)">
       <use xlink:href="#DejaVuSans-30"/>
      </g>
     </g>
    </g>
    <g id="xtick_18">
     <g id="line2d_44">
      <g>
       <use xlink:href="#macb83dbec6" x="106.0025" y="678.04" style="stroke: #000000; stroke-width: 0.8"/>
      </g>
     </g>
     <g id="text_44">
      <!-- 5 -->
      <g transform="translate(102.82125 692.638438) scale(0.1 -0.1)">
       <use xlink:href="#DejaVuSans-35"/>
      </g>
     </g>
    </g>
    <g id="xtick_19">
     <g id="line2d_45">
      <g>
       <use xlink:href="#macb83dbec6" x="156.733182" y="678.04" style="stroke: #000000; stroke-width: 0.8"/>
      </g>
     </g>
     <g id="text_45">
      <!-- 10 -->
      <g transform="translate(150.370682 692.638438) scale(0.1 -0.1)">
       <use xlink:href="#DejaVuSans-31"/>
       <use xlink:href="#DejaVuSans-30" x="63.623047"/>
      </g>
     </g>
    </g>
    <g id="xtick_20">
     <g id="line2d_46">
      <g>
       <use xlink:href="#macb83dbec6" x="207.463864" y="678.04" style="stroke: #000000; stroke-width: 0.8"/>
      </g>
     </g>
     <g id="text_46">
      <!-- 15 -->
      <g transform="translate(201.101364 692.638438) scale(0.1 -0.1)">
       <use xlink:href="#DejaVuSans-31"/>
       <use xlink:href="#DejaVuSans-35" x="63.623047"/>
      </g>
     </g>
    </g>
    <g id="xtick_21">
     <g id="line2d_47">
      <g>
       <use xlink:href="#macb83dbec6" x="258.194545" y="678.04" style="stroke: #000000; stroke-width: 0.8"/>
      </g>
     </g>
     <g id="text_47">
      <!-- 20 -->
      <g transform="translate(251.832045 692.638438) scale(0.1 -0.1)">
       <use xlink:href="#DejaVuSans-32"/>
       <use xlink:href="#DejaVuSans-30" x="63.623047"/>
      </g>
     </g>
    </g>
    <g id="xtick_22">
     <g id="line2d_48">
      <g>
       <use xlink:href="#macb83dbec6" x="308.925227" y="678.04" style="stroke: #000000; stroke-width: 0.8"/>
      </g>
     </g>
     <g id="text_48">
      <!-- 25 -->
      <g transform="translate(302.562727 692.638438) scale(0.1 -0.1)">
       <use xlink:href="#DejaVuSans-32"/>
       <use xlink:href="#DejaVuSans-35" x="63.623047"/>
      </g>
     </g>
    </g>
    <g id="xtick_23">
     <g id="line2d_49">
      <g>
       <use xlink:href="#macb83dbec6" x="359.655909" y="678.04" style="stroke: #000000; stroke-width: 0.8"/>
      </g>
     </g>
     <g id="text_49">
      <!-- 30 -->
      <g transform="translate(353.293409 692.638438) scale(0.1 -0.1)">
       <use xlink:href="#DejaVuSans-33"/>
       <use xlink:href="#DejaVuSans-30" x="63.623047"/>
      </g>
     </g>
    </g>
    <g id="text_50">
     <!-- t [s] -->
     <g transform="translate(197.408395 706.316563) scale(0.1 -0.1)">
      <use xlink:href="#DejaVuSans-74"/>
      <use xlink:href="#DejaVuSans-20" x="39.208984"/>
      <use xlink:href="#DejaVuSans-5b" x="70.996094"/>
      <use xlink:href="#DejaVuSans-73" x="110.009766"/>
      <use xlink:href="#DejaVuSans-5d" x="162.109375"/>
     </g>
    </g>
   </g>
   <g id="matplotlib.axis_6">
    <g id="ytick_19">
     <g id="line2d_50">
      <g>
       <use xlink:href="#m0dcb3bfbd6" x="55.271818" y="678.04" style="stroke: #000000; stroke-width: 0.8"/>
      </g>
     </g>
     <g id="text_51">
      <!-- $\mathdefault{0}$ -->
      <g transform="translate(41.871818 681.839219) scale(0.1 -0.1)">
       <use xlink:href="#DejaVuSans-30" transform="translate(0 0.78125)"/>
      </g>
     </g>
    </g>
    <g id="ytick_20">
     <g id="line2d_51">
      <g>
       <use xlink:href="#m0dcb3bfbd6" x="55.271818" y="653.097832" style="stroke: #000000; stroke-width: 0.8"/>
      </g>
     </g>
     <g id="text_52">
      <!-- $\mathdefault{10^{0}}$ -->
      <g transform="translate(30.671818 656.897051) scale(0.1 -0.1)">
       <use xlink:href="#DejaVuSans-31" transform="translate(0 0.765625)"/>
       <use xlink:href="#DejaVuSans-30" transform="translate(63.623047 0.765625)"/>
       <use xlink:href="#DejaVuSans-30" transform="translate(128.203125 39.046875) scale(0.7)"/>
      </g>
     </g>
    </g>
    <g id="ytick_21">
     <g id="line2d_52">
      <g>
       <use xlink:href="#m0dcb3bfbd6" x="55.271818" y="596.774776" style="stroke: #000000; stroke-width: 0.8"/>
      </g>
     </g>
     <g id="text_53">
      <!-- $\mathdefault{10^{1}}$ -->
      <g transform="translate(30.671818 600.573994) scale(0.1 -0.1)">
       <use xlink:href="#DejaVuSans-31" transform="translate(0 0.684375)"/>
       <use xlink:href="#DejaVuSans-30" transform="translate(63.623047 0.684375)"/>
       <use xlink:href="#DejaVuSans-31" transform="translate(128.203125 38.965625) scale(0.7)"/>
      </g>
     </g>
    </g>
    <g id="ytick_22">
     <g id="line2d_53">
      <g>
       <use xlink:href="#m0dcb3bfbd6" x="55.271818" y="551.878874" style="stroke: #000000; stroke-width: 0.8"/>
      </g>
     </g>
     <g id="text_54">
      <!-- $\mathdefault{10^{2}}$ -->
      <g transform="translate(30.671818 555.678092) scale(0.1 -0.1)">
       <use xlink:href="#DejaVuSans-31" transform="translate(0 0.765625)"/>
       <use xlink:href="#DejaVuSans-30" transform="translate(63.623047 0.765625)"/>
       <use xlink:href="#DejaVuSans-32" transform="translate(128.203125 39.046875) scale(0.7)"/>
      </g>
     </g>
    </g>
    <g id="ytick_23">
     <g id="line2d_54">
      <g>
       <use xlink:href="#m0dcb3bfbd6" x="55.271818" y="506.982972" style="stroke: #000000; stroke-width: 0.8"/>
      </g>
     </g>
     <g id="text_55">
      <!-- $\mathdefault{10^{3}}$ -->
      <g transform="translate(30.671818 510.782191) scale(0.1 -0.1)">
       <use xlink:href="#DejaVuSans-31" transform="translate(0 0.765625)"/>
       <use xlink:href="#DejaVuSans-30" transform="translate(63.623047 0.765625)"/>
       <use xlink:href="#DejaVuSans-33" transform="translate(128.203125 39.046875) scale(0.7)"/>
      </g>
     </g>
    </g>
    <g id="ytick_24">
     <g id="line2d_55">
      <g>
       <use xlink:href="#m0dcb3bfbd6" x="55.271818" y="462.08707" style="stroke: #000000; stroke-width: 0.8"/>
      </g>
     </g>
     <g id="text_56">
      <!-- $\mathdefault{10^{4}}$ -->
      <g transform="translate(30.671818 465.886289) scale(0.1 -0.1)">
       <use xlink:href="#DejaVuSans-31" transform="translate(0 0.684375)"/>
       <use xlink:href="#DejaVuSans-30" transform="translate(63.623047 0.684375)"/>
       <use xlink:href="#DejaVuSans-34" transform="translate(128.203125 38.965625) scale(0.7)"/>
      </g>
     </g>
    </g>
    <g id="ytick_25">
     <g id="line2d_56">
      <g>
       <use xlink:href="#m0dcb3bfbd6" x="55.271818" y="417.191168" style="stroke: #000000; stroke-width: 0.8"/>
      </g>
     </g>
     <g id="text_57">
      <!-- $\mathdefault{10^{5}}$ -->
      <g transform="translate(30.671818 420.990387) scale(0.1 -0.1)">
       <use xlink:href="#DejaVuSans-31" transform="translate(0 0.684375)"/>
       <use xlink:href="#DejaVuSans-30" transform="translate(63.623047 0.684375)"/>
       <use xlink:href="#DejaVuSans-35" transform="translate(128.203125 38.965625) scale(0.7)"/>
      </g>
     </g>
    </g>
   </g>
   <g id="line2d_57">
    <path d="M 55.271818 553.023608 
L 55.272833 547.535937 
L 55.369475 547.557312 
L 55.876782 547.669967 
L 56.384089 548.934183 
L 66.022918 550.960222 
L 76.169055 553.203719 
L 79.720202 554.007045 
L 81.74943 554.509653 
L 85.807884 555.443528 
L 87.837111 555.968292 
L 91.388259 556.822897 
L 93.417486 557.308953 
L 94.4321 557.583938 
L 96.461327 558.076727 
L 97.475941 558.357231 
L 99.505168 558.856628 
L 100.519782 559.142581 
L 102.549009 559.648435 
L 103.563623 559.939743 
L 105.59285 560.451871 
L 106.607464 560.74842 
L 108.636691 561.266615 
L 109.651305 561.568271 
L 111.680532 562.092302 
L 112.695145 562.398914 
L 114.724373 562.928532 
L 115.738986 563.239932 
L 117.768214 563.774869 
L 118.782827 564.090877 
L 120.812055 564.630851 
L 121.826668 564.951273 
L 123.855895 565.495991 
L 124.870509 565.820624 
L 126.899736 566.36978 
L 127.91435 566.698411 
L 129.943577 567.251695 
L 130.958191 567.584105 
L 132.987418 568.141197 
L 134.002032 568.47716 
L 134.509339 568.588623 
L 135.523952 568.926277 
L 136.031259 569.03774 
L 137.045873 569.377027 
L 138.567793 569.867997 
L 140.089714 570.281405 
L 141.611634 570.776272 
L 143.133555 571.191427 
L 144.655475 571.689878 
L 146.177395 572.106551 
L 147.699316 572.608262 
L 149.221236 573.026229 
L 150.743157 573.530875 
L 152.265077 573.949914 
L 153.786998 574.457176 
L 155.308918 574.877068 
L 156.830839 575.38663 
L 158.352759 575.807162 
L 159.87468 576.318713 
L 161.3966 576.739677 
L 162.91852 577.252912 
L 164.440441 577.674103 
L 165.962361 578.188723 
L 167.484282 578.609946 
L 169.006202 579.12566 
L 170.528123 579.546723 
L 172.050043 580.063246 
L 173.571964 580.483963 
L 175.093884 581.00102 
L 176.615805 581.421212 
L 178.137725 581.938533 
L 179.659645 582.358028 
L 181.181566 582.875353 
L 182.703486 583.293983 
L 184.225407 583.811061 
L 185.747327 584.228665 
L 187.269248 584.745251 
L 188.791168 585.161674 
L 190.313089 585.677532 
L 191.835009 586.092625 
L 193.35693 586.607527 
L 194.87885 587.021145 
L 196.40077 587.53487 
L 197.922691 587.946875 
L 199.444611 588.45921 
L 200.966532 588.869468 
L 202.488452 589.380206 
L 204.010373 589.788588 
L 205.532293 590.297529 
L 207.054214 590.703911 
L 208.576134 591.210863 
L 210.098055 591.615123 
L 211.619975 592.119899 
L 213.141895 592.521922 
L 214.663816 593.02434 
L 216.185736 593.424012 
L 217.707657 593.923897 
L 219.229577 594.321109 
L 220.751498 594.81829 
L 222.273418 595.212934 
L 223.795339 595.707246 
L 225.317259 596.09922 
L 226.83918 596.590501 
L 228.3611 596.979703 
L 229.88302 597.467795 
L 231.404941 597.854127 
L 232.926861 598.338878 
L 234.448782 598.722242 
L 235.970702 599.203503 
L 237.492623 599.583805 
L 239.014543 600.061429 
L 240.536464 600.438578 
L 242.058384 600.912421 
L 243.580305 601.286325 
L 245.102225 601.756249 
L 246.624145 602.126819 
L 248.146066 602.592687 
L 249.667986 602.959835 
L 251.189907 603.421512 
L 252.711827 603.785152 
L 254.233748 604.242509 
L 255.755668 604.602556 
L 257.277589 605.055463 
L 258.799509 605.411835 
L 260.32143 605.860166 
L 261.84335 606.21278 
L 263.36527 606.656413 
L 264.887191 607.005189 
L 266.409111 607.444003 
L 267.931032 607.788862 
L 269.452952 608.22274 
L 270.974873 608.563605 
L 272.496793 608.992432 
L 274.018714 609.329228 
L 275.540634 609.752893 
L 277.062555 610.085544 
L 278.584475 610.503938 
L 280.106395 610.832374 
L 281.628316 611.245392 
L 283.150236 611.569543 
L 284.672157 611.977083 
L 286.194077 612.29688 
L 287.715998 612.698844 
L 289.237918 613.014222 
L 290.759839 613.410516 
L 292.281759 613.721412 
L 293.80368 614.111946 
L 295.3256 614.418299 
L 296.84752 614.802985 
L 298.369441 615.104738 
L 299.891361 615.483496 
L 301.413282 615.780594 
L 302.935202 616.153347 
L 304.457123 616.445738 
L 305.979043 616.812413 
L 307.500964 617.10005 
L 309.022884 617.46058 
L 310.544805 617.743417 
L 312.066725 618.097741 
L 313.588645 618.375738 
L 315.110566 618.723799 
L 316.632486 618.996918 
L 318.154407 619.338665 
L 319.676327 619.606874 
L 321.198248 619.942263 
L 322.720168 620.205531 
L 324.242089 620.534524 
L 325.764009 620.792828 
L 327.28593 621.11539 
L 328.80785 621.368709 
L 330.32977 621.684816 
L 331.851691 621.933135 
L 333.373611 622.242765 
L 334.895532 622.486072 
L 336.417452 622.789213 
L 337.939373 623.027501 
L 339.461293 623.324147 
L 340.983214 623.557413 
L 342.505134 623.847562 
L 344.027055 624.075811 
L 345.548975 624.35947 
L 347.070895 624.582709 
L 348.592816 624.85989 
L 351.12935 625.240727 
L 353.665884 625.668485 
L 356.202418 626.034702 
L 358.738952 626.445475 
L 359.655909 626.536676 
L 359.655909 626.536676 
" clip-path="url(#pa79eaec4d4)" style="fill: none; stroke: #ff0000; stroke-width: 0.5; stroke-linecap: square"/>
   </g>
   <g id="line2d_58">
    <path d="M 55.271818 678.04 
L 55.369475 571.018859 
L 55.876782 565.441101 
L 56.891395 557.993939 
L 57.906009 552.668523 
L 58.920623 548.530144 
L 59.935236 545.152852 
L 61.457157 541.032261 
L 62.979077 537.682973 
L 64.500998 534.869573 
L 66.022918 532.449371 
L 68.052145 529.680173 
L 70.081373 527.306982 
L 72.1106 525.237051 
L 74.647134 522.981296 
L 77.183668 521.014942 
L 80.227509 518.955348 
L 83.27135 517.156332 
L 86.822498 515.319627 
L 90.880952 513.496807 
L 94.939407 511.910147 
L 99.505168 510.353225 
L 104.578236 508.853102 
L 110.158611 507.42885 
L 116.7536 505.992403 
L 123.855895 504.68489 
L 131.972805 503.433624 
L 140.59702 502.330281 
L 150.23585 501.315127 
L 161.3966 500.364247 
L 174.07927 499.508727 
L 188.791168 498.741335 
L 206.546907 498.049048 
L 227.853793 497.452794 
L 254.233748 496.946672 
L 288.730611 496.518609 
L 337.432066 496.153703 
L 359.655909 496.037291 
L 359.655909 496.037291 
" clip-path="url(#pa79eaec4d4)" style="fill: none; stroke: #008000; stroke-width: 0.5; stroke-linecap: square"/>
   </g>
   <g id="patch_15">
    <path d="M 55.271818 678.04 
L 55.271818 373.44 
" style="fill: none; stroke: #000000; stroke-width: 0.8; stroke-linejoin: miter; stroke-linecap: square"/>
   </g>
   <g id="patch_16">
    <path d="M 359.655909 678.04 
L 359.655909 373.44 
" style="fill: none; stroke: #000000; stroke-width: 0.8; stroke-linejoin: miter; stroke-linecap: square"/>
   </g>
   <g id="patch_17">
    <path d="M 55.271818 678.04 
L 359.655909 678.04 
" style="fill: none; stroke: #000000; stroke-width: 0.8; stroke-linejoin: miter; stroke-linecap: square"/>
   </g>
   <g id="patch_18">
    <path d="M 55.271818 373.44 
L 359.655909 373.44 
" style="fill: none; stroke: #000000; stroke-width: 0.8; stroke-linejoin: miter; stroke-linecap: square"/>
   </g>
   <g id="legend_2">
    <g id="patch_19">
     <path d="M 254.555909 415.018125 
L 352.655909 415.018125 
Q 354.655909 415.018125 354.655909 413.018125 
L 354.655909 380.44 
Q 354.655909 378.44 352.655909 378.44 
L 254.555909 378.44 
Q 252.555909 378.44 252.555909 380.44 
L 252.555909 413.018125 
Q 252.555909 415.018125 254.555909 415.018125 
z
" style="fill: #ffffff; opacity: 0.8; stroke: #cccccc; stroke-linejoin: miter"/>
    </g>
    <g id="line2d_59">
     <path d="M 256.555909 386.538438 
L 266.555909 386.538438 
L 276.555909 386.538438 
" style="fill: none; stroke: #ff0000; stroke-width: 0.5; stroke-linecap: square"/>
    </g>
    <g id="text_58">
     <!-- Run. obj. -->
     <g transform="translate(284.555909 390.038438) scale(0.1 -0.1)">
      <defs>
       <path id="DejaVuSans-52" d="M 2841 2188 
Q 3044 2119 3236 1894 
Q 3428 1669 3622 1275 
L 4263 0 
L 3584 0 
L 2988 1197 
Q 2756 1666 2539 1819 
Q 2322 1972 1947 1972 
L 1259 1972 
L 1259 0 
L 628 0 
L 628 4666 
L 2053 4666 
Q 2853 4666 3247 4331 
Q 3641 3997 3641 3322 
Q 3641 2881 3436 2590 
Q 3231 2300 2841 2188 
z
M 1259 4147 
L 1259 2491 
L 2053 2491 
Q 2509 2491 2742 2702 
Q 2975 2913 2975 3322 
Q 2975 3731 2742 3939 
Q 2509 4147 2053 4147 
L 1259 4147 
z
" transform="scale(0.015625)"/>
       <path id="DejaVuSans-6e" d="M 3513 2113 
L 3513 0 
L 2938 0 
L 2938 2094 
Q 2938 2591 2744 2837 
Q 2550 3084 2163 3084 
Q 1697 3084 1428 2787 
Q 1159 2491 1159 1978 
L 1159 0 
L 581 0 
L 581 3500 
L 1159 3500 
L 1159 2956 
Q 1366 3272 1645 3428 
Q 1925 3584 2291 3584 
Q 2894 3584 3203 3211 
Q 3513 2838 3513 2113 
z
" transform="scale(0.015625)"/>
       <path id="DejaVuSans-62" d="M 3116 1747 
Q 3116 2381 2855 2742 
Q 2594 3103 2138 3103 
Q 1681 3103 1420 2742 
Q 1159 2381 1159 1747 
Q 1159 1113 1420 752 
Q 1681 391 2138 391 
Q 2594 391 2855 752 
Q 3116 1113 3116 1747 
z
M 1159 2969 
Q 1341 3281 1617 3432 
Q 1894 3584 2278 3584 
Q 2916 3584 3314 3078 
Q 3713 2572 3713 1747 
Q 3713 922 3314 415 
Q 2916 -91 2278 -91 
Q 1894 -91 1617 61 
Q 1341 213 1159 525 
L 1159 0 
L 581 0 
L 581 4863 
L 1159 4863 
L 1159 2969 
z
" transform="scale(0.015625)"/>
       <path id="DejaVuSans-6a" d="M 603 3500 
L 1178 3500 
L 1178 -63 
Q 1178 -731 923 -1031 
Q 669 -1331 103 -1331 
L -116 -1331 
L -116 -844 
L 38 -844 
Q 366 -844 484 -692 
Q 603 -541 603 -63 
L 603 3500 
z
M 603 4863 
L 1178 4863 
L 1178 4134 
L 603 4134 
L 603 4863 
z
" transform="scale(0.015625)"/>
      </defs>
      <use xlink:href="#DejaVuSans-52"/>
      <use xlink:href="#DejaVuSans-75" x="64.982422"/>
      <use xlink:href="#DejaVuSans-6e" x="128.361328"/>
      <use xlink:href="#DejaVuSans-2e" x="191.740234"/>
      <use xlink:href="#DejaVuSans-20" x="223.527344"/>
      <use xlink:href="#DejaVuSans-6f" x="255.314453"/>
      <use xlink:href="#DejaVuSans-62" x="316.496094"/>
      <use xlink:href="#DejaVuSans-6a" x="379.972656"/>
      <use xlink:href="#DejaVuSans-2e" x="407.755859"/>
     </g>
    </g>
    <g id="line2d_60">
     <path d="M 256.555909 404.418125 
L 266.555909 404.418125 
L 276.555909 404.418125 
" style="fill: none; stroke: #008000; stroke-width: 0.5; stroke-linecap: square"/>
    </g>
    <g id="text_59">
     <!-- $\int \mathrm{Run.\,obj.} \,\mathrm{d}t$ -->
     <g transform="translate(284.555909 407.918125) scale(0.1 -0.1)">
      <defs>
       <path id="DejaVuSansDisplay-222b" d="M 2134 5525 
Q 2172 6263 2528 6556 
Q 2884 6850 3218 6850 
Q 3553 6850 3833 6575 
Q 4113 6300 4200 5678 
L 3544 5613 
Q 3469 6188 3219 6188 
Q 2906 6188 2869 5413 
L 2581 -597 
Q 2547 -1334 2187 -1628 
Q 1828 -1922 1497 -1922 
Q 1163 -1922 883 -1647 
Q 603 -1372 516 -750 
L 1172 -684 
Q 1247 -1259 1497 -1259 
Q 1809 -1259 1847 -488 
L 2134 5525 
z
" transform="scale(0.015625)"/>
       <path id="DejaVuSans-Oblique-74" d="M 2706 3500 
L 2619 3053 
L 1472 3053 
L 1100 1153 
Q 1081 1047 1072 975 
Q 1063 903 1063 863 
Q 1063 663 1183 572 
Q 1303 481 1569 481 
L 2150 481 
L 2053 0 
L 1503 0 
Q 991 0 739 200 
Q 488 400 488 806 
Q 488 878 497 964 
Q 506 1050 525 1153 
L 897 3053 
L 409 3053 
L 500 3500 
L 978 3500 
L 1172 4494 
L 1747 4494 
L 1556 3500 
L 2706 3500 
z
" transform="scale(0.015625)"/>
      </defs>
      <use xlink:href="#DejaVuSansDisplay-222b" transform="translate(0 0.96875)"/>
      <use xlink:href="#DejaVuSans-52" transform="translate(73.632812 0.96875)"/>
      <use xlink:href="#DejaVuSans-75" transform="translate(143.115234 0.96875)"/>
      <use xlink:href="#DejaVuSans-6e" transform="translate(206.494141 0.96875)"/>
      <use xlink:href="#DejaVuSans-2e" transform="translate(269.873047 0.96875)"/>
      <use xlink:href="#DejaVuSans-6f" transform="translate(337.378254 0.96875)"/>
      <use xlink:href="#DejaVuSans-62" transform="translate(398.559895 0.96875)"/>
      <use xlink:href="#DejaVuSans-6a" transform="translate(462.036458 0.96875)"/>
      <use xlink:href="#DejaVuSans-2e" transform="translate(489.819661 0.96875)"/>
      <use xlink:href="#DejaVuSans-64" transform="translate(557.324868 0.96875)"/>
      <use xlink:href="#DejaVuSans-Oblique-74" transform="translate(620.801431 0.96875)"/>
     </g>
    </g>
   </g>
  </g>
  <g id="axes_4">
   <g id="patch_20">
    <path d="M 398.515909 678.04 
L 702.9 678.04 
L 702.9 373.44 
L 398.515909 373.44 
z
" style="fill: #ffffff"/>
   </g>
   <g id="matplotlib.axis_7">
    <g id="xtick_24">
     <g id="line2d_61">
      <g>
       <use xlink:href="#macb83dbec6" x="398.515909" y="678.04" style="stroke: #000000; stroke-width: 0.8"/>
      </g>
     </g>
     <g id="text_60">
      <!-- 0 -->
      <g transform="translate(395.334659 692.638438) scale(0.1 -0.1)">
       <use xlink:href="#DejaVuSans-30"/>
      </g>
     </g>
    </g>
    <g id="xtick_25">
     <g id="line2d_62">
      <g>
       <use xlink:href="#macb83dbec6" x="449.246591" y="678.04" style="stroke: #000000; stroke-width: 0.8"/>
      </g>
     </g>
     <g id="text_61">
      <!-- 5 -->
      <g transform="translate(446.065341 692.638438) scale(0.1 -0.1)">
       <use xlink:href="#DejaVuSans-35"/>
      </g>
     </g>
    </g>
    <g id="xtick_26">
     <g id="line2d_63">
      <g>
       <use xlink:href="#macb83dbec6" x="499.977273" y="678.04" style="stroke: #000000; stroke-width: 0.8"/>
      </g>
     </g>
     <g id="text_62">
      <!-- 10 -->
      <g transform="translate(493.614773 692.638438) scale(0.1 -0.1)">
       <use xlink:href="#DejaVuSans-31"/>
       <use xlink:href="#DejaVuSans-30" x="63.623047"/>
      </g>
     </g>
    </g>
    <g id="xtick_27">
     <g id="line2d_64">
      <g>
       <use xlink:href="#macb83dbec6" x="550.707955" y="678.04" style="stroke: #000000; stroke-width: 0.8"/>
      </g>
     </g>
     <g id="text_63">
      <!-- 15 -->
      <g transform="translate(544.345455 692.638438) scale(0.1 -0.1)">
       <use xlink:href="#DejaVuSans-31"/>
       <use xlink:href="#DejaVuSans-35" x="63.623047"/>
      </g>
     </g>
    </g>
    <g id="xtick_28">
     <g id="line2d_65">
      <g>
       <use xlink:href="#macb83dbec6" x="601.438636" y="678.04" style="stroke: #000000; stroke-width: 0.8"/>
      </g>
     </g>
     <g id="text_64">
      <!-- 20 -->
      <g transform="translate(595.076136 692.638438) scale(0.1 -0.1)">
       <use xlink:href="#DejaVuSans-32"/>
       <use xlink:href="#DejaVuSans-30" x="63.623047"/>
      </g>
     </g>
    </g>
    <g id="xtick_29">
     <g id="line2d_66">
      <g>
       <use xlink:href="#macb83dbec6" x="652.169318" y="678.04" style="stroke: #000000; stroke-width: 0.8"/>
      </g>
     </g>
     <g id="text_65">
      <!-- 25 -->
      <g transform="translate(645.806818 692.638438) scale(0.1 -0.1)">
       <use xlink:href="#DejaVuSans-32"/>
       <use xlink:href="#DejaVuSans-35" x="63.623047"/>
      </g>
     </g>
    </g>
    <g id="xtick_30">
     <g id="line2d_67">
      <g>
       <use xlink:href="#macb83dbec6" x="702.9" y="678.04" style="stroke: #000000; stroke-width: 0.8"/>
      </g>
     </g>
     <g id="text_66">
      <!-- 30 -->
      <g transform="translate(696.5375 692.638438) scale(0.1 -0.1)">
       <use xlink:href="#DejaVuSans-33"/>
       <use xlink:href="#DejaVuSans-30" x="63.623047"/>
      </g>
     </g>
    </g>
    <g id="text_67">
     <!-- t [s] -->
     <g transform="translate(540.652486 706.316563) scale(0.1 -0.1)">
      <use xlink:href="#DejaVuSans-74"/>
      <use xlink:href="#DejaVuSans-20" x="39.208984"/>
      <use xlink:href="#DejaVuSans-5b" x="70.996094"/>
      <use xlink:href="#DejaVuSans-73" x="110.009766"/>
      <use xlink:href="#DejaVuSans-5d" x="162.109375"/>
     </g>
    </g>
   </g>
   <g id="matplotlib.axis_8">
    <g id="ytick_26">
     <g id="line2d_68">
      <g>
       <use xlink:href="#m0dcb3bfbd6" x="398.515909" y="671.994802" style="stroke: #000000; stroke-width: 0.8"/>
      </g>
     </g>
     <g id="text_68">
      <!-- −3 -->
      <g transform="translate(376.773722 675.79402) scale(0.1 -0.1)">
       <use xlink:href="#DejaVuSans-2212"/>
       <use xlink:href="#DejaVuSans-33" x="83.789062"/>
      </g>
     </g>
    </g>
    <g id="ytick_27">
     <g id="line2d_69">
      <g>
       <use xlink:href="#m0dcb3bfbd6" x="398.515909" y="623.243201" style="stroke: #000000; stroke-width: 0.8"/>
      </g>
     </g>
     <g id="text_69">
      <!-- −2 -->
      <g transform="translate(376.773722 627.04242) scale(0.1 -0.1)">
       <use xlink:href="#DejaVuSans-2212"/>
       <use xlink:href="#DejaVuSans-32" x="83.789062"/>
      </g>
     </g>
    </g>
    <g id="ytick_28">
     <g id="line2d_70">
      <g>
       <use xlink:href="#m0dcb3bfbd6" x="398.515909" y="574.491601" style="stroke: #000000; stroke-width: 0.8"/>
      </g>
     </g>
     <g id="text_70">
      <!-- −1 -->
      <g transform="translate(376.773722 578.290819) scale(0.1 -0.1)">
       <use xlink:href="#DejaVuSans-2212"/>
       <use xlink:href="#DejaVuSans-31" x="83.789062"/>
      </g>
     </g>
    </g>
    <g id="ytick_29">
     <g id="line2d_71">
      <g>
       <use xlink:href="#m0dcb3bfbd6" x="398.515909" y="525.74" style="stroke: #000000; stroke-width: 0.8"/>
      </g>
     </g>
     <g id="text_71">
      <!-- 0 -->
      <g transform="translate(385.153409 529.539219) scale(0.1 -0.1)">
       <use xlink:href="#DejaVuSans-30"/>
      </g>
     </g>
    </g>
    <g id="ytick_30">
     <g id="line2d_72">
      <g>
       <use xlink:href="#m0dcb3bfbd6" x="398.515909" y="476.988399" style="stroke: #000000; stroke-width: 0.8"/>
      </g>
     </g>
     <g id="text_72">
      <!-- 1 -->
      <g transform="translate(385.153409 480.787618) scale(0.1 -0.1)">
       <use xlink:href="#DejaVuSans-31"/>
      </g>
     </g>
    </g>
    <g id="ytick_31">
     <g id="line2d_73">
      <g>
       <use xlink:href="#m0dcb3bfbd6" x="398.515909" y="428.236799" style="stroke: #000000; stroke-width: 0.8"/>
      </g>
     </g>
     <g id="text_73">
      <!-- 2 -->
      <g transform="translate(385.153409 432.036018) scale(0.1 -0.1)">
       <use xlink:href="#DejaVuSans-32"/>
      </g>
     </g>
    </g>
    <g id="ytick_32">
     <g id="line2d_74">
      <g>
       <use xlink:href="#m0dcb3bfbd6" x="398.515909" y="379.485198" style="stroke: #000000; stroke-width: 0.8"/>
      </g>
     </g>
     <g id="text_74">
      <!-- 3 -->
      <g transform="translate(385.153409 383.284417) scale(0.1 -0.1)">
       <use xlink:href="#DejaVuSans-33"/>
      </g>
     </g>
    </g>
   </g>
   <g id="line2d_75">
    <path d="M 398.515909 525.74 
L 702.9 525.74 
" clip-path="url(#p13e0c0cbc8)" style="fill: none; stroke-dasharray: 2.775,1.2; stroke-dashoffset: 0; stroke: #000000; stroke-width: 0.75"/>
   </g>
   <g id="line2d_76">
    <path d="M 398.515909 525.74 
L 398.613566 536.465352 
L 399.120873 536.465352 
L 399.62818 513.040587 
L 410.281623 513.139683 
L 419.413145 513.337609 
L 422.964293 513.424317 
L 424.99352 513.520581 
L 429.051975 513.625891 
L 431.081202 513.73972 
L 433.617736 513.799663 
L 434.63235 513.861536 
L 436.661577 513.925269 
L 437.676191 513.990797 
L 439.705418 514.05805 
L 440.720032 514.12696 
L 442.749259 514.19746 
L 443.763873 514.269481 
L 445.7931 514.342955 
L 446.807714 514.417816 
L 448.836941 514.493996 
L 449.851555 514.571428 
L 451.880782 514.650048 
L 452.895395 514.72979 
L 454.924623 514.810588 
L 455.939236 514.89238 
L 457.968464 514.975103 
L 458.983077 515.058695 
L 461.012305 515.143094 
L 462.026918 515.228241 
L 464.056145 515.314077 
L 465.070759 515.400544 
L 467.099986 515.487586 
L 468.1146 515.575148 
L 470.143827 515.663175 
L 471.158441 515.751615 
L 473.187668 515.840417 
L 474.202282 515.92953 
L 476.231509 516.018906 
L 477.246123 516.108497 
L 479.27535 516.198257 
L 480.289964 516.288143 
L 481.811884 516.407927 
L 483.333805 516.467837 
L 484.855725 516.587643 
L 486.377645 516.647516 
L 487.899566 516.767146 
L 489.421486 516.826883 
L 490.943407 516.946148 
L 492.465327 517.005658 
L 493.987248 517.124383 
L 495.509168 517.18358 
L 497.031089 517.301603 
L 498.553009 517.360412 
L 500.07493 517.477584 
L 501.59685 517.535934 
L 503.11877 517.652122 
L 504.640691 517.709948 
L 506.162611 517.82503 
L 507.684532 517.882274 
L 509.206452 517.996141 
L 510.728373 518.052752 
L 512.250293 518.165305 
L 513.772214 518.221237 
L 515.801441 518.332389 
L 518.337975 518.497275 
L 520.874509 518.605926 
L 523.411043 518.766927 
L 525.947577 518.872909 
L 528.484111 519.029801 
L 531.020645 519.132982 
L 533.55718 519.285595 
L 536.093714 519.38588 
L 538.630248 519.534096 
L 541.166782 519.631419 
L 543.703316 519.775157 
L 546.23985 519.869479 
L 548.776384 520.0087 
L 551.312918 520.100003 
L 553.849452 520.234695 
L 556.385986 520.322983 
L 558.92252 520.453161 
L 561.459055 520.538451 
L 563.995589 520.664155 
L 566.532123 520.746479 
L 569.068657 520.867765 
L 571.605191 520.947166 
L 574.141725 521.064105 
L 576.678259 521.140635 
L 579.214793 521.25331 
L 582.765941 521.363472 
L 586.317089 521.506506 
L 589.868236 521.610942 
L 593.419384 521.74648 
L 596.970532 521.8454 
L 600.52168 521.973727 
L 604.072827 522.067351 
L 607.623975 522.188765 
L 611.175123 522.277317 
L 614.72627 522.39212 
L 618.277418 522.475826 
L 622.335873 522.584321 
L 626.901634 522.715071 
L 631.467395 522.815895 
L 636.033157 522.93736 
L 640.598918 523.030997 
L 645.16468 523.143773 
L 650.745055 523.25197 
L 656.32543 523.376003 
L 661.905805 523.474725 
L 667.48618 523.587866 
L 674.081168 523.695451 
L 680.676157 523.814291 
L 687.271145 523.910717 
L 693.866134 524.017204 
L 701.475736 524.117561 
L 702.9 524.131418 
L 702.9 524.131418 
" clip-path="url(#p13e0c0cbc8)" style="fill: none; stroke: #1f77b4; stroke-width: 0.5; stroke-linecap: square"/>
   </g>
   <g id="line2d_77">
    <path d="M 398.515909 525.74 
L 398.613566 539.585455 
L 399.120873 539.585455 
L 399.62818 531.917954 
L 402.164714 531.829404 
L 403.686634 531.721502 
L 406.223168 531.639895 
L 408.759702 531.523652 
L 412.31085 531.413632 
L 415.861998 531.274587 
L 419.920452 531.174713 
L 421.94968 531.077194 
L 426.008134 530.981763 
L 428.037361 530.887778 
L 432.095816 530.79468 
L 434.125043 530.702007 
L 438.183498 530.60938 
L 440.212725 530.5165 
L 444.27118 530.423139 
L 446.300407 530.329133 
L 450.358861 530.234374 
L 452.388089 530.138807 
L 456.446543 530.042422 
L 458.47577 529.945246 
L 462.534225 529.847342 
L 464.563452 529.7488 
L 468.621907 529.649734 
L 470.651134 529.550275 
L 474.709589 529.450572 
L 476.738816 529.350782 
L 480.289964 529.25107 
L 483.841111 529.119023 
L 487.392259 529.020513 
L 490.943407 528.890175 
L 494.494555 528.793386 
L 498.045702 528.665915 
L 501.59685 528.571687 
L 505.147998 528.448137 
L 508.699145 528.3572 
L 512.250293 528.238462 
L 515.801441 528.15142 
L 519.352589 528.038206 
L 523.91835 527.928397 
L 528.484111 527.796132 
L 533.049873 527.69444 
L 537.615634 527.572588 
L 542.181395 527.479361 
L 546.747157 527.368163 
L 552.327532 527.26286 
L 557.907907 527.144165 
L 564.502895 527.033634 
L 571.097884 526.914629 
L 578.707486 526.805836 
L 586.317089 526.693252 
L 594.941305 526.592306 
L 603.56552 526.49146 
L 615.233577 526.384592 
L 626.901634 526.285963 
L 643.642759 526.178896 
L 660.891191 526.08982 
L 682.705384 526.003248 
L 702.9 525.947815 
L 702.9 525.947815 
" clip-path="url(#p13e0c0cbc8)" style="fill: none; stroke: #ff7f0e; stroke-width: 0.5; stroke-linecap: square"/>
   </g>
   <g id="patch_21">
    <path d="M 398.515909 678.04 
L 398.515909 373.44 
" style="fill: none; stroke: #000000; stroke-width: 0.8; stroke-linejoin: miter; stroke-linecap: square"/>
   </g>
   <g id="patch_22">
    <path d="M 702.9 678.04 
L 702.9 373.44 
" style="fill: none; stroke: #000000; stroke-width: 0.8; stroke-linejoin: miter; stroke-linecap: square"/>
   </g>
   <g id="patch_23">
    <path d="M 398.515909 678.04 
L 702.9 678.04 
" style="fill: none; stroke: #000000; stroke-width: 0.8; stroke-linejoin: miter; stroke-linecap: square"/>
   </g>
   <g id="patch_24">
    <path d="M 398.515909 373.44 
L 702.9 373.44 
" style="fill: none; stroke: #000000; stroke-width: 0.8; stroke-linejoin: miter; stroke-linecap: square"/>
   </g>
   <g id="legend_3">
    <g id="patch_25">
     <path d="M 619.3 410.79625 
L 695.9 410.79625 
Q 697.9 410.79625 697.9 408.79625 
L 697.9 380.44 
Q 697.9 378.44 695.9 378.44 
L 619.3 378.44 
Q 617.3 378.44 617.3 380.44 
L 617.3 408.79625 
Q 617.3 410.79625 619.3 410.79625 
z
" style="fill: #ffffff; opacity: 0.8; stroke: #cccccc; stroke-linejoin: miter"/>
    </g>
    <g id="line2d_78">
     <path d="M 621.3 386.538438 
L 631.3 386.538438 
L 641.3 386.538438 
" style="fill: none; stroke: #1f77b4; stroke-width: 0.5; stroke-linecap: square"/>
    </g>
    <g id="text_75">
     <!-- v [m/s] -->
     <g transform="translate(649.3 390.038438) scale(0.1 -0.1)">
      <defs>
       <path id="DejaVuSans-76" d="M 191 3500 
L 800 3500 
L 1894 563 
L 2988 3500 
L 3597 3500 
L 2284 0 
L 1503 0 
L 191 3500 
z
" transform="scale(0.015625)"/>
       <path id="DejaVuSans-2f" d="M 1625 4666 
L 2156 4666 
L 531 -594 
L 0 -594 
L 1625 4666 
z
" transform="scale(0.015625)"/>
      </defs>
      <use xlink:href="#DejaVuSans-76"/>
      <use xlink:href="#DejaVuSans-20" x="59.179688"/>
      <use xlink:href="#DejaVuSans-5b" x="90.966797"/>
      <use xlink:href="#DejaVuSans-6d" x="129.980469"/>
      <use xlink:href="#DejaVuSans-2f" x="227.392578"/>
      <use xlink:href="#DejaVuSans-73" x="261.083984"/>
      <use xlink:href="#DejaVuSans-5d" x="313.183594"/>
     </g>
    </g>
    <g id="line2d_79">
     <path d="M 621.3 401.216563 
L 631.3 401.216563 
L 641.3 401.216563 
" style="fill: none; stroke: #ff7f0e; stroke-width: 0.5; stroke-linecap: square"/>
    </g>
    <g id="text_76">
     <!-- $\omega$ [rad/s] -->
     <g transform="translate(649.3 404.716563) scale(0.1 -0.1)">
      <defs>
       <path id="DejaVuSans-Oblique-3c9" d="M 1369 -91 
Q 72 -91 434 1766 
Q 575 2500 1256 3500 
L 1875 3500 
Q 1231 2500 1088 1750 
Q 819 397 1519 397 
Q 2166 397 2478 2078 
L 3009 2078 
Q 2669 388 3316 397 
Q 4013 403 4275 1750 
Q 4419 2500 4169 3500 
L 4788 3500 
Q 5075 2500 4934 1766 
Q 4578 -94 3278 -91 
Q 2428 -88 2503 844 
Q 2194 -91 1369 -91 
z
" transform="scale(0.015625)"/>
      </defs>
      <use xlink:href="#DejaVuSans-Oblique-3c9" transform="translate(0 0.015625)"/>
      <use xlink:href="#DejaVuSans-20" transform="translate(83.740234 0.015625)"/>
      <use xlink:href="#DejaVuSans-5b" transform="translate(115.527344 0.015625)"/>
      <use xlink:href="#DejaVuSans-72" transform="translate(154.541016 0.015625)"/>
      <use xlink:href="#DejaVuSans-61" transform="translate(195.654297 0.015625)"/>
      <use xlink:href="#DejaVuSans-64" transform="translate(256.933594 0.015625)"/>
      <use xlink:href="#DejaVuSans-2f" transform="translate(320.410156 0.015625)"/>
      <use xlink:href="#DejaVuSans-73" transform="translate(354.101562 0.015625)"/>
      <use xlink:href="#DejaVuSans-5d" transform="translate(406.201172 0.015625)"/>
     </g>
    </g>
   </g>
  </g>
  <g id="text_77">
   <!-- $\int \mathrm{Run.\,obj.} \,\mathrm{d}t$ = 1753.1 -->
   <g transform="translate(36 363.85) scale(0.1 -0.1)">
    <defs>
     <path id="DejaVuSans-37" d="M 525 4666 
L 3525 4666 
L 3525 4397 
L 1831 0 
L 1172 0 
L 2766 4134 
L 525 4134 
L 525 4666 
z
" transform="scale(0.015625)"/>
    </defs>
    <use xlink:href="#DejaVuSansDisplay-222b" transform="translate(0 0.96875)"/>
    <use xlink:href="#DejaVuSans-52" transform="translate(73.632812 0.96875)"/>
    <use xlink:href="#DejaVuSans-75" transform="translate(143.115234 0.96875)"/>
    <use xlink:href="#DejaVuSans-6e" transform="translate(206.494141 0.96875)"/>
    <use xlink:href="#DejaVuSans-2e" transform="translate(269.873047 0.96875)"/>
    <use xlink:href="#DejaVuSans-6f" transform="translate(337.378254 0.96875)"/>
    <use xlink:href="#DejaVuSans-62" transform="translate(398.559895 0.96875)"/>
    <use xlink:href="#DejaVuSans-6a" transform="translate(462.036458 0.96875)"/>
    <use xlink:href="#DejaVuSans-2e" transform="translate(489.819661 0.96875)"/>
    <use xlink:href="#DejaVuSans-64" transform="translate(557.324868 0.96875)"/>
    <use xlink:href="#DejaVuSans-Oblique-74" transform="translate(620.801431 0.96875)"/>
    <use xlink:href="#DejaVuSans-20" transform="translate(660.010415 0.96875)"/>
    <use xlink:href="#DejaVuSans-3d" transform="translate(691.797524 0.96875)"/>
    <use xlink:href="#DejaVuSans-20" transform="translate(775.586587 0.96875)"/>
    <use xlink:href="#DejaVuSans-31" transform="translate(807.373696 0.96875)"/>
    <use xlink:href="#DejaVuSans-37" transform="translate(870.996743 0.96875)"/>
    <use xlink:href="#DejaVuSans-35" transform="translate(934.61979 0.96875)"/>
    <use xlink:href="#DejaVuSans-33" transform="translate(998.242837 0.96875)"/>
    <use xlink:href="#DejaVuSans-2e" transform="translate(1061.865884 0.96875)"/>
    <use xlink:href="#DejaVuSans-31" transform="translate(1093.652993 0.96875)"/>
   </g>
  </g>
 </g>
 <defs>
  <clipPath id="p23401a5840">
   <rect x="55.271818" y="26.987955" width="304.384091" height="304.384091"/>
  </clipPath>
  <clipPath id="p1347eb6a8a">
   <rect x="398.515909" y="26.88" width="304.384091" height="304.6"/>
  </clipPath>
  <clipPath id="pa79eaec4d4">
   <rect x="55.271818" y="373.44" width="304.384091" height="304.6"/>
  </clipPath>
  <clipPath id="p13e0c0cbc8">
   <rect x="398.515909" y="373.44" width="304.384091" height="304.6"/>
  </clipPath>
 </defs>
</svg>
