<?xml version="1.0" encoding="utf-8" standalone="no"?>
<!DOCTYPE svg PUBLIC "-//W3C//DTD SVG 1.1//EN"
  "http://www.w3.org/Graphics/SVG/1.1/DTD/svg11.dtd">
<svg xmlns:xlink="http://www.w3.org/1999/xlink" width="720pt" height="720pt" viewBox="0 0 720 720" xmlns="http://www.w3.org/2000/svg" version="1.1">
 <metadata>
  <rdf:RDF xmlns:dc="http://purl.org/dc/elements/1.1/" xmlns:cc="http://creativecommons.org/ns#" xmlns:rdf="http://www.w3.org/1999/02/22-rdf-syntax-ns#">
   <cc:Work>
    <dc:type rdf:resource="http://purl.org/dc/dcmitype/StillImage"/>
    <dc:date>2025-07-07T06:05:25.230708</dc:date>
    <dc:format>image/svg+xml</dc:format>
    <dc:creator>
     <cc:Agent>
      <dc:title>Matplotlib v3.7.2, https://matplotlib.org/</dc:title>
     </cc:Agent>
    </dc:creator>
   </cc:Work>
  </rdf:RDF>
 </metadata>
 <defs>
  <style type="text/css">*{stroke-linejoin: round; stroke-linecap: butt}</style>
 </defs>
 <g id="figure_1">
  <g id="patch_1">
   <path d="M 0 720 
L 720 720 
L 720 0 
L 0 0 
z
" style="fill: #ffffff"/>
  </g>
  <g id="axes_1">
   <g id="patch_2">
    <path d="M 55.271818 331.372045 
L 359.655909 331.372045 
L 359.655909 26.987955 
L 55.271818 26.987955 
z
" style="fill: #ffffff"/>
   </g>
   <g id="patch_3">
    <path d="M 345.161429 55.976916 
C 349.00541 55.976916 352.692469 54.449686 355.410574 51.731581 
C 358.128679 49.013475 359.655909 45.326416 359.655909 41.482435 
C 359.655909 37.638454 358.128679 33.951395 355.410574 31.23329 
C 352.692469 28.515184 349.00541 26.987955 345.161429 26.987955 
C 341.317447 26.987955 337.630388 28.515184 334.912283 31.23329 
C 332.194178 33.951395 330.666948 37.638454 330.666948 41.482435 
C 330.666948 45.326416 332.194178 49.013475 334.912283 51.731581 
C 337.630388 54.449686 341.317447 55.976916 345.161429 55.976916 
z
" clip-path="url(#pc0ef8b9cf3)" style="fill: #bfbf00; stroke: #bfbf00; stroke-width: 2; stroke-linejoin: miter"/>
   </g>
   <g id="PathCollection_1">
    <defs>
     <path id="m515f09d80b" d="M -9.996861 1.500203 
L -3.76659 1.487124 
L -3.768824 0.422903 
L -1.85108 0.418877 
L -1.841704 4.879686 
L 2.427134 4.870736 
L 2.430634 6.537855 
L -0.162283 6.543287 
L -0.155622 9.716191 
L 6.074661 9.703124 
L 6.068 6.530208 
L 3.475095 6.535651 
L 3.471596 4.868532 
L 7.740434 4.859571 
L 7.719512 -5.107099 
L 3.450674 -5.098149 
L 3.447193 -6.756292 
L 6.040098 -6.761735 
L 6.033436 -9.935241 
L -0.196836 -9.922163 
L -0.190185 -6.748656 
L 2.402731 -6.754099 
L 2.406212 -5.095945 
L -1.862626 -5.086984 
L -1.853262 -0.626175 
L -3.771029 -0.622149 
L -3.773251 -1.686371 
L -10.003535 -1.673292 
L -9.996861 1.500203 
z
" style="stroke: #0000ff"/>
    </defs>
    <g clip-path="url(#pc0ef8b9cf3)">
     <use xlink:href="#m515f09d80b" x="343.402121" y="27.097241" style="fill: #0000ff; stroke: #0000ff"/>
    </g>
   </g>
   <g id="matplotlib.axis_1">
    <g id="xtick_1">
     <g id="line2d_1">
      <defs>
       <path id="m11efae494b" d="M 0 0 
L 0 3.5 
" style="stroke: #000000; stroke-width: 0.8"/>
      </defs>
      <g>
       <use xlink:href="#m11efae494b" x="55.271818" y="331.372045" style="stroke: #000000; stroke-width: 0.8"/>
      </g>
     </g>
     <g id="text_1">
      <!-- −4.0 -->
      <g transform="translate(43.130412 345.970483) scale(0.1 -0.1)">
       <defs>
        <path id="DejaVuSans-2212" d="M 678 2272 
L 4684 2272 
L 4684 1741 
L 678 1741 
L 678 2272 
z
" transform="scale(0.015625)"/>
        <path id="DejaVuSans-34" d="M 2419 4116 
L 825 1625 
L 2419 1625 
L 2419 4116 
z
M 2253 4666 
L 3047 4666 
L 3047 1625 
L 3713 1625 
L 3713 1100 
L 3047 1100 
L 3047 0 
L 2419 0 
L 2419 1100 
L 313 1100 
L 313 1709 
L 2253 4666 
z
" transform="scale(0.015625)"/>
        <path id="DejaVuSans-2e" d="M 684 794 
L 1344 794 
L 1344 0 
L 684 0 
L 684 794 
z
" transform="scale(0.015625)"/>
        <path id="DejaVuSans-30" d="M 2034 4250 
Q 1547 4250 1301 3770 
Q 1056 3291 1056 2328 
Q 1056 1369 1301 889 
Q 1547 409 2034 409 
Q 2525 409 2770 889 
Q 3016 1369 3016 2328 
Q 3016 3291 2770 3770 
Q 2525 4250 2034 4250 
z
M 2034 4750 
Q 2819 4750 3233 4129 
Q 3647 3509 3647 2328 
Q 3647 1150 3233 529 
Q 2819 -91 2034 -91 
Q 1250 -91 836 529 
Q 422 1150 422 2328 
Q 422 3509 836 4129 
Q 1250 4750 2034 4750 
z
" transform="scale(0.015625)"/>
       </defs>
       <use xlink:href="#DejaVuSans-2212"/>
       <use xlink:href="#DejaVuSans-34" x="83.789062"/>
       <use xlink:href="#DejaVuSans-2e" x="147.412109"/>
       <use xlink:href="#DejaVuSans-30" x="179.199219"/>
      </g>
     </g>
    </g>
    <g id="xtick_2">
     <g id="line2d_2">
      <g>
       <use xlink:href="#m11efae494b" x="91.508019" y="331.372045" style="stroke: #000000; stroke-width: 0.8"/>
      </g>
     </g>
     <g id="text_2">
      <!-- −3.5 -->
      <g transform="translate(79.366613 345.970483) scale(0.1 -0.1)">
       <defs>
        <path id="DejaVuSans-33" d="M 2597 2516 
Q 3050 2419 3304 2112 
Q 3559 1806 3559 1356 
Q 3559 666 3084 287 
Q 2609 -91 1734 -91 
Q 1441 -91 1130 -33 
Q 819 25 488 141 
L 488 750 
Q 750 597 1062 519 
Q 1375 441 1716 441 
Q 2309 441 2620 675 
Q 2931 909 2931 1356 
Q 2931 1769 2642 2001 
Q 2353 2234 1838 2234 
L 1294 2234 
L 1294 2753 
L 1863 2753 
Q 2328 2753 2575 2939 
Q 2822 3125 2822 3475 
Q 2822 3834 2567 4026 
Q 2313 4219 1838 4219 
Q 1578 4219 1281 4162 
Q 984 4106 628 3988 
L 628 4550 
Q 988 4650 1302 4700 
Q 1616 4750 1894 4750 
Q 2613 4750 3031 4423 
Q 3450 4097 3450 3541 
Q 3450 3153 3228 2886 
Q 3006 2619 2597 2516 
z
" transform="scale(0.015625)"/>
        <path id="DejaVuSans-35" d="M 691 4666 
L 3169 4666 
L 3169 4134 
L 1269 4134 
L 1269 2991 
Q 1406 3038 1543 3061 
Q 1681 3084 1819 3084 
Q 2600 3084 3056 2656 
Q 3513 2228 3513 1497 
Q 3513 744 3044 326 
Q 2575 -91 1722 -91 
Q 1428 -91 1123 -41 
Q 819 9 494 109 
L 494 744 
Q 775 591 1075 516 
Q 1375 441 1709 441 
Q 2250 441 2565 725 
Q 2881 1009 2881 1497 
Q 2881 1984 2565 2268 
Q 2250 2553 1709 2553 
Q 1456 2553 1204 2497 
Q 953 2441 691 2322 
L 691 4666 
z
" transform="scale(0.015625)"/>
       </defs>
       <use xlink:href="#DejaVuSans-2212"/>
       <use xlink:href="#DejaVuSans-33" x="83.789062"/>
       <use xlink:href="#DejaVuSans-2e" x="147.412109"/>
       <use xlink:href="#DejaVuSans-35" x="179.199219"/>
      </g>
     </g>
    </g>
    <g id="xtick_3">
     <g id="line2d_3">
      <g>
       <use xlink:href="#m11efae494b" x="127.744221" y="331.372045" style="stroke: #000000; stroke-width: 0.8"/>
      </g>
     </g>
     <g id="text_3">
      <!-- −3.0 -->
      <g transform="translate(115.602815 345.970483) scale(0.1 -0.1)">
       <use xlink:href="#DejaVuSans-2212"/>
       <use xlink:href="#DejaVuSans-33" x="83.789062"/>
       <use xlink:href="#DejaVuSans-2e" x="147.412109"/>
       <use xlink:href="#DejaVuSans-30" x="179.199219"/>
      </g>
     </g>
    </g>
    <g id="xtick_4">
     <g id="line2d_4">
      <g>
       <use xlink:href="#m11efae494b" x="163.980422" y="331.372045" style="stroke: #000000; stroke-width: 0.8"/>
      </g>
     </g>
     <g id="text_4">
      <!-- −2.5 -->
      <g transform="translate(151.839016 345.970483) scale(0.1 -0.1)">
       <defs>
        <path id="DejaVuSans-32" d="M 1228 531 
L 3431 531 
L 3431 0 
L 469 0 
L 469 531 
Q 828 903 1448 1529 
Q 2069 2156 2228 2338 
Q 2531 2678 2651 2914 
Q 2772 3150 2772 3378 
Q 2772 3750 2511 3984 
Q 2250 4219 1831 4219 
Q 1534 4219 1204 4116 
Q 875 4013 500 3803 
L 500 4441 
Q 881 4594 1212 4672 
Q 1544 4750 1819 4750 
Q 2544 4750 2975 4387 
Q 3406 4025 3406 3419 
Q 3406 3131 3298 2873 
Q 3191 2616 2906 2266 
Q 2828 2175 2409 1742 
Q 1991 1309 1228 531 
z
" transform="scale(0.015625)"/>
       </defs>
       <use xlink:href="#DejaVuSans-2212"/>
       <use xlink:href="#DejaVuSans-32" x="83.789062"/>
       <use xlink:href="#DejaVuSans-2e" x="147.412109"/>
       <use xlink:href="#DejaVuSans-35" x="179.199219"/>
      </g>
     </g>
    </g>
    <g id="xtick_5">
     <g id="line2d_5">
      <g>
       <use xlink:href="#m11efae494b" x="200.216623" y="331.372045" style="stroke: #000000; stroke-width: 0.8"/>
      </g>
     </g>
     <g id="text_5">
      <!-- −2.0 -->
      <g transform="translate(188.075217 345.970483) scale(0.1 -0.1)">
       <use xlink:href="#DejaVuSans-2212"/>
       <use xlink:href="#DejaVuSans-32" x="83.789062"/>
       <use xlink:href="#DejaVuSans-2e" x="147.412109"/>
       <use xlink:href="#DejaVuSans-30" x="179.199219"/>
      </g>
     </g>
    </g>
    <g id="xtick_6">
     <g id="line2d_6">
      <g>
       <use xlink:href="#m11efae494b" x="236.452825" y="331.372045" style="stroke: #000000; stroke-width: 0.8"/>
      </g>
     </g>
     <g id="text_6">
      <!-- −1.5 -->
      <g transform="translate(224.311418 345.970483) scale(0.1 -0.1)">
       <defs>
        <path id="DejaVuSans-31" d="M 794 531 
L 1825 531 
L 1825 4091 
L 703 3866 
L 703 4441 
L 1819 4666 
L 2450 4666 
L 2450 531 
L 3481 531 
L 3481 0 
L 794 0 
L 794 531 
z
" transform="scale(0.015625)"/>
       </defs>
       <use xlink:href="#DejaVuSans-2212"/>
       <use xlink:href="#DejaVuSans-31" x="83.789062"/>
       <use xlink:href="#DejaVuSans-2e" x="147.412109"/>
       <use xlink:href="#DejaVuSans-35" x="179.199219"/>
      </g>
     </g>
    </g>
    <g id="xtick_7">
     <g id="line2d_7">
      <g>
       <use xlink:href="#m11efae494b" x="272.689026" y="331.372045" style="stroke: #000000; stroke-width: 0.8"/>
      </g>
     </g>
     <g id="text_7">
      <!-- −1.0 -->
      <g transform="translate(260.54762 345.970483) scale(0.1 -0.1)">
       <use xlink:href="#DejaVuSans-2212"/>
       <use xlink:href="#DejaVuSans-31" x="83.789062"/>
       <use xlink:href="#DejaVuSans-2e" x="147.412109"/>
       <use xlink:href="#DejaVuSans-30" x="179.199219"/>
      </g>
     </g>
    </g>
    <g id="xtick_8">
     <g id="line2d_8">
      <g>
       <use xlink:href="#m11efae494b" x="308.925227" y="331.372045" style="stroke: #000000; stroke-width: 0.8"/>
      </g>
     </g>
     <g id="text_8">
      <!-- −0.5 -->
      <g transform="translate(296.783821 345.970483) scale(0.1 -0.1)">
       <use xlink:href="#DejaVuSans-2212"/>
       <use xlink:href="#DejaVuSans-30" x="83.789062"/>
       <use xlink:href="#DejaVuSans-2e" x="147.412109"/>
       <use xlink:href="#DejaVuSans-35" x="179.199219"/>
      </g>
     </g>
    </g>
    <g id="xtick_9">
     <g id="line2d_9">
      <g>
       <use xlink:href="#m11efae494b" x="345.161429" y="331.372045" style="stroke: #000000; stroke-width: 0.8"/>
      </g>
     </g>
     <g id="text_9">
      <!-- 0.0 -->
      <g transform="translate(337.209866 345.970483) scale(0.1 -0.1)">
       <use xlink:href="#DejaVuSans-30"/>
       <use xlink:href="#DejaVuSans-2e" x="63.623047"/>
       <use xlink:href="#DejaVuSans-30" x="95.410156"/>
      </g>
     </g>
    </g>
    <g id="text_10">
     <!-- x [m] -->
     <g transform="translate(194.143551 359.648608) scale(0.1 -0.1)">
      <defs>
       <path id="DejaVuSans-78" d="M 3513 3500 
L 2247 1797 
L 3578 0 
L 2900 0 
L 1881 1375 
L 863 0 
L 184 0 
L 1544 1831 
L 300 3500 
L 978 3500 
L 1906 2253 
L 2834 3500 
L 3513 3500 
z
" transform="scale(0.015625)"/>
       <path id="DejaVuSans-20" transform="scale(0.015625)"/>
       <path id="DejaVuSans-5b" d="M 550 4863 
L 1875 4863 
L 1875 4416 
L 1125 4416 
L 1125 -397 
L 1875 -397 
L 1875 -844 
L 550 -844 
L 550 4863 
z
" transform="scale(0.015625)"/>
       <path id="DejaVuSans-6d" d="M 3328 2828 
Q 3544 3216 3844 3400 
Q 4144 3584 4550 3584 
Q 5097 3584 5394 3201 
Q 5691 2819 5691 2113 
L 5691 0 
L 5113 0 
L 5113 2094 
Q 5113 2597 4934 2840 
Q 4756 3084 4391 3084 
Q 3944 3084 3684 2787 
Q 3425 2491 3425 1978 
L 3425 0 
L 2847 0 
L 2847 2094 
Q 2847 2600 2669 2842 
Q 2491 3084 2119 3084 
Q 1678 3084 1418 2786 
Q 1159 2488 1159 1978 
L 1159 0 
L 581 0 
L 581 3500 
L 1159 3500 
L 1159 2956 
Q 1356 3278 1631 3431 
Q 1906 3584 2284 3584 
Q 2666 3584 2933 3390 
Q 3200 3197 3328 2828 
z
" transform="scale(0.015625)"/>
       <path id="DejaVuSans-5d" d="M 1947 4863 
L 1947 -844 
L 622 -844 
L 622 -397 
L 1369 -397 
L 1369 4416 
L 622 4416 
L 622 4863 
L 1947 4863 
z
" transform="scale(0.015625)"/>
      </defs>
      <use xlink:href="#DejaVuSans-78"/>
      <use xlink:href="#DejaVuSans-20" x="59.179688"/>
      <use xlink:href="#DejaVuSans-5b" x="90.966797"/>
      <use xlink:href="#DejaVuSans-6d" x="129.980469"/>
      <use xlink:href="#DejaVuSans-5d" x="227.392578"/>
     </g>
    </g>
   </g>
   <g id="matplotlib.axis_2">
    <g id="ytick_1">
     <g id="line2d_10">
      <defs>
       <path id="m99aa28e778" d="M 0 0 
L -3.5 0 
" style="stroke: #000000; stroke-width: 0.8"/>
      </defs>
      <g>
       <use xlink:href="#m99aa28e778" x="55.271818" y="331.372045" style="stroke: #000000; stroke-width: 0.8"/>
      </g>
     </g>
     <g id="text_11">
      <!-- −4.0 -->
      <g transform="translate(23.989006 335.171264) scale(0.1 -0.1)">
       <use xlink:href="#DejaVuSans-2212"/>
       <use xlink:href="#DejaVuSans-34" x="83.789062"/>
       <use xlink:href="#DejaVuSans-2e" x="147.412109"/>
       <use xlink:href="#DejaVuSans-30" x="179.199219"/>
      </g>
     </g>
    </g>
    <g id="ytick_2">
     <g id="line2d_11">
      <g>
       <use xlink:href="#m99aa28e778" x="55.271818" y="295.135844" style="stroke: #000000; stroke-width: 0.8"/>
      </g>
     </g>
     <g id="text_12">
      <!-- −3.5 -->
      <g transform="translate(23.989006 298.935063) scale(0.1 -0.1)">
       <use xlink:href="#DejaVuSans-2212"/>
       <use xlink:href="#DejaVuSans-33" x="83.789062"/>
       <use xlink:href="#DejaVuSans-2e" x="147.412109"/>
       <use xlink:href="#DejaVuSans-35" x="179.199219"/>
      </g>
     </g>
    </g>
    <g id="ytick_3">
     <g id="line2d_12">
      <g>
       <use xlink:href="#m99aa28e778" x="55.271818" y="258.899643" style="stroke: #000000; stroke-width: 0.8"/>
      </g>
     </g>
     <g id="text_13">
      <!-- −3.0 -->
      <g transform="translate(23.989006 262.698862) scale(0.1 -0.1)">
       <use xlink:href="#DejaVuSans-2212"/>
       <use xlink:href="#DejaVuSans-33" x="83.789062"/>
       <use xlink:href="#DejaVuSans-2e" x="147.412109"/>
       <use xlink:href="#DejaVuSans-30" x="179.199219"/>
      </g>
     </g>
    </g>
    <g id="ytick_4">
     <g id="line2d_13">
      <g>
       <use xlink:href="#m99aa28e778" x="55.271818" y="222.663442" style="stroke: #000000; stroke-width: 0.8"/>
      </g>
     </g>
     <g id="text_14">
      <!-- −2.5 -->
      <g transform="translate(23.989006 226.46266) scale(0.1 -0.1)">
       <use xlink:href="#DejaVuSans-2212"/>
       <use xlink:href="#DejaVuSans-32" x="83.789062"/>
       <use xlink:href="#DejaVuSans-2e" x="147.412109"/>
       <use xlink:href="#DejaVuSans-35" x="179.199219"/>
      </g>
     </g>
    </g>
    <g id="ytick_5">
     <g id="line2d_14">
      <g>
       <use xlink:href="#m99aa28e778" x="55.271818" y="186.42724" style="stroke: #000000; stroke-width: 0.8"/>
      </g>
     </g>
     <g id="text_15">
      <!-- −2.0 -->
      <g transform="translate(23.989006 190.226459) scale(0.1 -0.1)">
       <use xlink:href="#DejaVuSans-2212"/>
       <use xlink:href="#DejaVuSans-32" x="83.789062"/>
       <use xlink:href="#DejaVuSans-2e" x="147.412109"/>
       <use xlink:href="#DejaVuSans-30" x="179.199219"/>
      </g>
     </g>
    </g>
    <g id="ytick_6">
     <g id="line2d_15">
      <g>
       <use xlink:href="#m99aa28e778" x="55.271818" y="150.191039" style="stroke: #000000; stroke-width: 0.8"/>
      </g>
     </g>
     <g id="text_16">
      <!-- −1.5 -->
      <g transform="translate(23.989006 153.990258) scale(0.1 -0.1)">
       <use xlink:href="#DejaVuSans-2212"/>
       <use xlink:href="#DejaVuSans-31" x="83.789062"/>
       <use xlink:href="#DejaVuSans-2e" x="147.412109"/>
       <use xlink:href="#DejaVuSans-35" x="179.199219"/>
      </g>
     </g>
    </g>
    <g id="ytick_7">
     <g id="line2d_16">
      <g>
       <use xlink:href="#m99aa28e778" x="55.271818" y="113.954838" style="stroke: #000000; stroke-width: 0.8"/>
      </g>
     </g>
     <g id="text_17">
      <!-- −1.0 -->
      <g transform="translate(23.989006 117.754056) scale(0.1 -0.1)">
       <use xlink:href="#DejaVuSans-2212"/>
       <use xlink:href="#DejaVuSans-31" x="83.789062"/>
       <use xlink:href="#DejaVuSans-2e" x="147.412109"/>
       <use xlink:href="#DejaVuSans-30" x="179.199219"/>
      </g>
     </g>
    </g>
    <g id="ytick_8">
     <g id="line2d_17">
      <g>
       <use xlink:href="#m99aa28e778" x="55.271818" y="77.718636" style="stroke: #000000; stroke-width: 0.8"/>
      </g>
     </g>
     <g id="text_18">
      <!-- −0.5 -->
      <g transform="translate(23.989006 81.517855) scale(0.1 -0.1)">
       <use xlink:href="#DejaVuSans-2212"/>
       <use xlink:href="#DejaVuSans-30" x="83.789062"/>
       <use xlink:href="#DejaVuSans-2e" x="147.412109"/>
       <use xlink:href="#DejaVuSans-35" x="179.199219"/>
      </g>
     </g>
    </g>
    <g id="ytick_9">
     <g id="line2d_18">
      <g>
       <use xlink:href="#m99aa28e778" x="55.271818" y="41.482435" style="stroke: #000000; stroke-width: 0.8"/>
      </g>
     </g>
     <g id="text_19">
      <!-- 0.0 -->
      <g transform="translate(32.368693 45.281654) scale(0.1 -0.1)">
       <use xlink:href="#DejaVuSans-30"/>
       <use xlink:href="#DejaVuSans-2e" x="63.623047"/>
       <use xlink:href="#DejaVuSans-30" x="95.410156"/>
      </g>
     </g>
    </g>
    <g id="text_20">
     <!-- y [m] -->
     <g transform="translate(17.909318 192.500313) rotate(-90) scale(0.1 -0.1)">
      <defs>
       <path id="DejaVuSans-79" d="M 2059 -325 
Q 1816 -950 1584 -1140 
Q 1353 -1331 966 -1331 
L 506 -1331 
L 506 -850 
L 844 -850 
Q 1081 -850 1212 -737 
Q 1344 -625 1503 -206 
L 1606 56 
L 191 3500 
L 800 3500 
L 1894 763 
L 2988 3500 
L 3597 3500 
L 2059 -325 
z
" transform="scale(0.015625)"/>
      </defs>
      <use xlink:href="#DejaVuSans-79"/>
      <use xlink:href="#DejaVuSans-20" x="59.179688"/>
      <use xlink:href="#DejaVuSans-5b" x="90.966797"/>
      <use xlink:href="#DejaVuSans-6d" x="129.980469"/>
      <use xlink:href="#DejaVuSans-5d" x="227.392578"/>
     </g>
    </g>
   </g>
   <g id="line2d_19">
    <path d="M 55.271818 41.482435 
L 359.655909 41.482435 
" clip-path="url(#pc0ef8b9cf3)" style="fill: none; stroke-dasharray: 2.775,1.2; stroke-dashoffset: 0; stroke: #000000; stroke-width: 0.75"/>
   </g>
   <g id="line2d_20">
    <path d="M 345.161429 331.372045 
L 345.161429 26.987955 
" clip-path="url(#pc0ef8b9cf3)" style="fill: none; stroke-dasharray: 2.775,1.2; stroke-dashoffset: 0; stroke: #000000; stroke-width: 0.75"/>
   </g>
   <g id="line2d_21">
    <path d="M 127.744221 258.899643 
L 127.71572 260.644146 
L 128.040868 254.013402 
L 128.643811 246.655602 
L 129.500127 239.322969 
L 130.568694 232.208751 
L 131.850847 225.149192 
L 133.347917 218.132065 
L 134.936214 211.612035 
L 136.684531 205.181403 
L 138.504792 199.101313 
L 140.461912 193.097372 
L 142.458656 187.424508 
L 144.570845 181.82586 
L 146.693664 176.546429 
L 151.122138 166.434531 
L 155.6745 157.046692 
L 160.295556 148.337061 
L 164.941234 140.260107 
L 169.573413 132.776843 
L 174.167764 125.841436 
L 178.710195 119.399315 
L 183.178143 113.421313 
L 187.553301 107.880859 
L 191.820481 102.75228 
L 195.984005 97.994556 
L 202.09198 91.413701 
L 207.972984 85.489193 
L 213.607785 80.164189 
L 218.986317 75.383096 
L 224.145453 71.058613 
L 230.587989 65.999938 
L 236.675998 61.55428 
L 242.380319 57.67033 
L 247.671862 54.303366 
L 253.880153 50.631819 
L 259.572054 47.521726 
L 265.880378 44.353203 
L 271.648472 41.705768 
L 277.788475 39.14666 
L 284.07398 36.795631 
L 289.752759 34.903438 
L 295.467206 33.216993 
L 301.125287 31.772779 
L 307.031803 30.493236 
L 313.018496 29.417663 
L 319.190633 28.535876 
L 325.368357 27.876917 
L 331.901502 27.409225 
L 338.60029 27.156388 
L 343.402121 27.097241 
L 343.402121 27.097241 
" clip-path="url(#pc0ef8b9cf3)" style="fill: none; stroke-dasharray: 1.85,0.8; stroke-dashoffset: 0; stroke: #0000ff; stroke-width: 0.5"/>
   </g>
   <g id="patch_4">
    <path d="M 55.271818 331.372045 
L 55.271818 26.987955 
" style="fill: none; stroke: #000000; stroke-width: 0.8; stroke-linejoin: miter; stroke-linecap: square"/>
   </g>
   <g id="patch_5">
    <path d="M 359.655909 331.372045 
L 359.655909 26.987955 
" style="fill: none; stroke: #000000; stroke-width: 0.8; stroke-linejoin: miter; stroke-linecap: square"/>
   </g>
   <g id="patch_6">
    <path d="M 55.271818 331.372045 
L 359.655909 331.372045 
" style="fill: none; stroke: #000000; stroke-width: 0.8; stroke-linejoin: miter; stroke-linecap: square"/>
   </g>
   <g id="patch_7">
    <path d="M 55.271818 26.987955 
L 359.655909 26.987955 
" style="fill: none; stroke: #000000; stroke-width: 0.8; stroke-linejoin: miter; stroke-linecap: square"/>
   </g>
   <g id="text_21">
    <!-- Target -->
    <g transform="translate(323.129818 60.185739) scale(0.1 -0.1)">
     <defs>
      <path id="DejaVuSans-54" d="M -19 4666 
L 3928 4666 
L 3928 4134 
L 2272 4134 
L 2272 0 
L 1638 0 
L 1638 4134 
L -19 4134 
L -19 4666 
z
" transform="scale(0.015625)"/>
      <path id="DejaVuSans-61" d="M 2194 1759 
Q 1497 1759 1228 1600 
Q 959 1441 959 1056 
Q 959 750 1161 570 
Q 1363 391 1709 391 
Q 2188 391 2477 730 
Q 2766 1069 2766 1631 
L 2766 1759 
L 2194 1759 
z
M 3341 1997 
L 3341 0 
L 2766 0 
L 2766 531 
Q 2569 213 2275 61 
Q 1981 -91 1556 -91 
Q 1019 -91 701 211 
Q 384 513 384 1019 
Q 384 1609 779 1909 
Q 1175 2209 1959 2209 
L 2766 2209 
L 2766 2266 
Q 2766 2663 2505 2880 
Q 2244 3097 1772 3097 
Q 1472 3097 1187 3025 
Q 903 2953 641 2809 
L 641 3341 
Q 956 3463 1253 3523 
Q 1550 3584 1831 3584 
Q 2591 3584 2966 3190 
Q 3341 2797 3341 1997 
z
" transform="scale(0.015625)"/>
      <path id="DejaVuSans-72" d="M 2631 2963 
Q 2534 3019 2420 3045 
Q 2306 3072 2169 3072 
Q 1681 3072 1420 2755 
Q 1159 2438 1159 1844 
L 1159 0 
L 581 0 
L 581 3500 
L 1159 3500 
L 1159 2956 
Q 1341 3275 1631 3429 
Q 1922 3584 2338 3584 
Q 2397 3584 2469 3576 
Q 2541 3569 2628 3553 
L 2631 2963 
z
" transform="scale(0.015625)"/>
      <path id="DejaVuSans-67" d="M 2906 1791 
Q 2906 2416 2648 2759 
Q 2391 3103 1925 3103 
Q 1463 3103 1205 2759 
Q 947 2416 947 1791 
Q 947 1169 1205 825 
Q 1463 481 1925 481 
Q 2391 481 2648 825 
Q 2906 1169 2906 1791 
z
M 3481 434 
Q 3481 -459 3084 -895 
Q 2688 -1331 1869 -1331 
Q 1566 -1331 1297 -1286 
Q 1028 -1241 775 -1147 
L 775 -588 
Q 1028 -725 1275 -790 
Q 1522 -856 1778 -856 
Q 2344 -856 2625 -561 
Q 2906 -266 2906 331 
L 2906 616 
Q 2728 306 2450 153 
Q 2172 0 1784 0 
Q 1141 0 747 490 
Q 353 981 353 1791 
Q 353 2603 747 3093 
Q 1141 3584 1784 3584 
Q 2172 3584 2450 3431 
Q 2728 3278 2906 2969 
L 2906 3500 
L 3481 3500 
L 3481 434 
z
" transform="scale(0.015625)"/>
      <path id="DejaVuSans-65" d="M 3597 1894 
L 3597 1613 
L 953 1613 
Q 991 1019 1311 708 
Q 1631 397 2203 397 
Q 2534 397 2845 478 
Q 3156 559 3463 722 
L 3463 178 
Q 3153 47 2828 -22 
Q 2503 -91 2169 -91 
Q 1331 -91 842 396 
Q 353 884 353 1716 
Q 353 2575 817 3079 
Q 1281 3584 2069 3584 
Q 2775 3584 3186 3129 
Q 3597 2675 3597 1894 
z
M 3022 2063 
Q 3016 2534 2758 2815 
Q 2500 3097 2075 3097 
Q 1594 3097 1305 2825 
Q 1016 2553 972 2059 
L 3022 2063 
z
" transform="scale(0.015625)"/>
      <path id="DejaVuSans-74" d="M 1172 4494 
L 1172 3500 
L 2356 3500 
L 2356 3053 
L 1172 3053 
L 1172 1153 
Q 1172 725 1289 603 
Q 1406 481 1766 481 
L 2356 481 
L 2356 0 
L 1766 0 
Q 1100 0 847 248 
Q 594 497 594 1153 
L 594 3053 
L 172 3053 
L 172 3500 
L 594 3500 
L 594 4494 
L 1172 4494 
z
" transform="scale(0.015625)"/>
     </defs>
     <use xlink:href="#DejaVuSans-54"/>
     <use xlink:href="#DejaVuSans-61" x="44.583984"/>
     <use xlink:href="#DejaVuSans-72" x="105.863281"/>
     <use xlink:href="#DejaVuSans-67" x="145.226562"/>
     <use xlink:href="#DejaVuSans-65" x="208.703125"/>
     <use xlink:href="#DejaVuSans-74" x="270.226562"/>
    </g>
   </g>
   <g id="text_22">
    <!-- t = 18.460 -->
    <g transform="translate(70.491023 44.966534) scale(0.1 -0.1)">
     <defs>
      <path id="DejaVuSans-3d" d="M 678 2906 
L 4684 2906 
L 4684 2381 
L 678 2381 
L 678 2906 
z
M 678 1631 
L 4684 1631 
L 4684 1100 
L 678 1100 
L 678 1631 
z
" transform="scale(0.015625)"/>
      <path id="DejaVuSans-38" d="M 2034 2216 
Q 1584 2216 1326 1975 
Q 1069 1734 1069 1313 
Q 1069 891 1326 650 
Q 1584 409 2034 409 
Q 2484 409 2743 651 
Q 3003 894 3003 1313 
Q 3003 1734 2745 1975 
Q 2488 2216 2034 2216 
z
M 1403 2484 
Q 997 2584 770 2862 
Q 544 3141 544 3541 
Q 544 4100 942 4425 
Q 1341 4750 2034 4750 
Q 2731 4750 3128 4425 
Q 3525 4100 3525 3541 
Q 3525 3141 3298 2862 
Q 3072 2584 2669 2484 
Q 3125 2378 3379 2068 
Q 3634 1759 3634 1313 
Q 3634 634 3220 271 
Q 2806 -91 2034 -91 
Q 1263 -91 848 271 
Q 434 634 434 1313 
Q 434 1759 690 2068 
Q 947 2378 1403 2484 
z
M 1172 3481 
Q 1172 3119 1398 2916 
Q 1625 2713 2034 2713 
Q 2441 2713 2670 2916 
Q 2900 3119 2900 3481 
Q 2900 3844 2670 4047 
Q 2441 4250 2034 4250 
Q 1625 4250 1398 4047 
Q 1172 3844 1172 3481 
z
" transform="scale(0.015625)"/>
      <path id="DejaVuSans-36" d="M 2113 2584 
Q 1688 2584 1439 2293 
Q 1191 2003 1191 1497 
Q 1191 994 1439 701 
Q 1688 409 2113 409 
Q 2538 409 2786 701 
Q 3034 994 3034 1497 
Q 3034 2003 2786 2293 
Q 2538 2584 2113 2584 
z
M 3366 4563 
L 3366 3988 
Q 3128 4100 2886 4159 
Q 2644 4219 2406 4219 
Q 1781 4219 1451 3797 
Q 1122 3375 1075 2522 
Q 1259 2794 1537 2939 
Q 1816 3084 2150 3084 
Q 2853 3084 3261 2657 
Q 3669 2231 3669 1497 
Q 3669 778 3244 343 
Q 2819 -91 2113 -91 
Q 1303 -91 875 529 
Q 447 1150 447 2328 
Q 447 3434 972 4092 
Q 1497 4750 2381 4750 
Q 2619 4750 2861 4703 
Q 3103 4656 3366 4563 
z
" transform="scale(0.015625)"/>
     </defs>
     <use xlink:href="#DejaVuSans-74"/>
     <use xlink:href="#DejaVuSans-20" x="39.208984"/>
     <use xlink:href="#DejaVuSans-3d" x="70.996094"/>
     <use xlink:href="#DejaVuSans-20" x="154.785156"/>
     <use xlink:href="#DejaVuSans-31" x="186.572266"/>
     <use xlink:href="#DejaVuSans-38" x="250.195312"/>
     <use xlink:href="#DejaVuSans-2e" x="313.818359"/>
     <use xlink:href="#DejaVuSans-34" x="345.605469"/>
     <use xlink:href="#DejaVuSans-36" x="409.228516"/>
     <use xlink:href="#DejaVuSans-30" x="472.851562"/>
    </g>
   </g>
   <g id="text_23">
    <!-- Pause - space, q - quit, click - data cursor -->
    <g transform="translate(83.554489 20.987955) scale(0.12 -0.12)">
     <defs>
      <path id="DejaVuSans-50" d="M 1259 4147 
L 1259 2394 
L 2053 2394 
Q 2494 2394 2734 2622 
Q 2975 2850 2975 3272 
Q 2975 3691 2734 3919 
Q 2494 4147 2053 4147 
L 1259 4147 
z
M 628 4666 
L 2053 4666 
Q 2838 4666 3239 4311 
Q 3641 3956 3641 3272 
Q 3641 2581 3239 2228 
Q 2838 1875 2053 1875 
L 1259 1875 
L 1259 0 
L 628 0 
L 628 4666 
z
" transform="scale(0.015625)"/>
      <path id="DejaVuSans-75" d="M 544 1381 
L 544 3500 
L 1119 3500 
L 1119 1403 
Q 1119 906 1312 657 
Q 1506 409 1894 409 
Q 2359 409 2629 706 
Q 2900 1003 2900 1516 
L 2900 3500 
L 3475 3500 
L 3475 0 
L 2900 0 
L 2900 538 
Q 2691 219 2414 64 
Q 2138 -91 1772 -91 
Q 1169 -91 856 284 
Q 544 659 544 1381 
z
M 1991 3584 
L 1991 3584 
z
" transform="scale(0.015625)"/>
      <path id="DejaVuSans-73" d="M 2834 3397 
L 2834 2853 
Q 2591 2978 2328 3040 
Q 2066 3103 1784 3103 
Q 1356 3103 1142 2972 
Q 928 2841 928 2578 
Q 928 2378 1081 2264 
Q 1234 2150 1697 2047 
L 1894 2003 
Q 2506 1872 2764 1633 
Q 3022 1394 3022 966 
Q 3022 478 2636 193 
Q 2250 -91 1575 -91 
Q 1294 -91 989 -36 
Q 684 19 347 128 
L 347 722 
Q 666 556 975 473 
Q 1284 391 1588 391 
Q 1994 391 2212 530 
Q 2431 669 2431 922 
Q 2431 1156 2273 1281 
Q 2116 1406 1581 1522 
L 1381 1569 
Q 847 1681 609 1914 
Q 372 2147 372 2553 
Q 372 3047 722 3315 
Q 1072 3584 1716 3584 
Q 2034 3584 2315 3537 
Q 2597 3491 2834 3397 
z
" transform="scale(0.015625)"/>
      <path id="DejaVuSans-2d" d="M 313 2009 
L 1997 2009 
L 1997 1497 
L 313 1497 
L 313 2009 
z
" transform="scale(0.015625)"/>
      <path id="DejaVuSans-70" d="M 1159 525 
L 1159 -1331 
L 581 -1331 
L 581 3500 
L 1159 3500 
L 1159 2969 
Q 1341 3281 1617 3432 
Q 1894 3584 2278 3584 
Q 2916 3584 3314 3078 
Q 3713 2572 3713 1747 
Q 3713 922 3314 415 
Q 2916 -91 2278 -91 
Q 1894 -91 1617 61 
Q 1341 213 1159 525 
z
M 3116 1747 
Q 3116 2381 2855 2742 
Q 2594 3103 2138 3103 
Q 1681 3103 1420 2742 
Q 1159 2381 1159 1747 
Q 1159 1113 1420 752 
Q 1681 391 2138 391 
Q 2594 391 2855 752 
Q 3116 1113 3116 1747 
z
" transform="scale(0.015625)"/>
      <path id="DejaVuSans-63" d="M 3122 3366 
L 3122 2828 
Q 2878 2963 2633 3030 
Q 2388 3097 2138 3097 
Q 1578 3097 1268 2742 
Q 959 2388 959 1747 
Q 959 1106 1268 751 
Q 1578 397 2138 397 
Q 2388 397 2633 464 
Q 2878 531 3122 666 
L 3122 134 
Q 2881 22 2623 -34 
Q 2366 -91 2075 -91 
Q 1284 -91 818 406 
Q 353 903 353 1747 
Q 353 2603 823 3093 
Q 1294 3584 2113 3584 
Q 2378 3584 2631 3529 
Q 2884 3475 3122 3366 
z
" transform="scale(0.015625)"/>
      <path id="DejaVuSans-2c" d="M 750 794 
L 1409 794 
L 1409 256 
L 897 -744 
L 494 -744 
L 750 256 
L 750 794 
z
" transform="scale(0.015625)"/>
      <path id="DejaVuSans-71" d="M 947 1747 
Q 947 1113 1208 752 
Q 1469 391 1925 391 
Q 2381 391 2643 752 
Q 2906 1113 2906 1747 
Q 2906 2381 2643 2742 
Q 2381 3103 1925 3103 
Q 1469 3103 1208 2742 
Q 947 2381 947 1747 
z
M 2906 525 
Q 2725 213 2448 61 
Q 2172 -91 1784 -91 
Q 1150 -91 751 415 
Q 353 922 353 1747 
Q 353 2572 751 3078 
Q 1150 3584 1784 3584 
Q 2172 3584 2448 3432 
Q 2725 3281 2906 2969 
L 2906 3500 
L 3481 3500 
L 3481 -1331 
L 2906 -1331 
L 2906 525 
z
" transform="scale(0.015625)"/>
      <path id="DejaVuSans-69" d="M 603 3500 
L 1178 3500 
L 1178 0 
L 603 0 
L 603 3500 
z
M 603 4863 
L 1178 4863 
L 1178 4134 
L 603 4134 
L 603 4863 
z
" transform="scale(0.015625)"/>
      <path id="DejaVuSans-6c" d="M 603 4863 
L 1178 4863 
L 1178 0 
L 603 0 
L 603 4863 
z
" transform="scale(0.015625)"/>
      <path id="DejaVuSans-6b" d="M 581 4863 
L 1159 4863 
L 1159 1991 
L 2875 3500 
L 3609 3500 
L 1753 1863 
L 3688 0 
L 2938 0 
L 1159 1709 
L 1159 0 
L 581 0 
L 581 4863 
z
" transform="scale(0.015625)"/>
      <path id="DejaVuSans-64" d="M 2906 2969 
L 2906 4863 
L 3481 4863 
L 3481 0 
L 2906 0 
L 2906 525 
Q 2725 213 2448 61 
Q 2172 -91 1784 -91 
Q 1150 -91 751 415 
Q 353 922 353 1747 
Q 353 2572 751 3078 
Q 1150 3584 1784 3584 
Q 2172 3584 2448 3432 
Q 2725 3281 2906 2969 
z
M 947 1747 
Q 947 1113 1208 752 
Q 1469 391 1925 391 
Q 2381 391 2643 752 
Q 2906 1113 2906 1747 
Q 2906 2381 2643 2742 
Q 2381 3103 1925 3103 
Q 1469 3103 1208 2742 
Q 947 2381 947 1747 
z
" transform="scale(0.015625)"/>
      <path id="DejaVuSans-6f" d="M 1959 3097 
Q 1497 3097 1228 2736 
Q 959 2375 959 1747 
Q 959 1119 1226 758 
Q 1494 397 1959 397 
Q 2419 397 2687 759 
Q 2956 1122 2956 1747 
Q 2956 2369 2687 2733 
Q 2419 3097 1959 3097 
z
M 1959 3584 
Q 2709 3584 3137 3096 
Q 3566 2609 3566 1747 
Q 3566 888 3137 398 
Q 2709 -91 1959 -91 
Q 1206 -91 779 398 
Q 353 888 353 1747 
Q 353 2609 779 3096 
Q 1206 3584 1959 3584 
z
" transform="scale(0.015625)"/>
     </defs>
     <use xlink:href="#DejaVuSans-50"/>
     <use xlink:href="#DejaVuSans-61" x="55.802734"/>
     <use xlink:href="#DejaVuSans-75" x="117.082031"/>
     <use xlink:href="#DejaVuSans-73" x="180.460938"/>
     <use xlink:href="#DejaVuSans-65" x="232.560547"/>
     <use xlink:href="#DejaVuSans-20" x="294.083984"/>
     <use xlink:href="#DejaVuSans-2d" x="325.871094"/>
     <use xlink:href="#DejaVuSans-20" x="361.955078"/>
     <use xlink:href="#DejaVuSans-73" x="393.742188"/>
     <use xlink:href="#DejaVuSans-70" x="445.841797"/>
     <use xlink:href="#DejaVuSans-61" x="509.318359"/>
     <use xlink:href="#DejaVuSans-63" x="570.597656"/>
     <use xlink:href="#DejaVuSans-65" x="625.578125"/>
     <use xlink:href="#DejaVuSans-2c" x="687.101562"/>
     <use xlink:href="#DejaVuSans-20" x="718.888672"/>
     <use xlink:href="#DejaVuSans-71" x="750.675781"/>
     <use xlink:href="#DejaVuSans-20" x="814.152344"/>
     <use xlink:href="#DejaVuSans-2d" x="845.939453"/>
     <use xlink:href="#DejaVuSans-20" x="882.023438"/>
     <use xlink:href="#DejaVuSans-71" x="913.810547"/>
     <use xlink:href="#DejaVuSans-75" x="977.287109"/>
     <use xlink:href="#DejaVuSans-69" x="1040.666016"/>
     <use xlink:href="#DejaVuSans-74" x="1068.449219"/>
     <use xlink:href="#DejaVuSans-2c" x="1107.658203"/>
     <use xlink:href="#DejaVuSans-20" x="1139.445312"/>
     <use xlink:href="#DejaVuSans-63" x="1171.232422"/>
     <use xlink:href="#DejaVuSans-6c" x="1226.212891"/>
     <use xlink:href="#DejaVuSans-69" x="1253.996094"/>
     <use xlink:href="#DejaVuSans-63" x="1281.779297"/>
     <use xlink:href="#DejaVuSans-6b" x="1336.759766"/>
     <use xlink:href="#DejaVuSans-20" x="1394.669922"/>
     <use xlink:href="#DejaVuSans-2d" x="1426.457031"/>
     <use xlink:href="#DejaVuSans-20" x="1462.541016"/>
     <use xlink:href="#DejaVuSans-64" x="1494.328125"/>
     <use xlink:href="#DejaVuSans-61" x="1557.804688"/>
     <use xlink:href="#DejaVuSans-74" x="1619.083984"/>
     <use xlink:href="#DejaVuSans-61" x="1658.292969"/>
     <use xlink:href="#DejaVuSans-20" x="1719.572266"/>
     <use xlink:href="#DejaVuSans-63" x="1751.359375"/>
     <use xlink:href="#DejaVuSans-75" x="1806.339844"/>
     <use xlink:href="#DejaVuSans-72" x="1869.71875"/>
     <use xlink:href="#DejaVuSans-73" x="1910.832031"/>
     <use xlink:href="#DejaVuSans-6f" x="1962.931641"/>
     <use xlink:href="#DejaVuSans-72" x="2024.113281"/>
    </g>
   </g>
  </g>
  <g id="axes_2">
   <g id="patch_8">
    <path d="M 398.515909 331.48 
L 702.9 331.48 
L 702.9 26.88 
L 398.515909 26.88 
z
" style="fill: #ffffff"/>
   </g>
   <g id="matplotlib.axis_3">
    <g id="xtick_10">
     <g id="line2d_22">
      <g>
       <use xlink:href="#m11efae494b" x="398.515909" y="331.48" style="stroke: #000000; stroke-width: 0.8"/>
      </g>
     </g>
     <g id="text_24">
      <!-- 0 -->
      <g transform="translate(395.334659 346.078438) scale(0.1 -0.1)">
       <use xlink:href="#DejaVuSans-30"/>
      </g>
     </g>
    </g>
    <g id="xtick_11">
     <g id="line2d_23">
      <g>
       <use xlink:href="#m11efae494b" x="449.246591" y="331.48" style="stroke: #000000; stroke-width: 0.8"/>
      </g>
     </g>
     <g id="text_25">
      <!-- 5 -->
      <g transform="translate(446.065341 346.078438) scale(0.1 -0.1)">
       <use xlink:href="#DejaVuSans-35"/>
      </g>
     </g>
    </g>
    <g id="xtick_12">
     <g id="line2d_24">
      <g>
       <use xlink:href="#m11efae494b" x="499.977273" y="331.48" style="stroke: #000000; stroke-width: 0.8"/>
      </g>
     </g>
     <g id="text_26">
      <!-- 10 -->
      <g transform="translate(493.614773 346.078438) scale(0.1 -0.1)">
       <use xlink:href="#DejaVuSans-31"/>
       <use xlink:href="#DejaVuSans-30" x="63.623047"/>
      </g>
     </g>
    </g>
    <g id="xtick_13">
     <g id="line2d_25">
      <g>
       <use xlink:href="#m11efae494b" x="550.707955" y="331.48" style="stroke: #000000; stroke-width: 0.8"/>
      </g>
     </g>
     <g id="text_27">
      <!-- 15 -->
      <g transform="translate(544.345455 346.078438) scale(0.1 -0.1)">
       <use xlink:href="#DejaVuSans-31"/>
       <use xlink:href="#DejaVuSans-35" x="63.623047"/>
      </g>
     </g>
    </g>
    <g id="xtick_14">
     <g id="line2d_26">
      <g>
       <use xlink:href="#m11efae494b" x="601.438636" y="331.48" style="stroke: #000000; stroke-width: 0.8"/>
      </g>
     </g>
     <g id="text_28">
      <!-- 20 -->
      <g transform="translate(595.076136 346.078438) scale(0.1 -0.1)">
       <use xlink:href="#DejaVuSans-32"/>
       <use xlink:href="#DejaVuSans-30" x="63.623047"/>
      </g>
     </g>
    </g>
    <g id="xtick_15">
     <g id="line2d_27">
      <g>
       <use xlink:href="#m11efae494b" x="652.169318" y="331.48" style="stroke: #000000; stroke-width: 0.8"/>
      </g>
     </g>
     <g id="text_29">
      <!-- 25 -->
      <g transform="translate(645.806818 346.078438) scale(0.1 -0.1)">
       <use xlink:href="#DejaVuSans-32"/>
       <use xlink:href="#DejaVuSans-35" x="63.623047"/>
      </g>
     </g>
    </g>
    <g id="xtick_16">
     <g id="line2d_28">
      <g>
       <use xlink:href="#m11efae494b" x="702.9" y="331.48" style="stroke: #000000; stroke-width: 0.8"/>
      </g>
     </g>
     <g id="text_30">
      <!-- 30 -->
      <g transform="translate(696.5375 346.078438) scale(0.1 -0.1)">
       <use xlink:href="#DejaVuSans-33"/>
       <use xlink:href="#DejaVuSans-30" x="63.623047"/>
      </g>
     </g>
    </g>
    <g id="text_31">
     <!-- t [s] -->
     <g transform="translate(540.652486 359.756563) scale(0.1 -0.1)">
      <use xlink:href="#DejaVuSans-74"/>
      <use xlink:href="#DejaVuSans-20" x="39.208984"/>
      <use xlink:href="#DejaVuSans-5b" x="70.996094"/>
      <use xlink:href="#DejaVuSans-73" x="110.009766"/>
      <use xlink:href="#DejaVuSans-5d" x="162.109375"/>
     </g>
    </g>
   </g>
   <g id="matplotlib.axis_4">
    <g id="ytick_10">
     <g id="line2d_29">
      <g>
       <use xlink:href="#m99aa28e778" x="398.515909" y="317.634545" style="stroke: #000000; stroke-width: 0.8"/>
      </g>
     </g>
     <g id="text_32">
      <!-- −8 -->
      <g transform="translate(376.773722 321.433764) scale(0.1 -0.1)">
       <use xlink:href="#DejaVuSans-2212"/>
       <use xlink:href="#DejaVuSans-38" x="83.789062"/>
      </g>
     </g>
    </g>
    <g id="ytick_11">
     <g id="line2d_30">
      <g>
       <use xlink:href="#m99aa28e778" x="398.515909" y="283.020909" style="stroke: #000000; stroke-width: 0.8"/>
      </g>
     </g>
     <g id="text_33">
      <!-- −6 -->
      <g transform="translate(376.773722 286.820128) scale(0.1 -0.1)">
       <use xlink:href="#DejaVuSans-2212"/>
       <use xlink:href="#DejaVuSans-36" x="83.789062"/>
      </g>
     </g>
    </g>
    <g id="ytick_12">
     <g id="line2d_31">
      <g>
       <use xlink:href="#m99aa28e778" x="398.515909" y="248.407273" style="stroke: #000000; stroke-width: 0.8"/>
      </g>
     </g>
     <g id="text_34">
      <!-- −4 -->
      <g transform="translate(376.773722 252.206491) scale(0.1 -0.1)">
       <use xlink:href="#DejaVuSans-2212"/>
       <use xlink:href="#DejaVuSans-34" x="83.789062"/>
      </g>
     </g>
    </g>
    <g id="ytick_13">
     <g id="line2d_32">
      <g>
       <use xlink:href="#m99aa28e778" x="398.515909" y="213.793636" style="stroke: #000000; stroke-width: 0.8"/>
      </g>
     </g>
     <g id="text_35">
      <!-- −2 -->
      <g transform="translate(376.773722 217.592855) scale(0.1 -0.1)">
       <use xlink:href="#DejaVuSans-2212"/>
       <use xlink:href="#DejaVuSans-32" x="83.789062"/>
      </g>
     </g>
    </g>
    <g id="ytick_14">
     <g id="line2d_33">
      <g>
       <use xlink:href="#m99aa28e778" x="398.515909" y="179.18" style="stroke: #000000; stroke-width: 0.8"/>
      </g>
     </g>
     <g id="text_36">
      <!-- 0 -->
      <g transform="translate(385.153409 182.979219) scale(0.1 -0.1)">
       <use xlink:href="#DejaVuSans-30"/>
      </g>
     </g>
    </g>
    <g id="ytick_15">
     <g id="line2d_34">
      <g>
       <use xlink:href="#m99aa28e778" x="398.515909" y="144.566364" style="stroke: #000000; stroke-width: 0.8"/>
      </g>
     </g>
     <g id="text_37">
      <!-- 2 -->
      <g transform="translate(385.153409 148.365582) scale(0.1 -0.1)">
       <use xlink:href="#DejaVuSans-32"/>
      </g>
     </g>
    </g>
    <g id="ytick_16">
     <g id="line2d_35">
      <g>
       <use xlink:href="#m99aa28e778" x="398.515909" y="109.952727" style="stroke: #000000; stroke-width: 0.8"/>
      </g>
     </g>
     <g id="text_38">
      <!-- 4 -->
      <g transform="translate(385.153409 113.751946) scale(0.1 -0.1)">
       <use xlink:href="#DejaVuSans-34"/>
      </g>
     </g>
    </g>
    <g id="ytick_17">
     <g id="line2d_36">
      <g>
       <use xlink:href="#m99aa28e778" x="398.515909" y="75.339091" style="stroke: #000000; stroke-width: 0.8"/>
      </g>
     </g>
     <g id="text_39">
      <!-- 6 -->
      <g transform="translate(385.153409 79.13831) scale(0.1 -0.1)">
       <use xlink:href="#DejaVuSans-36"/>
      </g>
     </g>
    </g>
    <g id="ytick_18">
     <g id="line2d_37">
      <g>
       <use xlink:href="#m99aa28e778" x="398.515909" y="40.725455" style="stroke: #000000; stroke-width: 0.8"/>
      </g>
     </g>
     <g id="text_40">
      <!-- 8 -->
      <g transform="translate(385.153409 44.524673) scale(0.1 -0.1)">
       <use xlink:href="#DejaVuSans-38"/>
      </g>
     </g>
    </g>
   </g>
   <g id="line2d_38">
    <path d="M 398.515909 179.18 
L 702.9 179.18 
" clip-path="url(#pa3f1c62654)" style="fill: none; stroke-dasharray: 2.775,1.2; stroke-dashoffset: 0; stroke: #000000; stroke-width: 0.75"/>
   </g>
   <g id="line2d_39">
    <path d="M 398.515909 105.753389 
L 398.613566 105.727932 
L 399.62818 105.453428 
L 400.642793 107.947074 
L 404.193941 117.11319 
L 406.223168 121.85086 
L 408.252395 126.177847 
L 410.281623 130.101899 
L 412.31085 133.646788 
L 414.340077 136.854244 
L 416.369305 139.74637 
L 418.905839 142.993264 
L 421.94968 146.434323 
L 424.99352 149.43013 
L 428.544668 152.439759 
L 431.588509 154.680093 
L 435.139657 156.965197 
L 438.183498 158.689956 
L 441.227339 160.23483 
L 444.778486 161.846013 
L 449.344248 163.6516 
L 454.417316 165.38448 
L 459.490384 166.876004 
L 465.070759 168.293111 
L 471.158441 169.602812 
L 477.75343 170.813799 
L 485.363032 171.979552 
L 491.450714 172.727972 
L 500.07493 173.583286 
L 509.713759 174.29882 
L 519.352589 174.795286 
L 530.513339 175.164319 
L 549.790998 175.527404 
L 572.112498 175.681722 
L 585.809782 175.719139 
L 585.809782 175.719139 
" clip-path="url(#pa3f1c62654)" style="fill: none; stroke: #0000ff; stroke-width: 0.5; stroke-linecap: square"/>
   </g>
   <g id="line2d_40">
    <path d="M 398.515909 152.008295 
L 398.613566 152.054664 
L 399.62818 152.546178 
L 403.179327 156.360157 
L 405.208555 158.045437 
L 407.237782 159.484031 
L 409.774316 161.035431 
L 413.325464 162.86899 
L 416.876611 164.441346 
L 421.442373 166.16691 
L 425.500827 167.508413 
L 431.081202 169.111886 
L 436.661577 170.472893 
L 443.256566 171.838279 
L 450.358861 173.073261 
L 457.968464 174.188472 
L 468.621907 175.497132 
L 477.75343 176.331129 
L 487.899566 177.060431 
L 500.07493 177.71089 
L 514.786827 178.254403 
L 531.020645 178.619485 
L 564.502895 179.019425 
L 585.809782 179.143669 
L 585.809782 179.143669 
" clip-path="url(#pa3f1c62654)" style="fill: none; stroke: #ff0000; stroke-width: 0.5; stroke-linecap: square"/>
   </g>
   <g id="patch_9">
    <path d="M 398.515909 331.48 
L 398.515909 26.88 
" style="fill: none; stroke: #000000; stroke-width: 0.8; stroke-linejoin: miter; stroke-linecap: square"/>
   </g>
   <g id="patch_10">
    <path d="M 702.9 331.48 
L 702.9 26.88 
" style="fill: none; stroke: #000000; stroke-width: 0.8; stroke-linejoin: miter; stroke-linecap: square"/>
   </g>
   <g id="patch_11">
    <path d="M 398.515909 331.48 
L 702.9 331.48 
" style="fill: none; stroke: #000000; stroke-width: 0.8; stroke-linejoin: miter; stroke-linecap: square"/>
   </g>
   <g id="patch_12">
    <path d="M 398.515909 26.88 
L 702.9 26.88 
" style="fill: none; stroke: #000000; stroke-width: 0.8; stroke-linejoin: miter; stroke-linecap: square"/>
   </g>
   <g id="legend_1">
    <g id="patch_13">
     <path d="M 608.4 64.658125 
L 695.9 64.658125 
Q 697.9 64.658125 697.9 62.658125 
L 697.9 33.88 
Q 697.9 31.88 695.9 31.88 
L 608.4 31.88 
Q 606.4 31.88 606.4 33.88 
L 606.4 62.658125 
Q 606.4 64.658125 608.4 64.658125 
z
" style="fill: #ffffff; opacity: 0.8; stroke: #cccccc; stroke-linejoin: miter"/>
    </g>
    <g id="line2d_41">
     <path d="M 610.4 40.08 
L 620.4 40.08 
L 630.4 40.08 
" style="fill: none; stroke: #0000ff; stroke-width: 0.5; stroke-linecap: square"/>
    </g>
    <g id="text_41">
     <!-- $\Vert(x,y)\Vert$ [m] -->
     <g transform="translate(638.4 43.58) scale(0.1 -0.1)">
      <defs>
       <path id="DejaVuSans-2016" d="M 1344 4891 
L 1344 -1509 
L 813 -1509 
L 813 4891 
L 1344 4891 
z
M 2376 4891 
L 2376 -1509 
L 1845 -1509 
L 1845 4891 
L 2376 4891 
z
" transform="scale(0.015625)"/>
       <path id="DejaVuSans-28" d="M 1984 4856 
Q 1566 4138 1362 3434 
Q 1159 2731 1159 2009 
Q 1159 1288 1364 580 
Q 1569 -128 1984 -844 
L 1484 -844 
Q 1016 -109 783 600 
Q 550 1309 550 2009 
Q 550 2706 781 3412 
Q 1013 4119 1484 4856 
L 1984 4856 
z
" transform="scale(0.015625)"/>
       <path id="DejaVuSans-Oblique-78" d="M 3841 3500 
L 2234 1784 
L 3219 0 
L 2559 0 
L 1819 1388 
L 531 0 
L -166 0 
L 1556 1844 
L 641 3500 
L 1300 3500 
L 1972 2234 
L 3144 3500 
L 3841 3500 
z
" transform="scale(0.015625)"/>
       <path id="DejaVuSans-Oblique-79" d="M 1588 -325 
Q 1188 -997 936 -1164 
Q 684 -1331 294 -1331 
L -159 -1331 
L -63 -850 
L 269 -850 
Q 509 -850 678 -719 
Q 847 -588 1056 -206 
L 1234 128 
L 459 3500 
L 1069 3500 
L 1650 819 
L 3256 3500 
L 3859 3500 
L 1588 -325 
z
" transform="scale(0.015625)"/>
       <path id="DejaVuSans-29" d="M 513 4856 
L 1013 4856 
Q 1481 4119 1714 3412 
Q 1947 2706 1947 2009 
Q 1947 1309 1714 600 
Q 1481 -109 1013 -844 
L 513 -844 
Q 928 -128 1133 580 
Q 1338 1288 1338 2009 
Q 1338 2731 1133 3434 
Q 928 4138 513 4856 
z
" transform="scale(0.015625)"/>
      </defs>
      <use xlink:href="#DejaVuSans-2016" transform="translate(0 0.578125)"/>
      <use xlink:href="#DejaVuSans-28" transform="translate(50 0.578125)"/>
      <use xlink:href="#DejaVuSans-Oblique-78" transform="translate(89.013672 0.578125)"/>
      <use xlink:href="#DejaVuSans-2c" transform="translate(148.193359 0.578125)"/>
      <use xlink:href="#DejaVuSans-Oblique-79" transform="translate(199.462891 0.578125)"/>
      <use xlink:href="#DejaVuSans-29" transform="translate(258.642578 0.578125)"/>
      <use xlink:href="#DejaVuSans-2016" transform="translate(297.65625 0.578125)"/>
      <use xlink:href="#DejaVuSans-20" transform="translate(347.65625 0.578125)"/>
      <use xlink:href="#DejaVuSans-5b" transform="translate(379.443359 0.578125)"/>
      <use xlink:href="#DejaVuSans-6d" transform="translate(418.457031 0.578125)"/>
      <use xlink:href="#DejaVuSans-5d" transform="translate(515.869141 0.578125)"/>
     </g>
    </g>
    <g id="line2d_42">
     <path d="M 610.4 55.078438 
L 620.4 55.078438 
L 630.4 55.078438 
" style="fill: none; stroke: #ff0000; stroke-width: 0.5; stroke-linecap: square"/>
    </g>
    <g id="text_42">
     <!-- $\alpha$ [rad] -->
     <g transform="translate(638.4 58.578438) scale(0.1 -0.1)">
      <defs>
       <path id="DejaVuSans-Oblique-3b1" d="M 2619 1628 
L 2622 2350 
Q 2625 3088 2069 3091 
Q 1653 3094 1394 2747 
Q 1069 2319 959 1747 
Q 825 1059 994 731 
Q 1169 397 1547 397 
Q 1966 397 2319 1063 
L 2619 1628 
z
M 2166 3578 
Q 3141 3594 3128 2584 
Q 3128 2584 3616 3500 
L 4128 3500 
L 3119 1603 
L 3109 919 
Q 3109 766 3194 638 
Q 3291 488 3391 488 
L 3669 488 
L 3575 0 
L 3228 0 
Q 2934 0 2722 263 
Q 2622 394 2619 669 
Q 2416 334 2066 50 
Q 1900 -81 1453 -78 
Q 722 -72 456 397 
Q 184 884 353 1747 
Q 534 2675 1009 3097 
Q 1544 3569 2166 3578 
z
" transform="scale(0.015625)"/>
      </defs>
      <use xlink:href="#DejaVuSans-Oblique-3b1" transform="translate(0 0.015625)"/>
      <use xlink:href="#DejaVuSans-20" transform="translate(65.917969 0.015625)"/>
      <use xlink:href="#DejaVuSans-5b" transform="translate(97.705078 0.015625)"/>
      <use xlink:href="#DejaVuSans-72" transform="translate(136.71875 0.015625)"/>
      <use xlink:href="#DejaVuSans-61" transform="translate(177.832031 0.015625)"/>
      <use xlink:href="#DejaVuSans-64" transform="translate(239.111328 0.015625)"/>
      <use xlink:href="#DejaVuSans-5d" transform="translate(302.587891 0.015625)"/>
     </g>
    </g>
   </g>
  </g>
  <g id="axes_3">
   <g id="patch_14">
    <path d="M 55.271818 678.04 
L 359.655909 678.04 
L 359.655909 373.44 
L 55.271818 373.44 
z
" style="fill: #ffffff"/>
   </g>
   <g id="matplotlib.axis_5">
    <g id="xtick_17">
     <g id="line2d_43">
      <g>
       <use xlink:href="#m11efae494b" x="55.271818" y="678.04" style="stroke: #000000; stroke-width: 0.8"/>
      </g>
     </g>
     <g id="text_43">
      <!-- 0 -->
      <g transform="translate(52.090568 692.638438) scale(0.1 -0.1)">
       <use xlink:href="#DejaVuSans-30"/>
      </g>
     </g>
    </g>
    <g id="xtick_18">
     <g id="line2d_44">
      <g>
       <use xlink:href="#m11efae494b" x="106.0025" y="678.04" style="stroke: #000000; stroke-width: 0.8"/>
      </g>
     </g>
     <g id="text_44">
      <!-- 5 -->
      <g transform="translate(102.82125 692.638438) scale(0.1 -0.1)">
       <use xlink:href="#DejaVuSans-35"/>
      </g>
     </g>
    </g>
    <g id="xtick_19">
     <g id="line2d_45">
      <g>
       <use xlink:href="#m11efae494b" x="156.733182" y="678.04" style="stroke: #000000; stroke-width: 0.8"/>
      </g>
     </g>
     <g id="text_45">
      <!-- 10 -->
      <g transform="translate(150.370682 692.638438) scale(0.1 -0.1)">
       <use xlink:href="#DejaVuSans-31"/>
       <use xlink:href="#DejaVuSans-30" x="63.623047"/>
      </g>
     </g>
    </g>
    <g id="xtick_20">
     <g id="line2d_46">
      <g>
       <use xlink:href="#m11efae494b" x="207.463864" y="678.04" style="stroke: #000000; stroke-width: 0.8"/>
      </g>
     </g>
     <g id="text_46">
      <!-- 15 -->
      <g transform="translate(201.101364 692.638438) scale(0.1 -0.1)">
       <use xlink:href="#DejaVuSans-31"/>
       <use xlink:href="#DejaVuSans-35" x="63.623047"/>
      </g>
     </g>
    </g>
    <g id="xtick_21">
     <g id="line2d_47">
      <g>
       <use xlink:href="#m11efae494b" x="258.194545" y="678.04" style="stroke: #000000; stroke-width: 0.8"/>
      </g>
     </g>
     <g id="text_47">
      <!-- 20 -->
      <g transform="translate(251.832045 692.638438) scale(0.1 -0.1)">
       <use xlink:href="#DejaVuSans-32"/>
       <use xlink:href="#DejaVuSans-30" x="63.623047"/>
      </g>
     </g>
    </g>
    <g id="xtick_22">
     <g id="line2d_48">
      <g>
       <use xlink:href="#m11efae494b" x="308.925227" y="678.04" style="stroke: #000000; stroke-width: 0.8"/>
      </g>
     </g>
     <g id="text_48">
      <!-- 25 -->
      <g transform="translate(302.562727 692.638438) scale(0.1 -0.1)">
       <use xlink:href="#DejaVuSans-32"/>
       <use xlink:href="#DejaVuSans-35" x="63.623047"/>
      </g>
     </g>
    </g>
    <g id="xtick_23">
     <g id="line2d_49">
      <g>
       <use xlink:href="#m11efae494b" x="359.655909" y="678.04" style="stroke: #000000; stroke-width: 0.8"/>
      </g>
     </g>
     <g id="text_49">
      <!-- 30 -->
      <g transform="translate(353.293409 692.638438) scale(0.1 -0.1)">
       <use xlink:href="#DejaVuSans-33"/>
       <use xlink:href="#DejaVuSans-30" x="63.623047"/>
      </g>
     </g>
    </g>
    <g id="text_50">
     <!-- t [s] -->
     <g transform="translate(197.408395 706.316563) scale(0.1 -0.1)">
      <use xlink:href="#DejaVuSans-74"/>
      <use xlink:href="#DejaVuSans-20" x="39.208984"/>
      <use xlink:href="#DejaVuSans-5b" x="70.996094"/>
      <use xlink:href="#DejaVuSans-73" x="110.009766"/>
      <use xlink:href="#DejaVuSans-5d" x="162.109375"/>
     </g>
    </g>
   </g>
   <g id="matplotlib.axis_6">
    <g id="ytick_19">
     <g id="line2d_50">
      <g>
       <use xlink:href="#m99aa28e778" x="55.271818" y="678.04" style="stroke: #000000; stroke-width: 0.8"/>
      </g>
     </g>
     <g id="text_51">
      <!-- $\mathdefault{0}$ -->
      <g transform="translate(41.871818 681.839219) scale(0.1 -0.1)">
       <use xlink:href="#DejaVuSans-30" transform="translate(0 0.78125)"/>
      </g>
     </g>
    </g>
    <g id="ytick_20">
     <g id="line2d_51">
      <g>
       <use xlink:href="#m99aa28e778" x="55.271818" y="654.444091" style="stroke: #000000; stroke-width: 0.8"/>
      </g>
     </g>
     <g id="text_52">
      <!-- $\mathdefault{10^{0}}$ -->
      <g transform="translate(30.671818 658.24331) scale(0.1 -0.1)">
       <use xlink:href="#DejaVuSans-31" transform="translate(0 0.765625)"/>
       <use xlink:href="#DejaVuSans-30" transform="translate(63.623047 0.765625)"/>
       <use xlink:href="#DejaVuSans-30" transform="translate(128.203125 39.046875) scale(0.7)"/>
      </g>
     </g>
    </g>
    <g id="ytick_21">
     <g id="line2d_52">
      <g>
       <use xlink:href="#m99aa28e778" x="55.271818" y="601.161084" style="stroke: #000000; stroke-width: 0.8"/>
      </g>
     </g>
     <g id="text_53">
      <!-- $\mathdefault{10^{1}}$ -->
      <g transform="translate(30.671818 604.960302) scale(0.1 -0.1)">
       <use xlink:href="#DejaVuSans-31" transform="translate(0 0.684375)"/>
       <use xlink:href="#DejaVuSans-30" transform="translate(63.623047 0.684375)"/>
       <use xlink:href="#DejaVuSans-31" transform="translate(128.203125 38.965625) scale(0.7)"/>
      </g>
     </g>
    </g>
    <g id="ytick_22">
     <g id="line2d_53">
      <g>
       <use xlink:href="#m99aa28e778" x="55.271818" y="558.688448" style="stroke: #000000; stroke-width: 0.8"/>
      </g>
     </g>
     <g id="text_54">
      <!-- $\mathdefault{10^{2}}$ -->
      <g transform="translate(30.671818 562.487667) scale(0.1 -0.1)">
       <use xlink:href="#DejaVuSans-31" transform="translate(0 0.765625)"/>
       <use xlink:href="#DejaVuSans-30" transform="translate(63.623047 0.765625)"/>
       <use xlink:href="#DejaVuSans-32" transform="translate(128.203125 39.046875) scale(0.7)"/>
      </g>
     </g>
    </g>
    <g id="ytick_23">
     <g id="line2d_54">
      <g>
       <use xlink:href="#m99aa28e778" x="55.271818" y="516.215812" style="stroke: #000000; stroke-width: 0.8"/>
      </g>
     </g>
     <g id="text_55">
      <!-- $\mathdefault{10^{3}}$ -->
      <g transform="translate(30.671818 520.015031) scale(0.1 -0.1)">
       <use xlink:href="#DejaVuSans-31" transform="translate(0 0.765625)"/>
       <use xlink:href="#DejaVuSans-30" transform="translate(63.623047 0.765625)"/>
       <use xlink:href="#DejaVuSans-33" transform="translate(128.203125 39.046875) scale(0.7)"/>
      </g>
     </g>
    </g>
    <g id="ytick_24">
     <g id="line2d_55">
      <g>
       <use xlink:href="#m99aa28e778" x="55.271818" y="473.743176" style="stroke: #000000; stroke-width: 0.8"/>
      </g>
     </g>
     <g id="text_56">
      <!-- $\mathdefault{10^{4}}$ -->
      <g transform="translate(30.671818 477.542395) scale(0.1 -0.1)">
       <use xlink:href="#DejaVuSans-31" transform="translate(0 0.684375)"/>
       <use xlink:href="#DejaVuSans-30" transform="translate(63.623047 0.684375)"/>
       <use xlink:href="#DejaVuSans-34" transform="translate(128.203125 38.965625) scale(0.7)"/>
      </g>
     </g>
    </g>
    <g id="ytick_25">
     <g id="line2d_56">
      <g>
       <use xlink:href="#m99aa28e778" x="55.271818" y="431.27054" style="stroke: #000000; stroke-width: 0.8"/>
      </g>
     </g>
     <g id="text_57">
      <!-- $\mathdefault{10^{5}}$ -->
      <g transform="translate(30.671818 435.069759) scale(0.1 -0.1)">
       <use xlink:href="#DejaVuSans-31" transform="translate(0 0.684375)"/>
       <use xlink:href="#DejaVuSans-30" transform="translate(63.623047 0.684375)"/>
       <use xlink:href="#DejaVuSans-35" transform="translate(128.203125 38.965625) scale(0.7)"/>
      </g>
     </g>
    </g>
    <g id="ytick_26">
     <g id="line2d_57">
      <g>
       <use xlink:href="#m99aa28e778" x="55.271818" y="388.797904" style="stroke: #000000; stroke-width: 0.8"/>
      </g>
     </g>
     <g id="text_58">
      <!-- $\mathdefault{10^{6}}$ -->
      <g transform="translate(30.671818 392.597123) scale(0.1 -0.1)">
       <use xlink:href="#DejaVuSans-31" transform="translate(0 0.765625)"/>
       <use xlink:href="#DejaVuSans-30" transform="translate(63.623047 0.765625)"/>
       <use xlink:href="#DejaVuSans-36" transform="translate(128.203125 39.046875) scale(0.7)"/>
      </g>
     </g>
    </g>
   </g>
   <g id="line2d_58">
    <path d="M 55.271818 543.330544 
L 55.369475 543.042388 
L 55.876782 542.944861 
L 56.384089 536.668814 
L 57.398702 538.025133 
L 57.906009 539.237188 
L 58.920623 540.700744 
L 59.42793 542.449789 
L 59.935236 543.182356 
L 60.442543 544.611516 
L 60.94985 545.337937 
L 61.457157 546.75198 
L 61.964464 547.472065 
L 62.47177 548.888558 
L 62.979077 549.60065 
L 63.486384 551.011285 
L 63.993691 551.714116 
L 64.500998 553.111025 
L 65.008305 553.803725 
L 65.515611 555.184309 
L 66.022918 555.866224 
L 66.530225 557.228343 
L 67.037532 557.898995 
L 67.544839 559.2503 
L 68.052145 559.908802 
L 68.559452 561.225021 
L 69.066759 561.872192 
L 69.574066 563.148064 
L 70.081373 563.783714 
L 70.58868 565.070966 
L 71.095986 565.694249 
L 71.603293 566.945422 
L 72.1106 567.556385 
L 72.617907 568.812674 
L 73.125214 569.409975 
L 73.63252 570.573955 
L 74.139827 571.160624 
L 74.647134 572.263927 
L 75.154441 572.840224 
L 75.661748 574.064553 
L 76.676361 575.188821 
L 77.183668 576.58114 
L 78.198282 577.672004 
L 78.705589 579.043001 
L 79.720202 580.099892 
L 80.227509 581.361898 
L 81.242123 582.388134 
L 81.74943 583.737911 
L 82.764043 584.729889 
L 83.27135 585.866295 
L 84.285964 586.829409 
L 84.79327 588.077231 
L 85.807884 589.009915 
L 86.315191 590.200979 
L 87.329805 591.103421 
L 87.837111 592.186242 
L 88.851725 593.060696 
L 89.359032 594.142889 
L 90.373645 594.992412 
L 90.880952 595.983185 
L 91.895566 596.807393 
L 92.402873 597.860174 
L 93.417486 598.660246 
L 93.924793 599.526058 
L 94.939407 600.303829 
L 95.446714 601.280904 
L 96.461327 602.037214 
L 96.968634 602.893263 
L 97.983248 603.628563 
L 98.490555 604.473905 
L 99.505168 605.189268 
L 100.012475 606.005597 
L 101.027089 606.701839 
L 101.534395 607.489295 
L 102.549009 608.167287 
L 103.056316 608.947471 
L 104.07093 609.608185 
L 104.578236 610.4703 
L 105.59285 611.112675 
L 106.100157 611.702377 
L 107.11477 612.330074 
L 107.622077 613.004613 
L 108.636691 613.616896 
L 109.143998 614.302026 
L 110.158611 614.900171 
L 110.665918 615.597444 
L 111.680532 616.179871 
L 112.187839 616.819214 
L 113.202452 617.387325 
L 113.709759 618.009384 
L 114.724373 618.563563 
L 115.23168 619.171182 
L 117.768214 620.573512 
L 118.27552 621.160862 
L 119.290134 621.675908 
L 119.797441 622.309555 
L 120.812055 622.812987 
L 121.319361 623.486274 
L 122.333975 623.97774 
L 122.841282 624.769834 
L 125.377816 625.948613 
L 125.885123 626.433616 
L 126.899736 626.89023 
L 127.407043 627.377541 
L 128.421657 627.821853 
L 128.928964 628.274764 
L 129.943577 628.706857 
L 130.450884 629.167225 
L 131.465498 629.586853 
L 131.972805 630.032833 
L 132.987418 630.440013 
L 134.509339 631.905382 
L 135.016645 632.939725 
L 136.031259 633.864544 
L 136.538566 634.838808 
L 137.045873 635.272141 
L 137.55318 636.016241 
L 138.060486 636.428222 
L 138.567793 637.133032 
L 139.0751 637.525202 
L 139.582407 637.406616 
L 140.089714 637.803911 
L 140.59702 638.654224 
L 141.104327 639.028653 
L 141.611634 639.835089 
L 142.118941 640.187877 
L 142.626248 641.043387 
L 143.133555 641.370525 
L 143.640861 642.174547 
L 144.148168 642.476885 
L 144.655475 643.003856 
L 145.162782 643.290126 
L 145.670089 643.756066 
L 146.177395 644.02934 
L 146.684702 644.49793 
L 147.192009 644.758641 
L 147.699316 645.208213 
L 148.206623 645.456833 
L 148.71393 645.884993 
L 149.221236 646.122071 
L 149.728543 646.529884 
L 150.23585 646.755953 
L 150.743157 647.432852 
L 151.250464 647.63795 
L 151.75777 647.629322 
L 153.279691 648.245494 
L 153.786998 648.675948 
L 155.308918 649.174024 
L 155.816225 649.780727 
L 157.338145 650.385166 
L 158.352759 650.823463 
L 159.367373 651.241863 
L 160.381986 651.640753 
L 161.903907 652.255363 
L 163.425827 652.729987 
L 164.947748 653.261159 
L 166.469668 653.669829 
L 167.991589 654.126126 
L 169.513509 654.477436 
L 170.528123 654.720153 
L 171.03543 655.062372 
L 179.659645 656.438567 
L 180.674259 656.61812 
L 181.688873 656.741282 
L 182.19618 657.033556 
L 190.820395 657.741024 
L 191.835009 657.705795 
L 195.386157 658.013083 
L 214.663816 658.941392 
L 232.419555 659.253619 
L 233.434168 659.158713 
L 238.507236 659.305249 
L 242.565691 659.349157 
L 242.565691 659.349157 
" clip-path="url(#paf436e4cfc)" style="fill: none; stroke: #ff0000; stroke-width: 0.5; stroke-linecap: square"/>
   </g>
   <g id="line2d_59">
    <path d="M 55.271818 678.04 
L 55.369475 565.262081 
L 56.891395 550.208347 
L 57.906009 544.336433 
L 58.920623 540.242346 
L 59.935236 537.283553 
L 60.94985 534.999251 
L 61.964464 533.17868 
L 63.486384 531.059392 
L 65.008305 529.435443 
L 66.530225 528.173914 
L 68.052145 527.16175 
L 70.081373 526.105144 
L 72.617907 525.114857 
L 75.154441 524.372157 
L 78.705589 523.612796 
L 82.764043 523.005754 
L 87.837111 522.491219 
L 94.4321 522.056041 
L 103.563623 521.686146 
L 117.260907 521.373537 
L 138.567793 521.124873 
L 181.181566 520.886974 
L 242.565691 520.651676 
L 242.565691 520.651676 
" clip-path="url(#paf436e4cfc)" style="fill: none; stroke: #008000; stroke-width: 0.5; stroke-linecap: square"/>
   </g>
   <g id="patch_15">
    <path d="M 55.271818 678.04 
L 55.271818 373.44 
" style="fill: none; stroke: #000000; stroke-width: 0.8; stroke-linejoin: miter; stroke-linecap: square"/>
   </g>
   <g id="patch_16">
    <path d="M 359.655909 678.04 
L 359.655909 373.44 
" style="fill: none; stroke: #000000; stroke-width: 0.8; stroke-linejoin: miter; stroke-linecap: square"/>
   </g>
   <g id="patch_17">
    <path d="M 55.271818 678.04 
L 359.655909 678.04 
" style="fill: none; stroke: #000000; stroke-width: 0.8; stroke-linejoin: miter; stroke-linecap: square"/>
   </g>
   <g id="patch_18">
    <path d="M 55.271818 373.44 
L 359.655909 373.44 
" style="fill: none; stroke: #000000; stroke-width: 0.8; stroke-linejoin: miter; stroke-linecap: square"/>
   </g>
   <g id="legend_2">
    <g id="patch_19">
     <path d="M 254.555909 415.018125 
L 352.655909 415.018125 
Q 354.655909 415.018125 354.655909 413.018125 
L 354.655909 380.44 
Q 354.655909 378.44 352.655909 378.44 
L 254.555909 378.44 
Q 252.555909 378.44 252.555909 380.44 
L 252.555909 413.018125 
Q 252.555909 415.018125 254.555909 415.018125 
z
" style="fill: #ffffff; opacity: 0.8; stroke: #cccccc; stroke-linejoin: miter"/>
    </g>
    <g id="line2d_60">
     <path d="M 256.555909 386.538438 
L 266.555909 386.538438 
L 276.555909 386.538438 
" style="fill: none; stroke: #ff0000; stroke-width: 0.5; stroke-linecap: square"/>
    </g>
    <g id="text_59">
     <!-- Run. obj. -->
     <g transform="translate(284.555909 390.038438) scale(0.1 -0.1)">
      <defs>
       <path id="DejaVuSans-52" d="M 2841 2188 
Q 3044 2119 3236 1894 
Q 3428 1669 3622 1275 
L 4263 0 
L 3584 0 
L 2988 1197 
Q 2756 1666 2539 1819 
Q 2322 1972 1947 1972 
L 1259 1972 
L 1259 0 
L 628 0 
L 628 4666 
L 2053 4666 
Q 2853 4666 3247 4331 
Q 3641 3997 3641 3322 
Q 3641 2881 3436 2590 
Q 3231 2300 2841 2188 
z
M 1259 4147 
L 1259 2491 
L 2053 2491 
Q 2509 2491 2742 2702 
Q 2975 2913 2975 3322 
Q 2975 3731 2742 3939 
Q 2509 4147 2053 4147 
L 1259 4147 
z
" transform="scale(0.015625)"/>
       <path id="DejaVuSans-6e" d="M 3513 2113 
L 3513 0 
L 2938 0 
L 2938 2094 
Q 2938 2591 2744 2837 
Q 2550 3084 2163 3084 
Q 1697 3084 1428 2787 
Q 1159 2491 1159 1978 
L 1159 0 
L 581 0 
L 581 3500 
L 1159 3500 
L 1159 2956 
Q 1366 3272 1645 3428 
Q 1925 3584 2291 3584 
Q 2894 3584 3203 3211 
Q 3513 2838 3513 2113 
z
" transform="scale(0.015625)"/>
       <path id="DejaVuSans-62" d="M 3116 1747 
Q 3116 2381 2855 2742 
Q 2594 3103 2138 3103 
Q 1681 3103 1420 2742 
Q 1159 2381 1159 1747 
Q 1159 1113 1420 752 
Q 1681 391 2138 391 
Q 2594 391 2855 752 
Q 3116 1113 3116 1747 
z
M 1159 2969 
Q 1341 3281 1617 3432 
Q 1894 3584 2278 3584 
Q 2916 3584 3314 3078 
Q 3713 2572 3713 1747 
Q 3713 922 3314 415 
Q 2916 -91 2278 -91 
Q 1894 -91 1617 61 
Q 1341 213 1159 525 
L 1159 0 
L 581 0 
L 581 4863 
L 1159 4863 
L 1159 2969 
z
" transform="scale(0.015625)"/>
       <path id="DejaVuSans-6a" d="M 603 3500 
L 1178 3500 
L 1178 -63 
Q 1178 -731 923 -1031 
Q 669 -1331 103 -1331 
L -116 -1331 
L -116 -844 
L 38 -844 
Q 366 -844 484 -692 
Q 603 -541 603 -63 
L 603 3500 
z
M 603 4863 
L 1178 4863 
L 1178 4134 
L 603 4134 
L 603 4863 
z
" transform="scale(0.015625)"/>
      </defs>
      <use xlink:href="#DejaVuSans-52"/>
      <use xlink:href="#DejaVuSans-75" x="64.982422"/>
      <use xlink:href="#DejaVuSans-6e" x="128.361328"/>
      <use xlink:href="#DejaVuSans-2e" x="191.740234"/>
      <use xlink:href="#DejaVuSans-20" x="223.527344"/>
      <use xlink:href="#DejaVuSans-6f" x="255.314453"/>
      <use xlink:href="#DejaVuSans-62" x="316.496094"/>
      <use xlink:href="#DejaVuSans-6a" x="379.972656"/>
      <use xlink:href="#DejaVuSans-2e" x="407.755859"/>
     </g>
    </g>
    <g id="line2d_61">
     <path d="M 256.555909 404.418125 
L 266.555909 404.418125 
L 276.555909 404.418125 
" style="fill: none; stroke: #008000; stroke-width: 0.5; stroke-linecap: square"/>
    </g>
    <g id="text_60">
     <!-- $\int \mathrm{Run.\,obj.} \,\mathrm{d}t$ -->
     <g transform="translate(284.555909 407.918125) scale(0.1 -0.1)">
      <defs>
       <path id="DejaVuSansDisplay-222b" d="M 2134 5525 
Q 2172 6263 2528 6556 
Q 2884 6850 3218 6850 
Q 3553 6850 3833 6575 
Q 4113 6300 4200 5678 
L 3544 5613 
Q 3469 6188 3219 6188 
Q 2906 6188 2869 5413 
L 2581 -597 
Q 2547 -1334 2187 -1628 
Q 1828 -1922 1497 -1922 
Q 1163 -1922 883 -1647 
Q 603 -1372 516 -750 
L 1172 -684 
Q 1247 -1259 1497 -1259 
Q 1809 -1259 1847 -488 
L 2134 5525 
z
" transform="scale(0.015625)"/>
       <path id="DejaVuSans-Oblique-74" d="M 2706 3500 
L 2619 3053 
L 1472 3053 
L 1100 1153 
Q 1081 1047 1072 975 
Q 1063 903 1063 863 
Q 1063 663 1183 572 
Q 1303 481 1569 481 
L 2150 481 
L 2053 0 
L 1503 0 
Q 991 0 739 200 
Q 488 400 488 806 
Q 488 878 497 964 
Q 506 1050 525 1153 
L 897 3053 
L 409 3053 
L 500 3500 
L 978 3500 
L 1172 4494 
L 1747 4494 
L 1556 3500 
L 2706 3500 
z
" transform="scale(0.015625)"/>
      </defs>
      <use xlink:href="#DejaVuSansDisplay-222b" transform="translate(0 0.96875)"/>
      <use xlink:href="#DejaVuSans-52" transform="translate(73.632812 0.96875)"/>
      <use xlink:href="#DejaVuSans-75" transform="translate(143.115234 0.96875)"/>
      <use xlink:href="#DejaVuSans-6e" transform="translate(206.494141 0.96875)"/>
      <use xlink:href="#DejaVuSans-2e" transform="translate(269.873047 0.96875)"/>
      <use xlink:href="#DejaVuSans-6f" transform="translate(337.378254 0.96875)"/>
      <use xlink:href="#DejaVuSans-62" transform="translate(398.559895 0.96875)"/>
      <use xlink:href="#DejaVuSans-6a" transform="translate(462.036458 0.96875)"/>
      <use xlink:href="#DejaVuSans-2e" transform="translate(489.819661 0.96875)"/>
      <use xlink:href="#DejaVuSans-64" transform="translate(557.324868 0.96875)"/>
      <use xlink:href="#DejaVuSans-Oblique-74" transform="translate(620.801431 0.96875)"/>
     </g>
    </g>
   </g>
  </g>
  <g id="axes_4">
   <g id="patch_20">
    <path d="M 398.515909 678.04 
L 702.9 678.04 
L 702.9 373.44 
L 398.515909 373.44 
z
" style="fill: #ffffff"/>
   </g>
   <g id="matplotlib.axis_7">
    <g id="xtick_24">
     <g id="line2d_62">
      <g>
       <use xlink:href="#m11efae494b" x="398.515909" y="678.04" style="stroke: #000000; stroke-width: 0.8"/>
      </g>
     </g>
     <g id="text_61">
      <!-- 0 -->
      <g transform="translate(395.334659 692.638438) scale(0.1 -0.1)">
       <use xlink:href="#DejaVuSans-30"/>
      </g>
     </g>
    </g>
    <g id="xtick_25">
     <g id="line2d_63">
      <g>
       <use xlink:href="#m11efae494b" x="449.246591" y="678.04" style="stroke: #000000; stroke-width: 0.8"/>
      </g>
     </g>
     <g id="text_62">
      <!-- 5 -->
      <g transform="translate(446.065341 692.638438) scale(0.1 -0.1)">
       <use xlink:href="#DejaVuSans-35"/>
      </g>
     </g>
    </g>
    <g id="xtick_26">
     <g id="line2d_64">
      <g>
       <use xlink:href="#m11efae494b" x="499.977273" y="678.04" style="stroke: #000000; stroke-width: 0.8"/>
      </g>
     </g>
     <g id="text_63">
      <!-- 10 -->
      <g transform="translate(493.614773 692.638438) scale(0.1 -0.1)">
       <use xlink:href="#DejaVuSans-31"/>
       <use xlink:href="#DejaVuSans-30" x="63.623047"/>
      </g>
     </g>
    </g>
    <g id="xtick_27">
     <g id="line2d_65">
      <g>
       <use xlink:href="#m11efae494b" x="550.707955" y="678.04" style="stroke: #000000; stroke-width: 0.8"/>
      </g>
     </g>
     <g id="text_64">
      <!-- 15 -->
      <g transform="translate(544.345455 692.638438) scale(0.1 -0.1)">
       <use xlink:href="#DejaVuSans-31"/>
       <use xlink:href="#DejaVuSans-35" x="63.623047"/>
      </g>
     </g>
    </g>
    <g id="xtick_28">
     <g id="line2d_66">
      <g>
       <use xlink:href="#m11efae494b" x="601.438636" y="678.04" style="stroke: #000000; stroke-width: 0.8"/>
      </g>
     </g>
     <g id="text_65">
      <!-- 20 -->
      <g transform="translate(595.076136 692.638438) scale(0.1 -0.1)">
       <use xlink:href="#DejaVuSans-32"/>
       <use xlink:href="#DejaVuSans-30" x="63.623047"/>
      </g>
     </g>
    </g>
    <g id="xtick_29">
     <g id="line2d_67">
      <g>
       <use xlink:href="#m11efae494b" x="652.169318" y="678.04" style="stroke: #000000; stroke-width: 0.8"/>
      </g>
     </g>
     <g id="text_66">
      <!-- 25 -->
      <g transform="translate(645.806818 692.638438) scale(0.1 -0.1)">
       <use xlink:href="#DejaVuSans-32"/>
       <use xlink:href="#DejaVuSans-35" x="63.623047"/>
      </g>
     </g>
    </g>
    <g id="xtick_30">
     <g id="line2d_68">
      <g>
       <use xlink:href="#m11efae494b" x="702.9" y="678.04" style="stroke: #000000; stroke-width: 0.8"/>
      </g>
     </g>
     <g id="text_67">
      <!-- 30 -->
      <g transform="translate(696.5375 692.638438) scale(0.1 -0.1)">
       <use xlink:href="#DejaVuSans-33"/>
       <use xlink:href="#DejaVuSans-30" x="63.623047"/>
      </g>
     </g>
    </g>
    <g id="text_68">
     <!-- t [s] -->
     <g transform="translate(540.652486 706.316563) scale(0.1 -0.1)">
      <use xlink:href="#DejaVuSans-74"/>
      <use xlink:href="#DejaVuSans-20" x="39.208984"/>
      <use xlink:href="#DejaVuSans-5b" x="70.996094"/>
      <use xlink:href="#DejaVuSans-73" x="110.009766"/>
      <use xlink:href="#DejaVuSans-5d" x="162.109375"/>
     </g>
    </g>
   </g>
   <g id="matplotlib.axis_8">
    <g id="ytick_27">
     <g id="line2d_69">
      <g>
       <use xlink:href="#m99aa28e778" x="398.515909" y="671.994802" style="stroke: #000000; stroke-width: 0.8"/>
      </g>
     </g>
     <g id="text_69">
      <!-- −3 -->
      <g transform="translate(376.773722 675.79402) scale(0.1 -0.1)">
       <use xlink:href="#DejaVuSans-2212"/>
       <use xlink:href="#DejaVuSans-33" x="83.789062"/>
      </g>
     </g>
    </g>
    <g id="ytick_28">
     <g id="line2d_70">
      <g>
       <use xlink:href="#m99aa28e778" x="398.515909" y="623.243201" style="stroke: #000000; stroke-width: 0.8"/>
      </g>
     </g>
     <g id="text_70">
      <!-- −2 -->
      <g transform="translate(376.773722 627.04242) scale(0.1 -0.1)">
       <use xlink:href="#DejaVuSans-2212"/>
       <use xlink:href="#DejaVuSans-32" x="83.789062"/>
      </g>
     </g>
    </g>
    <g id="ytick_29">
     <g id="line2d_71">
      <g>
       <use xlink:href="#m99aa28e778" x="398.515909" y="574.491601" style="stroke: #000000; stroke-width: 0.8"/>
      </g>
     </g>
     <g id="text_71">
      <!-- −1 -->
      <g transform="translate(376.773722 578.290819) scale(0.1 -0.1)">
       <use xlink:href="#DejaVuSans-2212"/>
       <use xlink:href="#DejaVuSans-31" x="83.789062"/>
      </g>
     </g>
    </g>
    <g id="ytick_30">
     <g id="line2d_72">
      <g>
       <use xlink:href="#m99aa28e778" x="398.515909" y="525.74" style="stroke: #000000; stroke-width: 0.8"/>
      </g>
     </g>
     <g id="text_72">
      <!-- 0 -->
      <g transform="translate(385.153409 529.539219) scale(0.1 -0.1)">
       <use xlink:href="#DejaVuSans-30"/>
      </g>
     </g>
    </g>
    <g id="ytick_31">
     <g id="line2d_73">
      <g>
       <use xlink:href="#m99aa28e778" x="398.515909" y="476.988399" style="stroke: #000000; stroke-width: 0.8"/>
      </g>
     </g>
     <g id="text_73">
      <!-- 1 -->
      <g transform="translate(385.153409 480.787618) scale(0.1 -0.1)">
       <use xlink:href="#DejaVuSans-31"/>
      </g>
     </g>
    </g>
    <g id="ytick_32">
     <g id="line2d_74">
      <g>
       <use xlink:href="#m99aa28e778" x="398.515909" y="428.236799" style="stroke: #000000; stroke-width: 0.8"/>
      </g>
     </g>
     <g id="text_74">
      <!-- 2 -->
      <g transform="translate(385.153409 432.036018) scale(0.1 -0.1)">
       <use xlink:href="#DejaVuSans-32"/>
      </g>
     </g>
    </g>
    <g id="ytick_33">
     <g id="line2d_75">
      <g>
       <use xlink:href="#m99aa28e778" x="398.515909" y="379.485198" style="stroke: #000000; stroke-width: 0.8"/>
      </g>
     </g>
     <g id="text_75">
      <!-- 3 -->
      <g transform="translate(385.153409 383.284417) scale(0.1 -0.1)">
       <use xlink:href="#DejaVuSans-33"/>
      </g>
     </g>
    </g>
   </g>
   <g id="line2d_76">
    <path d="M 398.515909 525.74 
L 702.9 525.74 
" clip-path="url(#pe2f9303e83)" style="fill: none; stroke-dasharray: 2.775,1.2; stroke-dashoffset: 0; stroke: #000000; stroke-width: 0.75"/>
   </g>
   <g id="line2d_77">
    <path d="M 398.515909 525.74 
L 398.613566 536.465352 
L 399.120873 536.465352 
L 399.62818 426.412599 
L 400.642793 426.412599 
L 401.1501 429.204331 
L 402.164714 429.204331 
L 402.67202 436.080254 
L 403.179327 436.080254 
L 403.686634 440.778646 
L 404.193941 440.778646 
L 404.701248 445.232879 
L 405.208555 445.232879 
L 405.715861 449.579423 
L 406.223168 449.579423 
L 406.730475 453.752746 
L 407.237782 453.752746 
L 407.745089 457.710786 
L 408.252395 457.710786 
L 408.759702 461.454046 
L 409.267009 461.454046 
L 409.774316 464.98307 
L 410.281623 464.98307 
L 410.78893 468.396952 
L 411.296236 468.396952 
L 411.803543 471.431216 
L 412.31085 471.431216 
L 412.818157 474.251778 
L 413.325464 474.251778 
L 413.83277 477.073959 
L 414.340077 477.073959 
L 414.847384 479.659664 
L 415.354691 479.659664 
L 415.861998 482.29899 
L 416.369305 482.29899 
L 416.876611 484.303031 
L 417.383918 484.303031 
L 417.891225 486.14104 
L 418.398532 486.14104 
L 418.905839 488.369319 
L 419.920452 488.369319 
L 420.427759 491.051556 
L 421.442373 491.051556 
L 421.94968 493.541623 
L 422.964293 493.541623 
L 423.4716 495.61214 
L 424.486214 495.61214 
L 424.99352 497.86163 
L 426.008134 497.86163 
L 426.515441 499.521969 
L 427.530055 499.521969 
L 428.037361 501.327556 
L 429.051975 501.327556 
L 429.559282 502.977811 
L 430.573895 502.977811 
L 431.081202 504.389063 
L 432.095816 504.389063 
L 432.603123 505.652081 
L 433.617736 505.652081 
L 434.125043 506.81953 
L 435.139657 506.81953 
L 435.646964 507.957127 
L 436.661577 507.957127 
L 437.168884 508.874069 
L 438.183498 508.874069 
L 438.690805 509.818336 
L 439.705418 509.818336 
L 440.212725 510.645887 
L 441.227339 510.645887 
L 441.734645 511.420862 
L 442.749259 511.420862 
L 443.256566 512.138401 
L 444.27118 512.138401 
L 444.778486 512.801594 
L 445.7931 512.801594 
L 446.300407 513.417967 
L 447.31502 513.417967 
L 447.822327 514.072596 
L 448.836941 514.072596 
L 449.344248 514.512582 
L 450.358861 514.512582 
L 450.866168 515.009046 
L 451.880782 515.009046 
L 452.388089 515.453843 
L 453.402702 515.453843 
L 453.910009 515.931545 
L 454.924623 515.931545 
L 455.43193 516.341198 
L 456.446543 516.341198 
L 456.95385 516.728821 
L 457.968464 516.728821 
L 458.47577 517.101495 
L 459.490384 517.101495 
L 459.997691 517.421702 
L 461.012305 517.421702 
L 461.519611 517.739091 
L 462.534225 517.739091 
L 463.041532 518.049963 
L 464.056145 518.049963 
L 464.563452 518.353033 
L 465.578066 518.353033 
L 466.085373 518.900377 
L 468.621907 518.873638 
L 469.129214 519.099171 
L 470.143827 519.099171 
L 470.651134 519.342341 
L 471.665748 519.342341 
L 472.173055 519.571497 
L 473.187668 519.571497 
L 473.694975 519.799326 
L 474.709589 519.799326 
L 475.216895 520.017075 
L 476.231509 520.017075 
L 476.738816 520.227846 
L 477.75343 520.227846 
L 478.260736 520.431776 
L 479.27535 520.431776 
L 479.782657 520.601779 
L 480.289964 520.601779 
L 480.79727 520.722995 
L 481.304577 520.722995 
L 481.811884 520.840637 
L 482.319191 520.840637 
L 482.826498 520.602609 
L 483.333805 520.602609 
L 483.841111 520.813192 
L 484.348418 520.813192 
L 484.855725 520.955301 
L 485.363032 520.955301 
L 485.870339 521.200894 
L 486.377645 521.200894 
L 486.884952 521.447773 
L 487.392259 521.447773 
L 487.899566 521.569813 
L 489.421486 521.660242 
L 490.943407 521.840929 
L 492.465327 521.929065 
L 493.479941 522.015261 
L 493.987248 522.312584 
L 494.494555 522.312584 
L 495.001861 522.122282 
L 496.523782 522.138163 
L 497.031089 522.256273 
L 497.538395 522.256273 
L 498.045702 522.111439 
L 498.553009 522.111439 
L 499.060316 522.454078 
L 500.582236 522.512623 
L 502.104157 522.662427 
L 503.626077 522.7347 
L 505.147998 522.874319 
L 506.669918 522.942047 
L 508.191839 523.072355 
L 509.713759 523.13473 
L 511.23568 523.253167 
L 513.772214 523.362604 
L 514.27952 523.624244 
L 519.859895 523.718517 
L 524.932964 523.962339 
L 525.44027 524.226283 
L 530.006032 524.331878 
L 534.064486 524.393196 
L 534.571793 524.247639 
L 538.122941 524.354658 
L 541.674089 524.489079 
L 545.225236 524.581919 
L 548.776384 524.695902 
L 553.342145 524.799594 
L 557.907907 524.916217 
L 563.488282 525.020098 
L 571.097884 525.205862 
L 575.663645 525.251955 
L 576.170952 525.069881 
L 579.7221 525.169408 
L 583.273248 525.341511 
L 585.809782 525.367595 
L 585.809782 525.367595 
" clip-path="url(#pe2f9303e83)" style="fill: none; stroke: #1f77b4; stroke-width: 0.5; stroke-linecap: square"/>
   </g>
   <g id="line2d_78">
    <path d="M 398.515909 525.74 
L 398.613566 539.585455 
L 399.120873 539.585455 
L 399.62818 559.370391 
L 400.642793 559.370391 
L 401.1501 555.510588 
L 402.164714 555.510588 
L 402.67202 551.494587 
L 403.179327 551.494587 
L 403.686634 549.298072 
L 404.193941 549.298072 
L 404.701248 547.445548 
L 405.208555 547.445548 
L 405.715861 545.88225 
L 406.223168 545.88225 
L 406.730475 544.531969 
L 407.237782 544.531969 
L 407.745089 543.355402 
L 408.252395 543.355402 
L 408.759702 542.329656 
L 409.267009 542.329656 
L 409.774316 541.425585 
L 410.281623 541.425585 
L 410.78893 540.732158 
L 411.296236 540.732158 
L 411.803543 539.840795 
L 412.31085 539.840795 
L 412.818157 539.196458 
L 413.325464 539.196458 
L 413.83277 538.664877 
L 414.340077 538.664877 
L 414.847384 538.155967 
L 415.354691 538.155967 
L 415.861998 537.903711 
L 416.369305 537.903711 
L 416.876611 537.17794 
L 417.383918 537.17794 
L 417.891225 536.773792 
L 418.398532 536.773792 
L 418.905839 536.345822 
L 419.920452 536.345822 
L 420.427759 535.874522 
L 421.442373 535.874522 
L 421.94968 535.386341 
L 422.964293 535.386341 
L 423.4716 534.943955 
L 424.486214 534.943955 
L 424.99352 534.507591 
L 426.008134 534.507591 
L 426.515441 534.245678 
L 427.530055 534.245678 
L 428.037361 533.788634 
L 429.051975 533.788634 
L 429.559282 533.419748 
L 430.573895 533.419748 
L 431.081202 533.185235 
L 432.095816 533.185235 
L 432.603123 532.736651 
L 433.617736 532.736651 
L 434.125043 532.56047 
L 435.139657 532.56047 
L 435.646964 532.12571 
L 438.183498 532.044042 
L 438.690805 531.640569 
L 439.705418 531.640569 
L 440.212725 531.47941 
L 441.227339 531.47941 
L 441.734645 531.282856 
L 442.749259 531.282856 
L 443.256566 531.097303 
L 444.27118 531.097303 
L 444.778486 530.921739 
L 445.7931 530.921739 
L 446.300407 530.702595 
L 447.31502 530.702595 
L 447.822327 530.331573 
L 451.880782 530.237974 
L 452.388089 530.027279 
L 453.402702 530.027279 
L 453.910009 529.846109 
L 454.924623 529.846109 
L 455.43193 529.693664 
L 456.446543 529.693664 
L 456.95385 529.547655 
L 457.968464 529.547655 
L 458.47577 529.410887 
L 459.490384 529.410887 
L 459.997691 529.749037 
L 461.012305 529.749037 
L 461.519611 529.583151 
L 462.534225 529.583151 
L 463.041532 529.321587 
L 464.056145 529.321587 
L 464.563452 528.965753 
L 465.578066 528.965753 
L 466.085373 528.734036 
L 468.621907 528.673315 
L 469.129214 528.544911 
L 471.665748 528.435982 
L 472.680361 528.364107 
L 474.709589 528.270288 
L 475.724202 528.179861 
L 477.75343 528.097237 
L 478.768043 528.019218 
L 479.27535 528.019218 
L 479.782657 527.891296 
L 481.304577 527.833403 
L 482.319191 527.778729 
L 484.348418 527.774295 
L 484.855725 527.633878 
L 487.392259 527.539864 
L 503.11877 526.908417 
L 506.669918 526.81232 
L 510.221066 526.69528 
L 513.772214 526.613728 
L 515.801441 526.516275 
L 516.816055 526.567013 
L 519.859895 526.401032 
L 520.874509 526.475846 
L 521.889123 526.50591 
L 522.903736 526.432931 
L 524.932964 526.413928 
L 525.44027 526.206728 
L 545.225236 526.105042 
L 553.849452 526.014822 
L 566.532123 525.926837 
L 567.03943 525.699398 
L 569.575964 525.796211 
L 571.605191 525.881995 
L 574.141725 525.897725 
L 575.663645 525.903458 
L 576.170952 526.222885 
L 578.707486 526.136037 
L 579.214793 526.019538 
L 580.736714 525.912829 
L 583.273248 525.786819 
L 585.809782 525.77792 
L 585.809782 525.77792 
" clip-path="url(#pe2f9303e83)" style="fill: none; stroke: #ff7f0e; stroke-width: 0.5; stroke-linecap: square"/>
   </g>
   <g id="patch_21">
    <path d="M 398.515909 678.04 
L 398.515909 373.44 
" style="fill: none; stroke: #000000; stroke-width: 0.8; stroke-linejoin: miter; stroke-linecap: square"/>
   </g>
   <g id="patch_22">
    <path d="M 702.9 678.04 
L 702.9 373.44 
" style="fill: none; stroke: #000000; stroke-width: 0.8; stroke-linejoin: miter; stroke-linecap: square"/>
   </g>
   <g id="patch_23">
    <path d="M 398.515909 678.04 
L 702.9 678.04 
" style="fill: none; stroke: #000000; stroke-width: 0.8; stroke-linejoin: miter; stroke-linecap: square"/>
   </g>
   <g id="patch_24">
    <path d="M 398.515909 373.44 
L 702.9 373.44 
" style="fill: none; stroke: #000000; stroke-width: 0.8; stroke-linejoin: miter; stroke-linecap: square"/>
   </g>
   <g id="legend_3">
    <g id="patch_25">
     <path d="M 619.3 410.79625 
L 695.9 410.79625 
Q 697.9 410.79625 697.9 408.79625 
L 697.9 380.44 
Q 697.9 378.44 695.9 378.44 
L 619.3 378.44 
Q 617.3 378.44 617.3 380.44 
L 617.3 408.79625 
Q 617.3 410.79625 619.3 410.79625 
z
" style="fill: #ffffff; opacity: 0.8; stroke: #cccccc; stroke-linejoin: miter"/>
    </g>
    <g id="line2d_79">
     <path d="M 621.3 386.538438 
L 631.3 386.538438 
L 641.3 386.538438 
" style="fill: none; stroke: #1f77b4; stroke-width: 0.5; stroke-linecap: square"/>
    </g>
    <g id="text_76">
     <!-- v [m/s] -->
     <g transform="translate(649.3 390.038438) scale(0.1 -0.1)">
      <defs>
       <path id="DejaVuSans-76" d="M 191 3500 
L 800 3500 
L 1894 563 
L 2988 3500 
L 3597 3500 
L 2284 0 
L 1503 0 
L 191 3500 
z
" transform="scale(0.015625)"/>
       <path id="DejaVuSans-2f" d="M 1625 4666 
L 2156 4666 
L 531 -594 
L 0 -594 
L 1625 4666 
z
" transform="scale(0.015625)"/>
      </defs>
      <use xlink:href="#DejaVuSans-76"/>
      <use xlink:href="#DejaVuSans-20" x="59.179688"/>
      <use xlink:href="#DejaVuSans-5b" x="90.966797"/>
      <use xlink:href="#DejaVuSans-6d" x="129.980469"/>
      <use xlink:href="#DejaVuSans-2f" x="227.392578"/>
      <use xlink:href="#DejaVuSans-73" x="261.083984"/>
      <use xlink:href="#DejaVuSans-5d" x="313.183594"/>
     </g>
    </g>
    <g id="line2d_80">
     <path d="M 621.3 401.216563 
L 631.3 401.216563 
L 641.3 401.216563 
" style="fill: none; stroke: #ff7f0e; stroke-width: 0.5; stroke-linecap: square"/>
    </g>
    <g id="text_77">
     <!-- $\omega$ [rad/s] -->
     <g transform="translate(649.3 404.716563) scale(0.1 -0.1)">
      <defs>
       <path id="DejaVuSans-Oblique-3c9" d="M 1369 -91 
Q 72 -91 434 1766 
Q 575 2500 1256 3500 
L 1875 3500 
Q 1231 2500 1088 1750 
Q 819 397 1519 397 
Q 2166 397 2478 2078 
L 3009 2078 
Q 2669 388 3316 397 
Q 4013 403 4275 1750 
Q 4419 2500 4169 3500 
L 4788 3500 
Q 5075 2500 4934 1766 
Q 4578 -94 3278 -91 
Q 2428 -88 2503 844 
Q 2194 -91 1369 -91 
z
" transform="scale(0.015625)"/>
      </defs>
      <use xlink:href="#DejaVuSans-Oblique-3c9" transform="translate(0 0.015625)"/>
      <use xlink:href="#DejaVuSans-20" transform="translate(83.740234 0.015625)"/>
      <use xlink:href="#DejaVuSans-5b" transform="translate(115.527344 0.015625)"/>
      <use xlink:href="#DejaVuSans-72" transform="translate(154.541016 0.015625)"/>
      <use xlink:href="#DejaVuSans-61" transform="translate(195.654297 0.015625)"/>
      <use xlink:href="#DejaVuSans-64" transform="translate(256.933594 0.015625)"/>
      <use xlink:href="#DejaVuSans-2f" transform="translate(320.410156 0.015625)"/>
      <use xlink:href="#DejaVuSans-73" transform="translate(354.101562 0.015625)"/>
      <use xlink:href="#DejaVuSans-5d" transform="translate(406.201172 0.015625)"/>
     </g>
    </g>
   </g>
  </g>
  <g id="text_78">
   <!-- $\int \mathrm{Run.\,obj.} \,\mathrm{d}t$ = 786.2 -->
   <g transform="translate(36 363.85) scale(0.1 -0.1)">
    <defs>
     <path id="DejaVuSans-37" d="M 525 4666 
L 3525 4666 
L 3525 4397 
L 1831 0 
L 1172 0 
L 2766 4134 
L 525 4134 
L 525 4666 
z
" transform="scale(0.015625)"/>
    </defs>
    <use xlink:href="#DejaVuSansDisplay-222b" transform="translate(0 0.96875)"/>
    <use xlink:href="#DejaVuSans-52" transform="translate(73.632812 0.96875)"/>
    <use xlink:href="#DejaVuSans-75" transform="translate(143.115234 0.96875)"/>
    <use xlink:href="#DejaVuSans-6e" transform="translate(206.494141 0.96875)"/>
    <use xlink:href="#DejaVuSans-2e" transform="translate(269.873047 0.96875)"/>
    <use xlink:href="#DejaVuSans-6f" transform="translate(337.378254 0.96875)"/>
    <use xlink:href="#DejaVuSans-62" transform="translate(398.559895 0.96875)"/>
    <use xlink:href="#DejaVuSans-6a" transform="translate(462.036458 0.96875)"/>
    <use xlink:href="#DejaVuSans-2e" transform="translate(489.819661 0.96875)"/>
    <use xlink:href="#DejaVuSans-64" transform="translate(557.324868 0.96875)"/>
    <use xlink:href="#DejaVuSans-Oblique-74" transform="translate(620.801431 0.96875)"/>
    <use xlink:href="#DejaVuSans-20" transform="translate(660.010415 0.96875)"/>
    <use xlink:href="#DejaVuSans-3d" transform="translate(691.797524 0.96875)"/>
    <use xlink:href="#DejaVuSans-20" transform="translate(775.586587 0.96875)"/>
    <use xlink:href="#DejaVuSans-37" transform="translate(807.373696 0.96875)"/>
    <use xlink:href="#DejaVuSans-38" transform="translate(870.996743 0.96875)"/>
    <use xlink:href="#DejaVuSans-36" transform="translate(934.61979 0.96875)"/>
    <use xlink:href="#DejaVuSans-2e" transform="translate(998.242837 0.96875)"/>
    <use xlink:href="#DejaVuSans-32" transform="translate(1024.529946 0.96875)"/>
   </g>
  </g>
 </g>
 <defs>
  <clipPath id="pc0ef8b9cf3">
   <rect x="55.271818" y="26.987955" width="304.384091" height="304.384091"/>
  </clipPath>
  <clipPath id="pa3f1c62654">
   <rect x="398.515909" y="26.88" width="304.384091" height="304.6"/>
  </clipPath>
  <clipPath id="paf436e4cfc">
   <rect x="55.271818" y="373.44" width="304.384091" height="304.6"/>
  </clipPath>
  <clipPath id="pe2f9303e83">
   <rect x="398.515909" y="373.44" width="304.384091" height="304.6"/>
  </clipPath>
 </defs>
</svg>
